<?xml version="1.0" encoding="utf-8"?>
<!-- Generator: Adobe Illustrator 25.2.1, SVG Export Plug-In . SVG Version: 6.00 Build 0)  -->
<svg version="1.1" id="Layer_1" xmlns="http://www.w3.org/2000/svg" xmlns:xlink="http://www.w3.org/1999/xlink" x="0px" y="0px"
	 viewBox="0 0 600 600" style="enable-background:new 0 0 600 600;" xml:space="preserve">
<style type="text/css">
	.st0{fill:#51340D;}
	.st1{fill:#F9E5C0;}
	.st2{fill:#9F5F11;}
	.st3{fill:none;stroke:#000000;stroke-width:10.9433;stroke-linecap:round;stroke-miterlimit:10;}
	.st4{opacity:0.6;}
</style>
<g>
	<g>
		<path class="st0" d="M264.2,28.4c-43.3,11.5-96.6,75.2-123,156c-11.1,14.7-21.9,35.8-31.3,54.8c-11.9,24.1-7.7,54.5-7.7,54.5
			s5.3-1.4,12.3-4.8l-36.2,62.7l9.5,5.5L76.9,376l8.3,4.8c-6.2,6.7-11,17.7-16.9,29.5c-11.9,24.1,0.3,54.5,0.3,54.5
			s5.2-1.4,12.2-4.7c-0.1,19.1,8.6,36,8.6,36s4-1.5,9.6-4.6c-0.2,0.9-0.3,1.8-0.5,2.8c-5.1,26.4,14.9,52.4,14.9,52.4s1.7-1,4.3-2.9
			c4.2,16.6,13.9,29.3,13.9,29.3s28.2-16.8,33.2-43.2c1.8-9.5,3.8-18.3,4.4-25.9c3.2-5.2,8-14,10.6-24.4c2.6,1.9,4.3,2.9,4.3,2.9
			s20-26,14.9-52.4c-0.2-0.9-0.3-1.8-0.5-2.8c5.6,3.1,9.6,4.6,9.6,4.6s8.7-16.9,8.6-36c7,3.3,12.2,4.7,12.2,4.7S241,370.1,229,346
			c-3.7-7.4-6.9-14.5-10.4-20.4l14.5-68.8c11-4,22.4-6.4,34.1-6.4c83.5,0,175.3-54.9,175.3-122.7c0-41.4-26.4-78-72.8-96.4
			C340.3,19.5,295.6,20.1,264.2,28.4z"/>
		<path d="M130.5,577.8l-2-2.6c-0.4-0.5-8.3-11-13.1-25.6c-0.1,0.1-0.2,0.1-0.2,0.1l-2.8,1.7l-2-2.6c-0.8-1.1-18.8-24.8-16.3-50.8
			c-2.1,1-3.4,1.4-3.4,1.5l-3.1,1.2l-1.5-2.9c-0.3-0.7-7.5-14.8-8.8-32.1c-4.5,1.8-7.6,2.7-7.7,2.7l-3.2,0.9l-1.2-3.1
			c-0.5-1.3-12.7-32.3-0.2-57.5c0.9-1.8,1.8-3.7,2.7-5.4c4-8.3,7.6-15.7,11.9-21.4l-7.7-4.4l10.9-18.9l-9.5-5.5l32.6-56.5
			c-1.6,0.6-2.6,0.8-2.7,0.8l-4.1,1.1l-0.6-4.2c-0.2-1.3-4.2-31.8,8.1-56.7c9.3-18.8,20.1-40,31.3-54.9
			c12.7-38.6,32.4-75.7,55.6-104.6c22.8-28.5,47.6-47.4,69.8-53.3h0c29-7.7,75.2-10.1,108,2.9c47,18.7,75.1,56.1,75.1,99.9
			c0,17.1-5.5,33.8-16.3,49.8c-10,14.8-24,28.2-41.7,40c-34.9,23.2-79.1,36.6-121,36.6c-9.9,0-20.3,1.8-30.9,5.5L222.6,325
			c2.4,4.2,4.7,9,7.1,13.9c0.9,1.8,1.8,3.6,2.7,5.5c12.5,25.3,0.3,56.2-0.2,57.5l-1.2,3.1l-3.2-0.9c-0.2,0-3.2-0.9-7.7-2.7
			c-1.3,17.3-8.5,31.5-8.8,32.1l-1.5,2.9l-3.1-1.2c-0.1,0-1.4-0.5-3.4-1.5c2.5,26-15.4,49.8-16.3,50.8l-2,2.6l-2.8-1.7
			c0,0-0.1,0-0.2-0.1c-2.6,8-6.2,14.9-9.1,19.6c-0.5,5.9-1.8,12.5-3.2,19.4c-0.4,2-0.8,3.9-1.2,6c-5.3,27.7-33.8,45-35,45.7
			L130.5,577.8z M119.9,537.5l1.3,5.3c2.8,11.2,8.3,20.5,11.2,25c7-5,24.8-19.2,28.6-38.8c0.4-2,0.8-4,1.2-6
			c1.4-7,2.7-13.7,3.2-19.4l0.1-0.9l0.5-0.8c3.3-5.3,7.7-13.6,10.1-23.3l1.3-5.3l4.4,3.2c0.4,0.3,0.7,0.5,1.1,0.8
			c4.7-7.2,16-27,12.2-46.6c-0.2-0.9-0.4-1.9-0.5-2.8l-1.5-7.8l6.9,3.9c2.3,1.3,4.3,2.3,5.9,3c2.4-5.6,6.8-17.9,6.8-31.1l0-5.9
			l5.3,2.5c3.3,1.6,6.2,2.7,8.3,3.4c2.6-8.2,8.2-30.3-0.7-48.2c-0.9-1.9-1.8-3.7-2.7-5.5c-2.6-5.3-5.1-10.4-7.6-14.7l-0.7-1.2
			L230,254l1.9-0.7c12.1-4.4,24-6.6,35.4-6.6c39.9,0,83.6-13.2,116.9-35.3c16.9-11.2,30.2-24,39.7-38c10-14.8,15-30.1,15-45.7
			c0-40.7-26.3-75.4-70.4-93c-29.8-11.9-74.6-10.3-103.3-2.7c-20.6,5.5-44,23.5-65.9,50.8c-22.8,28.4-42.2,64.9-54.6,102.8l-0.2,0.6
			l-0.4,0.5c-10.9,14.4-21.7,35.5-30.9,54.2c-8.6,17.4-8.4,38.7-7.8,47.9c2-0.7,4.6-1.8,7.4-3.1l10.8-5.1l-40.3,69.8l9.5,5.5
			l-10.9,18.9l9.1,5.2l-3.2,3.4c-4.9,5.3-8.9,13.5-13.6,23.1c-0.9,1.8-1.8,3.6-2.7,5.5c-8.9,17.9-3.3,40-0.7,48.2
			c2.1-0.7,5-1.9,8.3-3.4l5.3-2.5l0,5.9c-0.1,13.3,4.4,25.6,6.8,31.1c1.6-0.7,3.6-1.7,5.9-3l6.9-3.9l-1.5,7.8
			c-0.2,0.9-0.3,1.8-0.5,2.8c-3.8,19.6,7.5,39.4,12.2,46.6c0.3-0.2,0.7-0.5,1.1-0.8L119.9,537.5z"/>
	</g>
	<g>
		<path class="st0" d="M524.3,431.5l-0.1-0.6c5.3,5.2,9.1,8.1,9.1,8.1s11.2-31.7,1.5-63.5c-5.8-18.8-6.4-36.9-12.6-46.6
			c-10.8-16.9-17.4-36.2-20.6-56.1l-19.1-120.2c-2.6-19-5.6-37.8-7.8-42.3c-4.3-9.1-13.5-19.7-26.8-37c-7.4-9.6-16.9-17.4-27.8-22.6
			L397,39.3c-14.5-6.4,6.4,21.8,15.4,34.9l0,0c1.3,1.3,2.1,2.9,2.3,4.7l30.1,212.4c-2.3,0.1-4.8,0.5-7.6,1.2
			c-16.8,4.1-19.6,12.3-17.4,23.8c-2.8,0-6,0.4-9.8,1.3c-32.3,7.9-13,31-5.1,63.3c4.3,17.4,13.7,31.6,21.5,41.1
			c0.4,1.3,0.7,2.6,1,3.9c3.3,13.5,9.8,25.1,16.1,34.1c-0.2,5.3-0.5,10.9-1.2,16.6c-4.3,33,12.1,62.4,12.1,62.4s4.3-4.5,9.6-12.3
			c5.1,26.8,20.9,46.4,20.9,46.4s5.1-7.5,9.8-19.4c11.3,16.7,24.4,26.4,24.4,26.4s8.5-23.9,4.3-51.1c5.6,5.6,9.8,8.7,9.8,8.7
			s11.2-31.7,1.5-63.5C529.8,457.6,528.7,441.6,524.3,431.5z"/>
		<path d="M521.1,586l-4-3c-0.5-0.4-11-8.2-21.4-21.9c-3.9,8.5-7.4,13.7-7.5,13.9l-2.8,4.2l-3.2-3.9c-0.6-0.7-13.4-16.8-19.8-40
			c-3,3.8-5.1,6-5.2,6.1l-3.5,3.6l-2.4-4.4c-0.7-1.2-16.9-30.8-12.5-64.7c0.7-5.5,1-10.8,1.2-15c-7.8-11.1-13.1-22.6-16-34.3
			c-0.2-1-0.5-2-0.8-3.1c-7.6-9.3-17.3-24-21.7-41.9c-1.9-7.6-4.5-14.9-6.7-21.3c-4.9-13.7-9.1-25.6-4.2-34.7
			c3-5.6,9.1-9.4,18.7-11.8c2.3-0.6,4.4-1,6.4-1.2c-1.1-12.7,5.4-20.1,20.8-23.9c1.5-0.4,2.9-0.6,4.2-0.9L411.1,79.3
			c-0.1-1-0.6-1.9-1.3-2.6l-0.2-0.2l-0.2-0.3c-0.9-1.4-2-2.9-3.2-4.5c-15.8-22.5-20.4-30.8-16.7-35.2c1.8-2.2,4.9-2.4,9-0.6l0.1,0.1
			L422,47.2c11.4,5.5,21.4,13.7,29.1,23.7c3.2,4.2,6.2,8.1,8.9,11.5c8.6,11,14.8,19,18.2,26.2c2.6,5.4,5.8,26.6,8.1,43.3l19.1,120.2
			c3.3,20.6,10,39,20,54.7c4,6.3,5.8,15.3,7.9,25.7c1.3,6.7,2.8,14.3,5.1,21.8c10,32.6-1.1,64.5-1.6,65.8l-1.7,4.7l-3.8-2.8
			c0.6,2.9,1.3,5.9,1.9,9.1c1.3,6.7,2.8,14.3,5.1,21.8c10,32.6-1.1,64.5-1.6,65.8l-1.7,4.7l-4-3c-0.1-0.1-1.1-0.8-2.8-2.3
			c1.3,23.3-5.2,42-5.5,42.9L521.1,586z M494.1,545.7l3.9,5.9c6.9,10.3,14.7,17.9,19.3,22c2.1-8.3,5.5-25.5,2.6-44l-1.7-11.2l8,8.1
			c1.9,1.9,3.7,3.6,5.1,4.9c2.6-10.1,6.9-33.1-0.1-56c-2.4-7.9-3.9-15.6-5.3-22.5c-1.6-7.9-2.9-14.7-5.1-19.8l-0.2-0.5l-1.6-11.9
			l7.8,7.7c1.7,1.7,3.2,3.1,4.5,4.2c2.6-10.1,6.9-33.1-0.1-56c-2.4-7.9-3.9-15.6-5.3-22.5c-1.9-9.7-3.6-18-6.8-23.1
			c-10.6-16.5-17.7-35.9-21.1-57.5L479,153c-3.6-26.3-6.2-38.5-7.4-41.2c-3.1-6.5-9.1-14.2-17.4-24.8c-2.7-3.4-5.7-7.3-9-11.6
			c-6.9-9.1-16.1-16.5-26.4-21.5l-21.9-10.6c3,6.3,11.4,18.4,15.5,24.1c1.1,1.6,2.1,3,3,4.3c1.7,1.8,2.8,4.1,3.1,6.5l30.7,216.4
			l-4,0.3c-2.1,0.1-4.4,0.5-6.9,1.1c-14.7,3.6-16.5,9.9-14.6,19.4l0.9,4.5l-4.6-0.1c-2.5,0-5.5,0.4-8.9,1.2
			c-7.4,1.8-12,4.5-13.9,8.1c-3.3,6.2,0.4,16.6,4.6,28.7c2.3,6.6,5,14.1,7,22.1c4.2,17,13.6,30.9,20.8,39.6l0.5,0.6l0.2,0.8
			c0.4,1.4,0.7,2.7,1.1,4c2.7,11.1,8,22.2,15.6,32.8l0.7,1l0,1.3c-0.2,4.6-0.5,10.6-1.3,16.9c-3.1,23.7,5.1,45.7,9.3,55.2
			c1.6-2,3.5-4.5,5.7-7.7l5-7.4l1.7,8.8c3.5,18.3,12.2,33.3,17,40.4c1.8-3.3,4.3-8.1,6.6-14L494.1,545.7z"/>
	</g>
	<g>
		<path class="st1" d="M474.9,208.9c0,55.8-59.6,187.3-153,187.3S152.8,264.7,152.8,208.9c0-103.4,75.7-187.3,169.1-187.3
			c55.7,0,94.3,22.8,125.1,68.8c12.7,19,17,47.7,22.5,71.2C473,176.8,474.9,192.6,474.9,208.9z"/>
		<path d="M321.9,399.9c-22.6,0-45.5-7.4-67.9-22c-19.2-12.5-38.1-30.5-54.7-52.1c-29.6-38.6-50.3-86.6-50.3-116.8
			c0-50.9,17.9-98.9,50.5-134.9c32.7-36.2,76.1-56.1,122.3-56.1c28.4,0,52.5,5.8,73.7,17.6c20.6,11.5,38.4,28.8,54.5,52.9
			c10.8,16.1,15.7,39,20.1,59.2c1,4.6,1.9,9,3,13.3c3.7,15.6,5.5,31.8,5.5,48c0,31.5-17.3,79.5-42.1,116.6
			c-14.7,22.1-31.3,39.6-49.2,52.3C366.6,392.5,344.5,399.9,321.9,399.9z M321.9,25.4c-44.1,0-85.6,19-116.8,53.6
			c-31.3,34.7-48.6,80.8-48.6,129.9c0,28.7,20.1,74.9,48.8,112.3c47.6,62,93.5,71.3,116.6,71.3c21.1,0,41.6-7,61.2-20.7
			c17.2-12.1,33.1-29,47.3-50.3c28.1-42.1,40.8-87.8,40.8-112.5c0-15.7-1.8-31.3-5.3-46.3c-1-4.3-2-8.8-3-13.4
			c-4.4-20.5-9-41.7-19-56.6C428.5,69.5,411.5,53,392,42C372,30.8,349,25.4,321.9,25.4z"/>
	</g>
	<g>
		<path class="st0" d="M295.9,142.5L239,128.5c-13.3-3.3-27.2-3.1-40.4,0.4l0,0l0,0l1.3-9.6c0.7-5.3,5.6-9,10.9-8.2l41.7,1.7
			c15.9,0.6,31.5,4.2,46,10.6l2.8,1.2c3.8,1.6,6,5.6,5.4,9.7l0,0C306.1,139.5,301.2,143.2,295.9,142.5z"/>
		<path d="M297.3,146.3c-0.6,0-1.2,0-1.9-0.1l-0.4-0.1l-56.9-13.9c-12.6-3.1-26-3-38.5,0.4l-5.4,1.4l2.1-15.1
			c0.5-3.5,2.3-6.7,5.2-8.8c2.8-2.1,6.2-3,9.7-2.6l41.5,1.7c16.4,0.7,32.3,4.3,47.4,10.9l2.8,1.2c5.3,2.3,8.4,7.9,7.6,13.6
			C309.6,141.4,303.8,146.3,297.3,146.3z M296.6,138.8c3.2,0.4,6.1-1.9,6.5-5.1c0.3-2.4-1-4.8-3.2-5.8l-2.8-1.2
			c-14.2-6.2-29.2-9.6-44.7-10.2l-41.8-1.7l-0.2,0c-1.6-0.2-3.1,0.2-4.4,1.1c-1.3,1-2.1,2.4-2.3,3.9l-0.6,4.2
			c12.2-2.4,24.8-2.1,36.8,0.8L296.6,138.8z"/>
	</g>
	<g>
		<path class="st0" d="M372.1,30c-69.5,37.7-139,75.3-208.5,113c12.1-33.7,23.7-66.1,64.9-94.7c26.2-18.2,54.8-26.7,60.1-26.7
			C325.4,21.7,361.2,22.9,372.1,30z"/>
		<path d="M156.8,150.9l3.3-9.1c11.8-33,24-67.1,66.3-96.5c26.1-18.1,55.4-27.4,62.2-27.4c0,0,0,0,0,0c51.1,0,75.9,2.7,85.5,9
			l5.2,3.4L156.8,150.9z M288.6,25.4c-4.2,0-32.1,8.1-58,26.1c-36.6,25.4-49.3,53.7-60.3,83.7L363.5,30.4
			C345.8,25.4,306.7,25.4,288.6,25.4C288.6,25.4,288.6,25.4,288.6,25.4z"/>
	</g>
	<g>
		<path class="st0" d="M343.3,141.4l58.6-0.9c13.7-0.2,27.2,3,39.3,9.4l0,0l0.8-9.6c0.5-5.3-3.5-10-8.8-10.5l-41-7.7
			c-15.6-2.9-31.6-2.9-47.2,0l0,0c-5.3-0.5-10,3.5-10.5,8.8v0C334,136.2,337.9,140.9,343.3,141.4z"/>
		<path d="M444.3,155.8l-4.9-2.6c-11.5-6.1-24.5-9.2-37.5-9l-58.8,0.9l-0.2,0c-3.6-0.3-6.8-2-9.1-4.7c-2.3-2.7-3.4-6.2-3.1-9.8
			c0.6-7.2,6.8-12.5,13.9-12.2c16-2.9,32.2-2.9,48.1,0.1l40.8,7.7c3.5,0.4,6.6,2,8.9,4.7c2.3,2.7,3.4,6.2,3.1,9.8L444.3,155.8z
			 M403,136.8c12,0,23.9,2.5,34.8,7.4l0.4-4.3c0.1-1.6-0.3-3.1-1.4-4.3c-1-1.2-2.5-2-4-2.1l-0.4,0l-41-7.7
			c-15.2-2.9-30.6-2.9-45.9,0l-0.5,0.1l-0.5,0c-3.3-0.3-6.2,2.1-6.4,5.4c-0.1,1.6,0.3,3.1,1.4,4.3c1,1.2,2.4,1.9,3.9,2.1l58.4-0.9
			C402.2,136.8,402.6,136.8,403,136.8z"/>
	</g>
	<path d="M318.8,260.2c-6.9,0-13.1-3.5-16.8-9.2c-5-0.3-9.7-2.5-13.2-6.2c-3.8-4-5.7-9.3-5.5-14.8c0.2-3,1-5.8,2.4-8.4
		c1-1.8,3.2-2.5,5-1.5c1.8,1,2.5,3.2,1.5,5c-0.9,1.6-1.4,3.4-1.5,5.2c-0.2,3.5,1,6.8,3.4,9.3c2.4,2.5,5.6,3.9,9.1,3.9
		c0.1,0,0.2,0,0.3,0l2.8-0.1l1.1,2.2c2.1,4.4,6.4,7.1,11.3,7.1c4.5,0,8.7-2.5,11-6.5l1.1-2l2.3,0.1c0.1,0,0.2,0,0.4,0
		c0.1,0,0.1,0,0.2,0c3.5,0,6.7-1.4,9.1-3.9c2.4-2.5,3.6-5.8,3.4-9.3c-0.1-1.8-0.6-3.6-1.5-5.2c-1-1.8-0.3-4.1,1.5-5
		c1.8-1,4.1-0.3,5,1.5c1.4,2.6,2.2,5.4,2.4,8.4c0.3,5.5-1.6,10.8-5.5,14.8c-3.4,3.6-8.2,5.8-13.1,6.2
		C331.4,257,325.3,260.2,318.8,260.2z"/>
	<g>
		<path class="st2" d="M275.9,218.3h-54.5c-8.9,0-16.2-7.2-16.2-16.2v-36.7c0-8.9,7.2-16.2,16.2-16.2H284c8.9,0,16.2,7.2,16.2,16.2
			v20.9l-0.9,1.8c-3.2,6.3-5.7,12.8-8.1,19.4C288.9,213.8,283,218.3,275.9,218.3z"/>
		<path d="M275.9,222h-54.5c-11,0-19.9-8.9-19.9-19.9v-36.7c0-11,8.9-19.9,19.9-19.9H284c11,0,19.9,8.9,19.9,19.9v21.8l-1.3,2.6
			c-3.2,6.2-5.7,12.8-7.9,19C291.8,216.7,284.3,222,275.9,222z M221.4,153c-6.9,0-12.5,5.6-12.5,12.5v36.7c0,6.9,5.6,12.5,12.5,12.5
			h54.5c5.2,0,10-3.3,11.7-8.3c2.3-6.4,4.9-13.3,8.3-19.9l0.5-1v-20c0-6.9-5.6-12.5-12.5-12.5H221.4z"/>
	</g>
	<g>
		<path class="st2" d="M363.5,219.7H418c8.9,0,16.2-7.2,16.2-16.2v-36.7c0-8.9-7.2-16.2-16.2-16.2h-62.6c-8.9,0-16.2,7.2-16.2,16.2
			v20.9l0.9,1.8c3.2,6.3,5.7,12.8,8.1,19.4C350.5,215.3,356.5,219.7,363.5,219.7z"/>
		<path d="M418,223.5h-54.5c-8.4,0-15.9-5.3-18.7-13.2c-2.2-6.2-4.7-12.8-7.9-19l-1.3-2.6v-21.8c0-11,8.9-19.9,19.9-19.9H418
			c11,0,19.9,8.9,19.9,19.9v36.7C437.9,214.5,429,223.5,418,223.5z M343,186.9l0.5,1c3.4,6.6,6,13.5,8.3,19.9
			c1.8,4.9,6.5,8.3,11.7,8.3H418c6.9,0,12.5-5.6,12.5-12.5v-36.7c0-6.9-5.6-12.5-12.5-12.5h-62.6c-6.9,0-12.5,5.6-12.5,12.5V186.9z"
			/>
	</g>
	<rect x="178.9" y="136.9" transform="matrix(0.2275 -0.9738 0.9738 0.2275 -14.8609 301.5225)" width="7.4" height="46.5"/>
	<rect x="432.2" y="155.1" transform="matrix(0.8882 -0.4596 0.4596 0.8882 -22.6687 224.4764)" width="35.2" height="7.4"/>
	<path d="M354,154.4h-63.3c-2.1,0-3.7-1.7-3.7-3.7c0-2.1,1.7-3.7,3.7-3.7H354c2.1,0,3.7,1.7,3.7,3.7
		C357.7,152.8,356.1,154.4,354,154.4z"/>
	<path class="st3" d="M281.9,195.6"/>
	<g>
		<path class="st0" d="M377.8,305.7l-4-2.5c-5.2-3.3-11.9-2.9-16.7,1.1l-1.8,1.5l-1-0.8c-5.2-4.2-12.7-4.2-17.9,0l-1,0.8l-2.8-2.1
			c-4.9-3.6-11.5-3.7-16.5-0.2l-3.2,2.2l-2.9-2.1c-4.9-3.6-11.6-3.6-16.5-0.1l-3.1,2.2l-7.2-4.1c-4.3-2.4-9.5-2.5-13.8-0.2l-8,4.3v0
			c0-15.6,12.7-28.3,28.3-28.3l9.3-2.4c6.5-1.6,13.1-2.5,19.7-2.5h2.4c7.3,0,14.6,1,21.6,3l6.7,1.9
			C365.1,277.4,377.8,290,377.8,305.7L377.8,305.7z"/>
		<path d="M381.5,312.4l-9.7-6.1c-3.9-2.4-8.8-2.1-12.3,0.8l-4.1,3.4l-3.4-2.8c-3.8-3.1-9.4-3.1-13.2,0l-3.3,2.6l-5.1-3.8
			c-3.6-2.6-8.5-2.7-12.2-0.1l-5.4,3.8l-5.1-3.7c-3.6-2.6-8.5-2.7-12.2-0.1l-5.1,3.6l-9.2-5.3c-3.2-1.8-7-1.9-10.2-0.1l-13.5,7.3
			v-6.2c0-17.5,14.1-31.8,31.5-32l8.9-2.3c6.7-1.7,13.7-2.6,20.7-2.6h2.4c7.6,0,15.2,1,22.6,3.1l6.2,1.7c17.4,0.3,31.5,14.5,31.5,32
			V312.4z M276.1,295.9c3.1,0,6.1,0.8,8.9,2.4l5.1,2.9l1.2-0.8c6.3-4.4,14.6-4.4,20.8,0.1l0.8,0.6l1-0.7c6.3-4.4,14.7-4.3,20.8,0.2
			l0.6,0.4c6-4,13.9-4.1,19.9-0.1c5.1-3.9,11.9-4.8,17.7-2.4c-3.1-10.1-12.5-17.5-23.5-17.5H349l-7.2-2c-6.7-1.9-13.6-2.8-20.6-2.8
			h-2.4c-6.3,0-12.7,0.8-18.8,2.4l-9.8,2.5h-0.5c-11.2,0-20.7,7.6-23.7,17.9l1.6-0.8C270.3,296.7,273.2,295.9,276.1,295.9z"/>
	</g>
	<g>
		<path class="st0" d="M470.8,248.2c-4.9,4.1-34.3,77.4-74.1,100.4c-27,15.6-57.4,24.9-57.4,24.9c-1.7-2.8-2.6-5.9-2.6-9.1v-9.7
			c0-6.4-5.2-11.5-11.6-11.5h-11.5c-6.4,0-11.6,5.2-11.6,11.5v9.3c0,3.6-1,7.2-2.9,10.3c-27.4-7.5-24.5-5.7-57.5-23.4
			c-40.8-22-77.6-95.1-80.3-97.9c-16.2-17.1,31.4,87.9,86.1,152.8c0.1,2.1,0.2-19.9,0.2-17.7c0,13.5,10.7,24.5,10.7,24.5
			s3.8-3.9,6.8-9.8c0.2,0,0.2,0,0.4,0.1c0.1,1.5,0.1,3,0.1,4.5c0,13.5,10.7,24.5,10.7,24.5s2.4-2.5,5-6.6c2.3,10.7,10,18.6,10,18.6
			s2.3-2.4,4.8-6.3c13.9,15.5,23,25.2,23,25.2s7.4-8.6,19.1-22.4c2.5,4,4.9,6.5,4.9,6.5s7.7-7.9,10-18.6c2.5,4.1,5,6.6,5,6.6
			s10.7-11,10.7-24.5c0-1.8,0.1-3.6,0.2-5.3c3.1,6.4,7.2,10.6,7.2,10.6s10.7-11,10.7-24.5c0-3.8,0.3,16.7,0.5,13.5
			C442.9,334.8,478.2,241.9,470.8,248.2z"/>
		<path d="M319.5,468.2l-2.8-3c-0.1-0.1-7.9-8.5-20-21.8c-1.4,1.8-2.4,2.9-2.5,2.9l-2.7,2.7l-2.7-2.7c-0.3-0.3-5.2-5.4-8.6-13.2
			c-0.6,0.7-1,1.1-1.1,1.2l-2.7,2.7l-2.7-2.7c-0.4-0.4-8.8-9.2-11.1-21c-0.9,1.1-1.5,1.7-1.6,1.8l-2.7,2.7l-2.7-2.7
			c-0.2-0.2-2.7-2.8-5.3-7c-1,1.3-2.6,1.4-2.8,1.4c-1.3,0-2.7-0.6-3.4-1.9c-28.9-34.5-53-76.2-64.8-98
			c-7.9-14.6-14.7-28.6-19.3-39.5c-7.3-17.1-6.3-19.8-4.2-21.7c1.5-1.4,4.2-2.2,8.1,1.9c0.7,0.7,1.5,2.1,4.4,7.1
			c10.3,17.9,41.7,72.2,75,90.1c29.1,15.7,29.8,15.9,48.8,21c1.5,0.4,3.2,0.8,4.9,1.3c0.8-1.9,1.1-3.9,1.1-6v-9.3
			c0-8.4,6.9-15.2,15.3-15.2h11.5c8.4,0,15.3,6.8,15.3,15.2v9.7c0,1.6,0.3,3.1,0.8,4.6c8.3-2.8,32.2-11.2,53.6-23.6
			c29.3-16.9,53.5-63.3,65.1-85.6c5-9.6,6.8-13,8.5-14.4l0,0c2.1-1.8,4.5-1.3,5.8,0c1.8,1.8,1.6,4.3,0.4,8.5c-0.8,3-2.2,7.1-4,11.9
			c-4.1,10.9-10,24.5-16.8,38.4c-10.7,21.9-32.9,64.2-62.7,101.9c-0.7,1.9-2.4,2.4-3.5,2.4c0,0,0,0,0,0c-0.4,0-0.9-0.1-1.4-0.3
			c-3.1,5.8-6.7,9.6-7,9.8l-2.7,2.7l-2.7-2.7c-0.1-0.1-0.7-0.7-1.6-1.8c-2.3,11.9-10.7,20.6-11.1,21l-2.7,2.7l-2.7-2.7
			c0,0-0.4-0.5-1.1-1.2c-3.4,7.7-8.4,12.9-8.6,13.2l-2.7,2.7l-2.7-2.7c-0.1-0.1-1.1-1.1-2.5-3c-9.8,11.6-16,18.7-16.1,18.8
			L319.5,468.2z M295.8,431.2l3.3,3.6c9.3,10.3,16.4,18.1,20.2,22.1c3.2-3.7,8.9-10.4,16.4-19.2l3.3-3.9l2.7,4.3
			c0.6,1,1.2,1.8,1.8,2.6c2.2-3,5.2-7.9,6.4-13.5l1.9-8.9l4.8,7.8c0.6,1,1.3,1.9,1.8,2.7c2.9-3.9,7-10.9,7-18.7c0-2.1,0.1-4,0.2-5.5
			l0.8-14.3l6.3,12.8c1.2,2.5,2.7,4.7,3.8,6.3c2.9-3.9,7-10.9,7-18.7c0-4.1,3.5-4.2,3.7-4.2c1.3,0,3.7,0.8,3.8,3.9
			c0,0.2,0,0.5,0,0.9c0,0.6,0,1.5,0.1,2.4c24.1-31.9,42.6-65.8,54.3-89.4c3.2-6.6,6.1-12.7,8.7-18.3c-13.5,23.6-32.8,52.4-55.4,65.5
			c-27.1,15.7-56.9,24.8-58.2,25.2l-2.8,0.8l-1.5-2.5c-2-3.3-3.1-7.2-3.1-11.1v-9.7c0-4.3-3.5-7.8-7.9-7.8h-11.5
			c-4.3,0-7.9,3.5-7.9,7.8v9.3c0,4.3-1.2,8.6-3.5,12.3l-1.5,2.4l-2.7-0.7c-2.9-0.8-5.5-1.5-7.8-2.1c-19.4-5.2-20.6-5.5-50.4-21.6
			c-27.8-15-53.8-53.1-68.7-77.4c13.7,29.4,41.1,79.2,72.7,118.8c0-2.1,0-4,0-5.2l0-1.8c0-0.1,0-0.2,0-0.3c0-0.1,0-0.1,0-0.2l0-0.1
			l0,0c0.3-3.6,3.1-3.8,3.7-3.8c0,0,0,0,0,0c1.8,0,3.7,1.4,3.7,3.9c0,7.8,4.1,14.7,7,18.7c1.1-1.5,2.4-3.4,3.5-5.7l1.2-2.4l6,1
			l0.1,3c0.1,1.8,0.1,3.3,0.1,4.7c0,7.8,4.1,14.7,7,18.7c0.6-0.8,1.2-1.7,1.8-2.7l4.8-7.8l1.9,8.9c1.2,5.7,4.2,10.5,6.4,13.5
			c0.5-0.7,1.1-1.5,1.7-2.4L295.8,431.2z"/>
	</g>
	<g class="st4">
		<path d="M227.5,184.7c-0.6,0-1.3-0.2-1.9-0.5c-1.8-1-2.4-3.3-1.4-5.1c5.9-10.1,16.8-16.4,28.5-16.4c11.7,0,22.6,6.3,28.5,16.4
			c1,1.8,0.4,4-1.4,5.1c-1.8,1-4,0.4-5.1-1.4c-4.5-7.8-13-12.7-22-12.7c-9.1,0-17.5,4.9-22,12.7C230,184.1,228.7,184.7,227.5,184.7z
			"/>
		<g>
			<circle cx="264.6" cy="181.6" r="13.2"/>
			<path d="M264.6,198.5c-9.3,0-16.9-7.6-16.9-16.9c0-9.3,7.6-16.9,16.9-16.9s16.9,7.6,16.9,16.9C281.5,191,273.9,198.5,264.6,198.5
				z M264.6,172.2c-5.2,0-9.5,4.2-9.5,9.5c0,5.2,4.2,9.5,9.5,9.5s9.5-4.2,9.5-9.5C274.1,176.4,269.8,172.2,264.6,172.2z"/>
		</g>
	</g>
	<g class="st4">
		<path d="M361.5,184.7c-0.6,0-1.3-0.2-1.9-0.5c-1.8-1-2.4-3.3-1.4-5.1c5.9-10.1,16.8-16.4,28.5-16.4c11.7,0,22.6,6.3,28.5,16.4
			c1,1.8,0.4,4-1.4,5.1c-1.8,1-4,0.4-5.1-1.4c-4.5-7.8-13-12.7-22-12.7c-9.1,0-17.5,4.9-22,12.7C364,184.1,362.8,184.7,361.5,184.7z
			"/>
		<g>
			<circle cx="398.6" cy="181.6" r="13.2"/>
			<path d="M398.6,198.5c-9.3,0-16.9-7.6-16.9-16.9c0-9.3,7.6-16.9,16.9-16.9c9.3,0,16.9,7.6,16.9,16.9
				C415.5,191,407.9,198.5,398.6,198.5z M398.6,172.2c-5.2,0-9.5,4.2-9.5,9.5c0,5.2,4.2,9.5,9.5,9.5c5.2,0,9.5-4.2,9.5-9.5
				C408.1,176.4,403.8,172.2,398.6,172.2z"/>
		</g>
	</g>
	<path d="M290.8,336.2c-0.2,0-0.3,0-0.5,0c-2-0.3-3.5-2.1-3.2-4.2c0.5-4.1,3.9-9.6,17.2-12.4c9.1-1.9,20.8-2.1,33-0.6
		c2,0.3,3.5,2.1,3.2,4.2s-2.1,3.5-4.2,3.2c-11.4-1.4-22.3-1.3-30.6,0.5c-7.5,1.6-11.1,4.2-11.4,6
		C294.2,334.8,292.6,336.2,290.8,336.2z"/>
</g>
</svg>
