<?xml version="1.0" encoding="utf-8"?>
<!-- Generator: Adobe Illustrator 25.2.1, SVG Export Plug-In . SVG Version: 6.00 Build 0)  -->
<svg version="1.1" id="Layer_1" xmlns="http://www.w3.org/2000/svg" xmlns:xlink="http://www.w3.org/1999/xlink" x="0px" y="0px"
	 viewBox="0 0 450 450" style="enable-background:new 0 0 450 450;" xml:space="preserve">
<style type="text/css">
	.st0{fill:#2C1609;}
	.st1{fill:#F7E6B7;}
	.st2{opacity:0.4;}
	.st3{opacity:0.85;fill:#164918;}
</style>
<g>
	<g>
		<path class="st0" d="M420.9,247.1c-13.5-23-17.3-46-40.3-32.4c-14.3,8.4-12.7,17.1-6.2,28c-16.1,11-6.4,22.8,4.9,39.5
			c-4.5-2.3-10-1.9-17.8,2.7c-15.6,9.1-12.3,18.7-4.4,31c-7.3,5.8-7.8,11.8-5.1,18.7c-2.1,1.4-3.8,2.8-5.1,4.2
			c-6.7-12.2-13.5-19.1-28.6-10.2c-1.3,0.7-2.4,1.5-3.4,2.2c-4.5-2.5-10.2-2.1-18.1,2.5c-23,13.5-4.8,28,8.7,51s40.3,32.4,40.3,32.4
			s1.1-6.7,0.8-16.1c10.8,7.9,20.7,11.4,20.7,11.4s1.5-8.7,0.5-20.4c14.2,17.7,35.2,25.1,35.2,25.1s1.8-10.4,0.1-23.7
			c4.4,2.2,7.4,3.3,7.4,3.3s2.2-12.8-0.6-28.3c0.4,0.1,0.6,0.2,0.6,0.2s0.1-0.4,0.2-1.1c8.5,5.3,15.2,7.7,15.2,7.7s4.8-28-8.7-51
			c-0.9-1.6-1.8-3.1-2.6-4.7c6.6,3.7,11.4,5.4,11.4,5.4s2.2-12.8-0.6-28.2c2.7,1.2,4.3,1.8,4.3,1.8S434.4,270.1,420.9,247.1z"/>
		<path d="M405.9,421.8l-4.2-1.5c-0.8-0.3-16.2-5.8-29.9-18.7c-0.1,6.5-0.8,10.8-0.9,11.1l-0.8,4.4l-4.2-1.5
			c-0.3-0.1-7.1-2.5-15.7-7.9c-0.2,5.8-0.8,9.5-0.8,9.7l-0.8,4.4l-4.2-1.5c-1.1-0.4-28.2-10.1-42.3-34.1c-2.7-4.6-5.6-8.9-8.4-13
			c-7.2-10.6-13.4-19.7-11.4-28.8c1.2-5.5,5.3-10.2,12.5-14.4c7.6-4.5,14-5.6,19.6-3.6c0.6-0.4,1.2-0.8,1.9-1.2c7-4.1,13-5.4,18.3-4
			c5.5,1.5,9.4,5.7,12.6,10.7c-1.5-6.5,0.1-12,5-16.9c-4.2-7-6.6-13.2-5.1-19.4c1.3-5.4,5.3-10,12.4-14.2c4.3-2.5,8.2-4,11.8-4.4
			c-4.2-6.2-7.6-11.9-8.8-17.4c-1.5-7,0.8-13,6.9-18.2c-2.6-5-4.6-10.6-3.1-16.4c1.4-5.3,5.4-9.8,12.4-13.9
			c7.2-4.2,13.3-5.5,18.6-3.9c8.9,2.6,13.9,12.5,19.6,24c2.2,4.5,4.5,9.1,7.3,13.7v0c14.1,24,9.4,52.4,9.2,53.6l-0.8,4.4l-2.6-0.9
			c1.3,12.8-0.3,22.5-0.4,23l-0.8,4.4l-4.2-1.5c-0.1,0-0.5-0.2-1.3-0.5c10.4,22.6,6.4,46.8,6.2,47.9l-0.8,4.4l-4.2-1.5
			c-0.2-0.1-4.3-1.5-10.1-4.6c1.4,12.9-0.3,22.7-0.3,23.2l-0.8,4.4l-4.2-1.5c-0.1,0-0.7-0.3-1.8-0.7c0.6,10.4-0.7,17.9-0.7,18.2
			L405.9,421.8z M362.9,379.6l7.8,9.7c9.5,11.9,22.4,19,29.1,22.1c0.3-4.1,0.5-10.5-0.4-17.8l-0.9-7l6.3,3.2
			c0.9,0.5,1.8,0.9,2.5,1.2c0.4-4.9,0.5-13.1-1.1-22.2l-1.2-6.5l2.4,0.9l0.3-2.2l4.9,3.1c3.9,2.4,7.5,4.2,10.1,5.5
			c0.6-8.7,0.7-27.6-8.8-43.7c-0.9-1.5-1.8-3.1-2.7-4.8l-6.2-11.4l11.3,6.4c2.4,1.4,4.6,2.4,6.3,3.2c0.4-4.9,0.5-13.1-1.1-22.2
			l-1.3-7l6.1,2.8c0.6-8.7,0.7-27.6-8.8-43.7v0c-2.9-4.9-5.3-9.8-7.5-14.1c-4.9-9.9-9.2-18.4-15-20.1c-3.3-1-7.4,0.1-12.7,3.2
			c-5.1,3-8.1,6.1-8.9,9.3c-0.9,3.4,0.3,7.4,4,13.6l1.8,3l-2.9,2c-11.5,7.9-7.4,14.8,3.6,31c0.7,1.1,1.5,2.2,2.2,3.3l8.2,12.1
			l-13-6.7c-2.2-1.1-6.1-2.1-14.2,2.6c-5.2,3.1-8.1,6.1-8.9,9.4c-1.1,4.7,2.1,10.6,5.8,16.3l1.8,2.9l-2.7,2.1
			c-5.3,4.2-6.4,8.2-3.9,14.3l1.1,2.8l-2.6,1.7c-1.8,1.2-3.3,2.4-4.4,3.6l-3.5,3.8l-2.5-4.6c-4.1-7.5-7.3-11-10.9-12
			c-3.2-0.9-7.3,0.2-12.5,3.2c-1.1,0.6-2.1,1.3-3.1,2l-1.9,1.4l-2.1-1.1c-2.3-1.2-6.2-2.3-14.4,2.5c-5.3,3.1-8.2,6.2-8.9,9.5
			c-1.3,5.9,4.1,13.8,10.3,22.9c2.7,4,5.8,8.6,8.7,13.4c9.4,16.1,26,25.3,33.9,28.9c0.2-2.7,0.3-6.3,0.2-10.6l-0.3-7.8l6.3,4.6
			c5.9,4.3,11.6,7.3,15.3,9c0.3-3.5,0.4-8.7-0.1-14.7L362.9,379.6z"/>
	</g>
	<g>
		<path class="st0" d="M18.3,253.2c7.9-28.3,5.8-54,33-45c16.8,5.6,17.5,15.4,13.7,28.8c19.4,8,12.5,23.1,5.2,43.9
			c4-3.6,9.8-4.5,18.9-1.5c18.3,6.1,17.5,17.2,12.5,32.5c9,4.5,11.1,10.9,10.1,19c2.5,1,4.6,2.1,6.4,3.3c3.7-14.9,8.9-24,26.8-18.1
			c1.5,0.5,2.8,1,4.1,1.6c4-3.8,9.9-4.8,19.2-1.7c27.2,9,12.2,29.1,4.3,57.4s-33,45-33,45s-2.9-6.9-5-17.3
			c-9,11.2-18.3,17.4-18.3,17.4s-3.8-9.1-5.8-22c-10,22.7-29.7,35.9-29.7,35.9s-4.5-10.8-6.3-25.6c-4,3.5-6.7,5.4-6.7,5.4
			s-5.6-13.3-6.7-30.7c-0.3,0.2-0.5,0.4-0.5,0.4s-0.2-0.4-0.4-1.1c-7.3,7.8-13.6,12.1-13.6,12.1s-12.2-29.1-4.3-57.4
			c0.5-1.9,1-3.9,1.5-5.8c-5.8,5.6-10.3,8.6-10.3,8.6s-5.6-13.3-6.7-30.7c-2.4,2-4,3-4,3S10.4,281.5,18.3,253.2z"/>
		<path d="M79,438.1l-1.8-4.2c-0.2-0.4-3.5-8.3-5.5-20c-1.2,0.9-1.8,1.3-1.9,1.4l-3.8,2.5l-1.8-4.2c-0.2-0.5-4.5-11-6.4-25.5
			c-5.3,4.9-9.2,7.6-9.4,7.7l-3.8,2.5l-1.8-4.2c-0.5-1.2-11.1-26.9-5.8-54c-1,0.8-1.6,1.2-1.7,1.2l-3.8,2.5l-1.8-4.2
			c-0.2-0.5-4.5-10.8-6.4-25.2l-2.6,1.7l-1.8-4.2c-0.5-1.2-12.6-30.6-4.4-59.8c1.6-5.7,2.8-11.3,3.9-16.6c2.9-13.8,5.4-25.8,14-30.7
			c5.1-2.9,11.5-3,19.9-0.2c18.9,6.3,19.7,18.5,16.9,30.3c16.4,8.5,12.7,23.2,7.2,39.2c3.9-0.5,8.5,0.1,13.7,1.8
			c20.9,6.9,19.8,21,15.8,34.3c6.7,4.3,9.9,10.3,9.6,18.4c0,0,0,0,0,0c2-6.7,5-12.8,10.7-15.9c5-2.8,11.4-2.8,19.6-0.1
			c0.8,0.3,1.5,0.5,2.3,0.8c5.2-3.6,12.1-3.9,21-0.9c8.3,2.7,13.6,6.7,16.2,12.1c4.5,9.1,0.5,20.5-4.2,33.7
			c-1.8,5.1-3.7,10.5-5.3,16.2c-8.2,29.3-33.4,46.4-34.5,47.1l-3.8,2.5l-1.8-4.2c-0.1-0.2-1.8-4.3-3.5-10.7
			c-7.4,7.9-13.9,12.3-14.2,12.5l-3.8,2.5l-1.8-4.2c-0.1-0.3-2.1-4.9-3.9-12.3c-10.7,17.5-25.3,27.4-26,27.9L79,438.1z M77.3,399.3
			l0.8,7.1c1,8.4,2.9,15.6,4.3,19.9c6-5,17.6-15.9,24.4-31.3l5.2-11.8l2,12.7c1.1,6.9,2.7,12.7,3.9,16.4c3.4-2.8,8.5-7.4,13.6-13.7
			l5-6.3l1.6,7.9c1,4.9,2.1,9,3.1,11.9c7.1-5.8,21.9-20,27.5-39.9c1.7-5.9,3.6-11.4,5.4-16.7c4.3-12.1,7.6-21.6,4.5-27.9
			c-1.7-3.5-5.6-6.2-11.8-8.2c-9.6-3.2-13.4-1-15.4,0.9l-1.8,1.7l-2.3-1c-1.1-0.5-2.4-1-3.7-1.4c-6.1-2-10.5-2.2-13.6-0.5
			c-3.5,1.9-6,6.7-8.3,15.9l-1.3,5.3l-4.5-3.2c-1.5-1.1-3.4-2-5.6-2.9l-2.7-1.1l0.4-2.9c1-7.5-1.3-11.8-8-15.1l-2.9-1.4l1-3.1
			c6.1-18.9,1.8-23.8-10.1-27.8c-9.5-3.1-13.2-1.1-15.2,0.7l-10.8,9.7l4.8-13.7c0.5-1.4,1-2.8,1.4-4.1c7.1-20.1,9.6-29.3-4.6-35.1
			l-3.1-1.3l0.9-3.2c4.5-15.8-0.3-20.6-11.2-24.2c-6.2-2-10.7-2.2-13.7-0.4c-5.6,3.2-7.8,13.7-10.4,25.7c-1.2,5.5-2.4,11.2-4,17.1
			c-5.7,20.2-0.4,41.2,2.5,50.3l5.4-4.4l0.5,7.2c0.7,10.6,3.1,19.7,4.8,24.8c1.6-1.3,3.6-3.1,5.8-5.2l9.3-9.1l-3.1,12.6
			c-0.5,2.2-1,4.1-1.5,5.9c-5.7,20.2-0.4,41.2,2.5,50.2c2.4-2,5.6-4.8,9.1-8.5l4.1-4.4l0.8,2.2l2.1-1.5l0.4,6.7
			c0.7,10.6,3.1,19.7,4.8,24.9c0.7-0.6,1.6-1.3,2.4-2.1L77.3,399.3z"/>
	</g>
	<g>
		<g>
			<path class="st1" d="M373.3,174.1L373.3,174.1c-2.6,0-5.1,0.4-7.5,1.1v-9.5c0-50.4-40.9-91.3-91.3-91.3H161.9
				c-50.4,0-91.3,40.9-91.3,91.3v9.5c-2.4-0.7-4.9-1.1-7.5-1.1h0c-14.7,0-26.7,11.9-26.7,26.7v76.5c0,14.7,11.9,26.7,26.7,26.7h0
				c2.6,0,5.1-0.4,7.5-1.1v33.1c0,34.2,18.7,64,46.4,79.8c4.9,2.8,9.4,6.4,13.2,10.7c4.3,4.9,10.6,8,17.6,8h54.4
				c7.4,0,11.5-7.6,13.8-14.1c0.7-2.1,3.8-2.1,4.5,0c2.2,6.6,6.4,14.1,13.8,14.1h54.4c7,0,13.3-3.1,17.6-8
				c3.8-4.3,8.3-7.8,13.2-10.7c27.7-15.8,46.4-45.6,46.4-79.8v-33.1c2.4,0.7,4.9,1.1,7.5,1.1h0c14.7,0,26.7-11.9,26.7-26.7v-76.5
				C400,186,388.1,174.1,373.3,174.1z"/>
			<path d="M288.6,438.1h-54.4c-4.8,0-11.4-2.4-16-13.2c-4.6,10.8-11.2,13.2-16,13.2h-54.4c-7.8,0-15.3-3.4-20.5-9.2
				c-3.4-3.9-7.5-7.2-12.3-9.9c-29.8-17-48.3-48.8-48.3-83.1v-28.5c-1.2,0.2-2.5,0.2-3.8,0.2c-16.8,0-30.4-13.6-30.4-30.4v-76.5
				c0-16.8,13.6-30.4,30.4-30.4c1.3,0,2.5,0.1,3.8,0.2v-4.9c0-52.4,42.6-95,95-95h112.7c52.4,0,95,42.6,95,95v4.9
				c1.2-0.2,2.5-0.2,3.8-0.2c16.8,0,30.4,13.6,30.4,30.4v76.5c0,16.8-13.6,30.4-30.4,30.4c-1.3,0-2.5-0.1-3.8-0.2v28.5
				c0,34.3-18.5,66.1-48.3,83.1c-4.7,2.7-8.9,6-12.3,9.9C303.8,434.7,296.4,438.1,288.6,438.1z M218.2,414.8c2.7,0,5,1.6,5.8,4.2
				c1.8,5.3,5,11.6,10.2,11.6h54.4c5.7,0,11.1-2.4,14.8-6.7c4-4.5,8.7-8.3,14.2-11.4c27.5-15.7,44.5-45,44.5-76.5v-38.1l4.8,1.4
				c2.1,0.6,4.3,0.9,6.5,0.9c12.6,0,22.9-10.3,22.9-22.9v-76.5c0-12.6-10.3-22.9-22.9-22.9c-2.2,0-4.4,0.3-6.5,0.9l-4.8,1.4v-14.6
				c0-48.3-39.3-87.5-87.5-87.5H161.9c-48.3,0-87.5,39.3-87.5,87.5v14.6l-4.8-1.4c-2.1-0.6-4.3-0.9-6.5-0.9
				c-12.6,0-22.9,10.3-22.9,22.9v76.5c0,12.6,10.3,22.9,22.9,22.9c2.2,0,4.4-0.3,6.5-0.9l4.8-1.4v38.1c0,31.6,17.1,60.9,44.5,76.5
				c5.4,3.1,10.2,7,14.2,11.4c3.8,4.3,9.2,6.7,14.8,6.7h54.4c5.2,0,8.4-6.3,10.2-11.6C213.3,416.4,215.5,414.8,218.2,414.8z"/>
		</g>
		<g>
			<path class="st1" d="M183.9,288.7c-3.2,3.7-5.2,8.6-5.2,13.9c0,11.7,9.5,21.3,21.3,21.3c2.2,0,4.3-0.3,6.3-1
				c3.5,2.5,7.8,4,12.4,4c4.7,0,9-1.5,12.5-4.1c2.1,0.7,4.4,1.1,6.7,1.1c11.7,0,21.3-9.5,21.3-21.3c0-5.5-2.1-10.6-5.6-14.4"/>
			<path d="M218.7,330.7c-4.6,0-9.1-1.3-13-3.7c-1.9,0.4-3.8,0.7-5.7,0.7c-13.8,0-25-11.2-25-25c0-6,2.2-11.8,6.1-16.4
				c1.4-1.6,3.7-1.7,5.3-0.4c1.6,1.4,1.7,3.7,0.4,5.3c-2.8,3.2-4.3,7.3-4.3,11.5c0,9.7,7.9,17.5,17.5,17.5c1.8,0,3.5-0.3,5.2-0.8
				l1.8-0.6l1.5,1.1c3,2.1,6.5,3.3,10.2,3.3c3.7,0,7.3-1.2,10.3-3.4l1.6-1.1l1.8,0.6c1.8,0.6,3.6,0.9,5.5,0.9
				c9.7,0,17.5-7.9,17.5-17.5c0-4.4-1.6-8.6-4.6-11.8c-1.4-1.5-1.3-3.9,0.2-5.3c1.5-1.4,3.9-1.3,5.3,0.2c4.2,4.6,6.6,10.6,6.6,16.9
				c0,13.8-11.2,25-25,25c-2.1,0-4.1-0.3-6.1-0.7C227.9,329.4,223.4,330.7,218.7,330.7z"/>
		</g>
		<g>
			<path class="st0" d="M105,168.3l48-3.4c10-0.7,23.1,1,32.3,6.7c1.6,1,3.9,0.4,6.1-0.3c0,0,12.2,7.5,13.4-4.6l0.1-1
				c0.4-3.7-2-7-5.2-7.3l-80.2-12.1c-10.4-1-19.2,1.5-20.3,13.7v0C98.7,164.3,101.3,168,105,168.3z"/>
			<path d="M198.7,177.4c-3,0-6-1.1-7.7-2c-2.2,0.6-5.1,1-7.6-0.6c-8.8-5.4-21.3-6.7-30-6.1l-48.4,3.4l-0.3,0
				c-5.7-0.5-9.9-6.2-9.3-12.5c0.8-8.8,5.8-18.9,24.5-17.1l0.2,0l80.1,12c5.2,0.6,9,5.7,8.5,11.5l-0.1,1c-0.6,5.8-3.3,8.3-5.5,9.4
				C201.7,177.1,200.1,177.4,198.7,177.4z M191.9,167.1l1.5,0.9c1.7,1,5,2.2,6.3,1.5c0.6-0.3,1.1-1.5,1.3-3.3l0.1-1
				c0.2-1.7-0.8-3.1-1.7-3.2l-0.2,0l-80.1-12c-13.2-1.2-15.5,4.5-16.1,10.2c-0.2,2,0.8,3.8,2.2,4.1l47.6-3.4
				c9.9-0.7,24.1,0.8,34.5,7.2c0.3,0,1,0,3-0.6L191.9,167.1z"/>
		</g>
		<g>
			<path class="st0" d="M330.2,175.7L283,166c-9.8-2-23-2.1-32.9,2.3c-1.7,0.8-4-0.1-6-1.1c0,0-13.1,5.8-12.6-6.4l0-1
				c0.1-3.8,2.9-6.7,6.1-6.6l81.1-1.4c10.5,0.4,18.8,4,18.4,16.2v0C337,172.5,333.9,175.8,330.2,175.7z"/>
			<path d="M330.4,179.5c-0.1,0-0.2,0-0.4,0l-0.6-0.1l-47.2-9.7c-8.6-1.8-21.1-2.1-30.5,2.1c-2.7,1.2-5.6,0.4-7.7-0.4
				c-2.7,0.9-8.1,2.1-12.2-0.6c-2-1.4-4.4-4.2-4.2-10l0-1c0.1-2.7,1.1-5.3,2.9-7.2c1.8-2,4.3-3.1,6.8-3.1c0.1,0,0.1,0,0.2,0
				l81.1-1.4l0.1,0c6.7,0.2,11.7,1.7,15.4,4.4c4.7,3.5,6.9,8.8,6.6,15.8C340.7,174.6,336,179.5,330.4,179.5z M269.8,160.8
				c5.1,0,9.9,0.6,14,1.4l46.8,9.6c1.4-0.1,2.6-1.8,2.7-3.8c0.2-4.4-1-7.4-3.6-9.3c-2.4-1.7-6.1-2.7-11-2.9l-81.1,1.4l-0.1,0
				c-0.5-0.1-1,0.3-1.2,0.6c-0.5,0.6-0.8,1.4-0.9,2.3l0,1c-0.1,1.8,0.2,3,0.8,3.4c1.2,0.8,4.6,0.1,6.5-0.7l1.6-0.7l1.6,0.7
				c1.9,0.9,2.6,1,2.9,1C255.2,161.9,262.7,160.8,269.8,160.8z"/>
		</g>
		<g class="st2">
			<g>
				<circle cx="273.4" cy="199.5" r="18"/>
				<path d="M273.4,221.3c-12,0-21.7-9.7-21.7-21.7c0-12,9.7-21.7,21.7-21.7c12,0,21.7,9.7,21.7,21.7
					C295.1,211.5,285.4,221.3,273.4,221.3z M273.4,185.3c-7.8,0-14.2,6.4-14.2,14.2c0,7.8,6.4,14.2,14.2,14.2s14.2-6.4,14.2-14.2
					C287.6,191.7,281.2,185.3,273.4,185.3z"/>
			</g>
			<path d="M299.9,185.3h-26.5c-2.1,0-3.8-1.7-3.8-3.8c0-2.1,1.7-3.8,3.8-3.8h26.5c2.1,0,3.8,1.7,3.8,3.8
				C303.7,183.7,302,185.3,299.9,185.3z"/>
		</g>
		<g class="st2">
			<g>
				<circle cx="152.2" cy="199.5" r="18"/>
				<path d="M152.2,221.3c-12,0-21.7-9.7-21.7-21.7c0-12,9.7-21.7,21.7-21.7c12,0,21.7,9.7,21.7,21.7
					C173.9,211.5,164.2,221.3,152.2,221.3z M152.2,185.3c-7.8,0-14.2,6.4-14.2,14.2c0,7.8,6.4,14.2,14.2,14.2s14.2-6.4,14.2-14.2
					C166.4,191.7,160,185.3,152.2,185.3z"/>
			</g>
			<path d="M178.7,185.3h-26.5c-2.1,0-3.8-1.7-3.8-3.8c0-2.1,1.7-3.8,3.8-3.8h26.5c2.1,0,3.8,1.7,3.8,3.8
				C182.5,183.7,180.8,185.3,178.7,185.3z"/>
		</g>
		<g>
			<path class="st3" d="M200.2,172.6c8.1,4.2,12.2,13.2,9.9,21.9c-6.3,24-21.2,62.3-43.7,62.3c-30.5,0-71.5-7.1-71.5-36.8
				s-18.7-61.8,55.2-61.8C168.5,158.1,187.8,166.2,200.2,172.6z"/>
			<path d="M166.4,260.5c-13.4,0-32.6-1.3-48.5-7.5c-17.5-6.8-26.7-18.2-26.7-33.1c0-4.9-0.5-10-1.1-14.9c-1.4-13-2.8-26.5,6.1-36.4
				c8.7-9.7,25.8-14.2,53.9-14.2c19,0,38.6,8.1,51.8,14.9l0,0c9.7,5,14.5,15.7,11.8,26.2C209.7,210.7,194.5,260.5,166.4,260.5z
				 M150.1,161.9c-25.4,0-41.2,3.8-48.3,11.7c-6.7,7.4-5.5,18.2-4.2,30.6c0.5,5.1,1.1,10.4,1.1,15.7c0,30.7,51.8,33.1,67.7,33.1
				c18.1,0,32.9-32.1,40.1-59.5c1.8-7-1.5-14.2-8-17.6C186,169.5,167.6,161.9,150.1,161.9z"/>
		</g>
		<g>
			<path class="st3" d="M237.3,172.6c-8.1,4.2-12.2,13.2-9.9,21.9c6.3,24,21.2,62.3,43.7,62.3c30.5,0,71.5-7.1,71.5-36.8
				s18.7-61.8-55.2-61.8C268.9,158.1,249.7,166.2,237.3,172.6z"/>
			<path d="M271.1,260.5c-28.1,0-43.3-49.8-47.3-65.1c-2.7-10.4,2.1-21.2,11.8-26.2l0,0c13.1-6.8,32.8-14.9,51.8-14.9
				c28.1,0,45.2,4.5,53.9,14.2c8.9,9.9,7.5,23.4,6.1,36.4c-0.5,4.9-1.1,10-1.1,14.9c0,14.8-9.2,26.3-26.7,33.1
				C303.7,259.2,284.4,260.5,271.1,260.5z M239,175.9c-6.5,3.4-9.8,10.6-8,17.6c7.2,27.4,22,59.5,40.1,59.5
				c15.9,0,67.7-2.4,67.7-33.1c0-5.3,0.6-10.6,1.1-15.7c1.3-12.5,2.5-23.2-4.2-30.6c-7.1-7.9-22.9-11.7-48.3-11.7
				C269.9,161.9,251.4,169.5,239,175.9L239,175.9z"/>
		</g>
		<g>
			<line class="st1" x1="208.1" y1="181.6" x2="224.5" y2="181.6"/>
			<path d="M224.5,185.3h-16.4c-2.1,0-3.8-1.7-3.8-3.8c0-2.1,1.7-3.8,3.8-3.8h16.4c2.1,0,3.8,1.7,3.8,3.8
				C228.3,183.7,226.6,185.3,224.5,185.3z"/>
		</g>
	</g>
	<path d="M92.8,185.3c-0.5,0-1.1-0.1-1.6-0.4l-13.8-6.5c-1.9-0.9-2.7-3.1-1.8-5c0.9-1.9,3.1-2.7,5-1.8l13.8,6.5
		c1.9,0.9,2.7,3.1,1.8,5C95.6,184.5,94.2,185.3,92.8,185.3z"/>
	<g>
		<path class="st0" d="M434.9,155.5c-0.8-2.1-1.6-4.3-2.3-6.4c4.2,0.3,6.8,0.2,6.8,0.2s-4.8-23-21.6-39.6
			c-3.9-9.4-10.9-22-22.6-31.2c-7.7-6-14.2-12.5-20.1-17.2c-1.8-1.8-3.7-3.5-5.8-5.1c-16.4-12.8-27.3-27.8-39.1-23.7
			c-5.4-10.1-16.2-8.1-30.3-4.7c-5.1-3.9-12.6-3.1-21.7-1.1c-3.3-0.3-6.8,0.7-10.5,2.5c-1.5,0.4-3,0.7-4.6,1.1
			c-5.5-7.2-15-5.7-27-2.9c-6.7-11.7-21.1-6.1-39.6-2c-7.1-8.6-24.2-5.1-43.8-6.2c-26.7-1.6-49.4,15.4-49.4,15.4s3.9,3.7,10.4,8
			c-1.8,1.8-3.5,4-5.1,6.5c-10.8-1.6-15.4,4.9-19,15.2c-5.9,0.9-9.4,5.1-12.1,11.4C59.7,73.7,57.8,86,56.1,103.1
			c-14.2,3.6-12.1,17.2-10.4,34.9c-12.5,2.9-12.9,13.2-11.7,27.1c-11,2.3-7.7,16.6-9.7,32.9c-2.4,19.1,7.8,36.1,7.8,36.1
			s4.4-4.4,8.7-11.5c5.2,19.3,17.5,33.1,17.5,33.1s17.7-22.2,16.9-48.9c-0.3-8.5,0.3-16.5,0.4-23.4c4.1-8.8,8-20.6,7.6-33.4
			c0-1.1,0-2.1-0.1-3.1c0.3-0.6,0.6-1.2,0.9-1.7c3.6-3.5,7.4-7.7,10.8-12.6c7-6.2,15.3-15.5,20.3-27.4c0.3-0.3,0.7-0.6,1-1
			c6.1,0,14-0.7,22.4-2.9c-3.6,6.7-5.3,11.6-5.3,11.6s28,4.3,50.9-9.6c1.4-0.9,2.8-1.7,4.2-2.5c10.1-0.5,23.7-2.7,35.8-10.1
			c1.4-0.9,2.8-1.7,4.2-2.5c8.9-0.8,19.6-3.1,29.6-8.7c-5,8.4-7.2,15-7.2,15s9.1,1.4,21.1,0c-2.4,4.8-3.4,8.1-3.4,8.1
			s26.1,4,48.4-8.2c1.3,2.3,2.6,4.8,3.8,7.3c11.7,24,37.6,35.5,37.6,35.5s3-11.6,1.8-26.3c1.1,1.6,2.6,3.2,4.3,4.7
			c-2.2,8.4-2.1,20-4.1,32.4c-1.8,11.2-0.1,22.1,2.3,30.8c-16.4,2.1-13.2,22.3-16.9,45.2c-4.2,26.4,10.5,50.7,10.5,50.7
			s9.6-8.3,17.3-21.7c5-1.8,16.4-6.5,26.9-15.3c0,0.3,0,0.5,0,0.8c-0.9,26.7,16.8,49,16.8,49s19-21.1,19.9-47.8
			c0.5-17.1,4.4-32,0.2-40.7C439.3,189,441.2,171.9,434.9,155.5z M358.2,98.5c-0.1-0.5-0.2-1-0.4-1.5c0.2,0.2,0.5,0.3,0.7,0.5
			C358.4,97.9,358.3,98.2,358.2,98.5z"/>
		<path d="M417,293.2l-2.8-3.5c-0.7-0.9-15.6-20-17.4-44.6c-8,5.6-15.8,9-20.7,10.9c-7.7,13.1-17,21.2-17.4,21.5l-3.4,2.9l-2.3-3.8
			c-0.6-1-15.4-25.8-11-53.2c0.8-5.3,1.3-10.4,1.8-15.4c1.3-14.4,2.5-28,14.2-32c-2.4-10-2.9-19.6-1.4-28.6c0.3-2.2,0.6-4.3,0.9-6.4
			l-0.7-0.3c-1.1-0.5-27.4-12.3-39.5-37.3c-0.6-1.2-1.3-2.5-2-3.9c-22.3,10.6-46.4,7.1-47.5,6.9l-4.4-0.7l1.4-4.2c0-0.1,0.3-1,1-2.7
			c-9,0.4-15.3-0.5-15.6-0.6l-4.4-0.7l1.4-4.2c0.1-0.2,0.8-2.4,2.4-5.9c-6.2,2.2-12.9,3.7-20.1,4.5c-1.2,0.7-2.3,1.4-3.4,2
			c-12.6,7.7-26.8,10.1-36.7,10.6c-1.2,0.7-2.3,1.3-3.4,2c-23.7,14.5-52.2,10.3-53.4,10.1l-4.4-0.7l1.4-4.2c0-0.1,0.7-2.1,2-5.1
			c-4.4,0.8-9,1.2-13.7,1.3c-5.3,12.1-13.9,21.3-20.3,27.1c-3,4.3-6.5,8.4-10.5,12.4c-0.1,0.1-0.1,0.3-0.2,0.4c0,0.7,0,1.4,0,2.1
			c0.3,11.1-2.2,22.6-7.6,34.4c0,2.2-0.1,4.5-0.2,6.9c-0.2,5-0.4,10.1-0.2,15.5C79.8,234.4,62,257,61.3,258l-2.8,3.5l-3-3.3
			c-0.5-0.5-10-11.2-16-27.1c-2.7,3.5-4.8,5.6-4.9,5.7l-3.4,3.4l-2.5-4.1c-0.4-0.7-10.9-18.4-8.3-38.5c0.5-4.2,0.7-8.1,0.8-12
			c0.4-10,0.8-19.5,8.6-23.1c-0.7-9.9-0.7-22.5,11.7-27.2c-1.5-15.4-2.8-29.9,11-35c1.2-11.3,2.9-19.7,9-24.6
			c3.4-2.8,7.9-4.1,13.6-3.9c2.2-4.3,5.6-9,11.6-10.7c3.3-8.6,8.5-16.6,20-15.9c0.4-0.6,0.9-1.2,1.3-1.8c-4.6-3.3-7.2-5.8-7.4-5.9
			l-3.2-3.1l3.6-2.7c1-0.7,24.1-17.8,51.9-16.2c5.4,0.3,10.5,0.3,15.5,0.2c12.2-0.1,22.8-0.2,29.3,5.6c1.7-0.4,3.5-0.8,5.1-1.2
			c14.6-3.6,27.4-6.7,34.9,3.1c9.2-2.1,19.7-3.9,26.7,3c0.7-0.2,1.3-0.3,1.9-0.5c4.3-2.1,8-3,11.5-2.7c7.6-1.7,16.1-3,22.6,0.9
			c11.6-2.8,24.2-5.3,31.3,4.4c9.5-1.4,18.1,6.2,27.9,15c3.7,3.3,7.5,6.7,11.8,10.1c2,1.6,4.1,3.4,6,5.3c2.6,2.1,5.3,4.5,8.1,7
			c3.7,3.3,7.5,6.7,11.8,10.1c12.2,9.5,19.5,22.5,23.5,32c17,17.1,21.9,40,22.1,40.9l0.9,4.4l-4.4,0.2c0,0-0.6,0-1.6,0
			c0.1,0.4,0.3,0.7,0.4,1c6.2,16.1,5,32.8,2.8,44.3c2.7,6.7,1.8,15.6,0.8,25.8c-0.5,5-1,10.1-1.2,15.5c-0.9,27.8-20,49.3-20.8,50.2
			L417,293.2z M404.4,229.4l-0.2,9.2c-0.6,18.6,8.5,35.2,13.2,42.6c5.2-7,15.3-23,15.9-41.6c0.2-5.6,0.7-11.1,1.2-16
			c1-9.7,1.8-18-0.6-23l-0.5-1.1l0.3-1.2c1.8-8.6,3.9-25.5-2.2-41.2v0c-0.8-2-1.5-4.1-2.3-6.5l-1.8-5.4l5.6,0.4
			c0.6,0,1.1,0.1,1.6,0.1c-2.3-7.3-8-21.9-19.3-33l-0.5-0.5l-0.3-0.7c-3.6-8.7-10.3-20.9-21.5-29.7c-4.4-3.5-8.6-7.1-12.2-10.4
			c-2.8-2.5-5.5-4.9-8-6.9l-0.3-0.3c-1.8-1.8-3.6-3.4-5.4-4.8c-4.4-3.5-8.6-7.1-12.2-10.4c-10.4-9.3-17.1-14.9-23.4-12.8l-3,1
			l-1.5-2.8c-3.9-7.3-11.3-6.4-26.1-2.8l-1.7,0.4l-1.4-1.1c-3.8-2.9-10.2-2.3-18.6-0.4l-0.6,0.1l-0.6-0.1c-2.3-0.2-5.1,0.5-8.4,2.1
			l-0.4,0.2l-0.4,0.1c-1.5,0.4-3,0.7-4.6,1.1l-2.3,0.5l-1.5-1.9c-3.8-5-10.8-4.4-23.2-1.5l-2.7,0.6l-1.4-2.4
			c-4.2-7.4-12.6-5.7-28.2-1.9c-2.3,0.6-4.8,1.2-7.3,1.7l-2.3,0.5l-1.5-1.8c-4-4.8-13.3-4.7-25.1-4.6c-4.9,0-10.4,0.1-16-0.2
			c-18.6-1.1-35.5,7.5-42.9,12.1c1.6,1.3,3.7,2.8,6.2,4.4l3.9,2.6l-3.3,3.3c-1.4,1.4-3,3.3-4.6,5.9l-1.3,2l-2.4-0.4
			c-7.4-1.1-11.2,2.1-14.9,12.7l-0.8,2.1L90.2,68c-3.9,0.6-6.7,3.3-9.2,9.2l-1.1,2.5l-2.8-0.3c-4.9-0.5-8.5,0.1-10.8,2
			c-4.3,3.4-5.4,11.7-6.5,22l-0.3,2.6l-2.5,0.6c-9.5,2.4-9.7,9.7-7.9,28.3l0.6,5.9l-3.2,0.7c-8.3,1.9-10.2,6.9-8.8,23.1l0.3,3.3
			l-3.3,0.7c-4.8,1-5.4,5.5-5.9,17.1c-0.2,3.8-0.3,8.2-0.9,12.6c-1.5,11.8,2.3,22.9,4.9,28.9c1.4-1.8,3-4,4.7-6.7l4.6-7.6l2.3,8.5
			c3.3,12.4,9.9,22.6,13.7,27.8c4.7-7.3,13.9-23.9,13.3-42.5c-0.2-5.6,0-11.1,0.2-16c0.1-2.7,0.2-5.2,0.2-7.5l0-0.8l0.3-0.7
			c5.1-10.9,7.6-21.6,7.2-31.7c0-1.1-0.1-2.2-0.1-3.2l0-0.9l0.4-0.8c0.3-0.5,0.6-1.1,0.8-1.7l0.3-0.6l0.5-0.5
			c3.9-3.8,7.4-7.9,10.3-12l0.3-0.4l0.3-0.3c6.1-5.5,14.5-14.4,19.3-26l0.3-0.7l0.6-0.6c0.3-0.3,0.7-0.6,1-0.9l1.1-1.1l1.5,0
			c7.5,0,14.8-1,21.5-2.8l8.4-2.3l-4.2,7.7c-1.4,2.5-2.4,4.7-3.2,6.5c8.7,0.5,27.6,0.2,43.5-9.5c1.4-0.8,2.8-1.7,4.4-2.6l0.8-0.4
			l0.9,0c9.1-0.4,22.3-2.4,34-9.6c1.4-0.8,2.8-1.7,4.3-2.5l0.7-0.4l0.8-0.1c10.7-1,20.1-3.8,28.1-8.3l12.3-6.9l-7.2,12.1
			c-2.3,3.8-3.9,7.2-5.1,9.8c3.6,0.2,9.1,0.3,15.3-0.4l6.8-0.8l-3,6.2c-0.6,1.2-1.1,2.2-1.5,3.2c8.3,0.5,25.9,0.2,41.3-8.2l3.3-1.8
			l1.8,3.3c1.5,2.7,2.8,5.2,3.9,7.5c8.1,16.8,23.9,27.2,31.5,31.5c0.7-4.5,1.5-12,0.8-20.4l-0.5-6.1l-1.4-5.8
			c-0.1-0.4-0.2-0.8-0.3-1.3l-2.6-9.7l11.5,7.8l-1.1,2.8c-0.1,0.3-0.2,0.5-0.3,0.8l-1.5,4.7l2.9,4.2c0.9,1.3,2.1,2.6,3.7,4l1.7,1.5
			l-0.6,2.2c-1.1,4.4-1.6,9.8-2.2,16.1c-0.4,4.8-0.9,10.3-1.8,15.9c-1.4,9-0.7,18.9,2.2,29.2l1.2,4.2l-4.3,0.6
			c-9.1,1.2-10.3,9.8-11.8,26.2c-0.4,4.8-0.9,10.3-1.8,15.9c-2.9,18.4,4,36,7.8,43.9c3.3-3.5,8.6-9.5,13-17.4l0.7-1.2l1.3-0.5
			c4.3-1.6,15.6-6.1,25.8-14.7L404.4,229.4z"/>
	</g>
	<path d="M218.2,376.7c-0.6,0-1.2-0.1-1.8-0.5c-1.3-0.7-2.7-1.4-4.1-2c-14.4-5.9-29.6-2.3-39.8,1.7c-1.9,0.8-4.1-0.2-4.9-2.1
		c-0.8-1.9,0.2-4.1,2.1-4.9c11.5-4.5,28.7-8.4,45.4-1.6c1.7,0.7,3.3,1.5,4.9,2.3c1.8,1,2.5,3.3,1.5,5.1
		C220.8,376,219.5,376.7,218.2,376.7z"/>
	<path d="M265.3,377.1c-0.6,0-1.2-0.1-1.8-0.5c-1.3-0.7-2.7-1.4-4.1-2c-14.4-5.9-29.6-2.3-39.8,1.7c-1.9,0.8-4.1-0.2-4.9-2.1
		c-0.8-1.9,0.2-4.1,2.1-4.9c11.5-4.5,28.7-8.4,45.4-1.6c1.7,0.7,3.3,1.5,4.9,2.3c1.8,1,2.5,3.3,1.5,5.1
		C267.9,376.4,266.6,377.1,265.3,377.1z"/>
</g>
</svg>
