<?xml version="1.0" encoding="utf-8"?>
<!-- Generator: Adobe Illustrator 25.2.3, SVG Export Plug-In . SVG Version: 6.00 Build 0)  -->
<svg version="1.1" id="Layer_1" xmlns="http://www.w3.org/2000/svg" xmlns:xlink="http://www.w3.org/1999/xlink" x="0px" y="0px"
	 viewBox="0 0 600 300" style="enable-background:new 0 0 600 300;" xml:space="preserve">
<style type="text/css">
	.st0{fill:#186FAF;}
	.st1{fill:#1876A8;}
	.st2{fill:#1B72AA;}
	.st3{fill:#1A70AF;}
	.st4{fill:#196FAF;}
	.st5{fill:#1B71AC;}
	.st6{fill:#1B77AC;}
	.st7{fill:#1B77A9;}
	.st8{fill:#1A78A7;}
	.st9{fill:#1C74AC;}
	.st10{fill:#1A6FAE;}
	.st11{fill:#1A71A8;}
	.st12{fill:#1776A1;}
	.st13{fill:#1B74AA;}
	.st14{fill:#1C76AB;}
	.st15{fill:#1B72A9;}
	.st16{fill:#1D7895;}
	.st17{fill:#1A77A4;}
	.st18{fill:#217A96;}
	.st19{fill:#1A74AA;}
	.st20{fill:#1B72AB;}
	.st21{fill:#2F808C;}
	.st22{fill:#F6F426;}
	.st23{fill:#F6F427;}
	.st24{fill:#F2F22B;}
	.st25{fill:#1F788D;}
	.st26{fill:#1B76AA;}
	.st27{fill:#247F95;}
	.st28{fill:#C8E163;}
	.st29{fill:#F7F527;}
	.st30{fill:#1C72AB;}
	.st31{fill:#F2F22C;}
	.st32{fill:#F2F12C;}
	.st33{fill:#F5F428;}
	.st34{fill:#1A73AB;}
	.st35{fill:#257A92;}
	.st36{fill:#CAE362;}
	.st37{fill:#F3F32B;}
	.st38{fill:#F6F428;}
	.st39{fill:#F0FFFF;}
</style>
<path class="st0" d="M141.4,164.5c-2.1-2.3-4.2-4.7-6.3-7c-1.6-2-3.8-1.7-5.9-1.2c-4.3,1-8.4,2.9-12.8,3.8c-2.4,0.5-2.7,2.6-3.6,4.4
	c-0.6,0.7-1,2-2.2,1.7s-1.1-1.6-1-2.6c0-2.8,1-5.3,2.1-7.8c0.4-1,1.2-1.6,2.3-1.7c8.4,0.1,15.7-3.6,22.9-7
	c5.8-2.6,11.3-5.7,16.6-9.3c15.6-11,26.2-26,34.5-42.7c1.2-2.7,2.3-5.5,3.2-8.3c0.9-2.7,2.3-4.3,5.9-2.8c4.3,1.9,8.9,0,13.2-0.2
	c11.4-0.5,22.7-1.4,34.1,0.2c4.3,0.5,8.6,0.5,12.9-0.1c-6.2-3.9-12.3-4.9-18-6.9c-10.2-3.6-21.1-3.5-31.7-4.4
	c-3.9-0.3-8.6-0.7-10.6,4.4c-0.2,0.7-0.9,1.2-1.7,1.2c-1.1-0.2-1-1.2-1.1-2.1c-0.1-1.9,0.1-3.9,0-6c-0.4-5-1.7-9.5-5.1-13.3
	c-0.9-1-2.3-2.8,0.5-3.7c4.1,2.3,6.2,5.9,7.2,10.3c0.9,4,3.2,5.2,7.1,5.3c6.5,0.2,13,0.6,19.5,1.2c9.4,1,18.6,3.2,27.4,6.6
	c4.4,1.6,7,0.7,9.1-3.2c3.9-7.4,8.9-14.1,14.8-20c3.4-3.6,7.3-6.5,11.6-8.9c5.6-2.8,11.4-3.3,16.9,0.5c1.6,1.1,3,2.5,4,4.2
	c3.3,7.9,2,15.9,0.2,24c-0.9,4.5-2.3,9-4.1,13.3c1.3-0.4,1.5-1.5,2.2-2.1c0.9-0.9,2-1.6,3.1-2.1c2.6-2.7,5.9-4.6,9.6-5.6
	c2.2-0.5,2.3,0.7,2.1,2.3c-1.5,2.5-4.5,3-6.4,5c-2.6,2.5-4.9,5.3-6.8,8.3c-5.2,7.5-8.9,16-11,24.9c-0.5,2.2-1.6,5,3.2,4
	c2.5-0.4,1.6,1.8,0.8,2.9c-5.5,7.3-12.1,12.6-22,12.5c-4.3-0.1-6.9,1.6-8.1,5c-0.9,2.5-0.2,3.7,2.5,4.2c3,0.5,6.1-0.3,9.1-0.2
	c0.7,0,1.4,0.3,2,0.7c0.5,0.5,0.6,1.2,0.3,1.9c-0.2,0.4-0.6,0.7-1,0.9c-5,1.4-10.2,1.2-15.1-0.6c-1.6-0.6-3.3-0.9-5.1-0.6
	c-3.6,1.3-6.3,4.3-10,6.6c0.2-0.1,0.9,0.4,0.8-0.1c-0.1-0.1,0.1-0.2,0.3-0.2c0.6-0.1,1.2,0,1.7,0.2c1.7,2,0.4,2.9-1.3,3.1
	c-6.3,0.8-12.6,1.9-18.9,2.7c-4.3,0.6-8.7,1.6-13.1,0.8c-0.9-0.5-0.3-2.4-1.7-2.4c-1.1,0.1-0.9,1.1-0.8,1.9c-0.1,2-1.7,2-3.1,2.2
	c-15.5,2.6-30.8,6.4-45.7,11.3c-13.8,4.6-27.8,8.8-41,15.1c-1.3,0.6-2.4,1.7-3.7,2.2c-10.1,4.4-19,10.6-23.9,20.8
	c-4.6,9.9-0.8,20.7,10.9,25.9c12.4,5.5,25.6,7.7,39.2,8.1c10.2,0.3,20.1-0.9,30.2-1.8c3.8-0.4,7.3-1.8,11-2.6
	c1.3-0.3,2.8-0.6,3.5,0.7s-0.5,2.4-1.4,3.2c-7.8,3.5-16.2,4.4-24.4,5.5c-11.4,1.3-22.9,1.3-34.2-0.1c-11.4-1.2-22.8-4.1-32.8-10.4
	c-2.9-1.9-5.6-4.1-8-6.7c-6.7-7.8-7-17.7-0.7-26c7.2-9.6,16.7-16.6,27.4-21.9c10-5,20.6-8.3,31.2-11.5c1.8-0.6,3.5-1.3,5.2-2
	c6.1-3,12.7-4.6,19.2-6.2c1.5-0.4,3.7,0.1,3.9-2.4c-4.4-3.1-4.4-3.8,0-7c3.9-2.7,7.4-6,10.3-9.7c1.9-2.4,3.9-4,6.6-0.8
	c0.4,0.4,1.1,0.2,1.7,0.1s1.1-0.4,1.6-0.6c3.1-0.6,3.5-2.4,2.5-5c-0.4-1.6-0.8-3.1-1.4-4.6c-0.3-1.3-0.6-2.7,0.2-3.8
	c3.1-4.4,4.1-9.7,6.3-14.5c2-4.7,2-10-0.2-14.6c-3.2-7.3-11-8.5-17-2.8c-8.5,8.3-15.5,17.7-17.1,30c-0.4,3-1.8,5.7-2,8.8
	c-0.1,1.4-0.3,3.1,1.1,3.9s2.4-0.6,3.4-1.2c2.7-1.7,4.7-4.3,5.6-7.4c0.5-1.9,1.1-3.9,3.1-5c3.1-1.3,4.2-4.2,5.8-6.9
	c-1-0.2-1.6,0.2-2.3-0.2c-0.9-3.4,1.9-8,5.1-8.1c2.5,0,3.1,1.4,3.2,3.7c0,5.7-3.1,10-6.2,14.4c-5,7.2-11.4,13.4-18.6,18.3
	c-2.4,1.7-5,2.9-7.8,3.8c-5.4,1.7-11.1-0.2-13.7-5.3c-1.7-3.2-3.5-3.8-6.6-2c-0.9,0.5-1.8,0.9-2.7,1.3c-5.6,2.9-6,5-2.1,10
	c1.6,1.8,3.5,3.5,5.5,4.9c0.9,0.7,1.8,1.7,1.2,2.9s-1.7,0.9-2.7,0.7C144.2,166.7,142.6,165.8,141.4,164.5z"/>
<path class="st0" d="M332.8,85.2c0.5-0.3,0.8-0.9,1.3-1.1c6.3-3.3,10-8.4,13-14.8c6.6-14.2,17.7-23.9,33.3-27.8
	c2,0.6,4.4-1.8,6.3,0.6c0.2,2.7-2.1,2.7-3.7,3.3c-5.9,2.1-11.6,4.3-16.5,8.4c-3.3,2.8-6.2,6-8.7,9.5c-9.2,12.4-9.9,26-1.7,38.6
	c3.3,5.1,8.4,8.7,14,11.2c2,2,6.2,2,6.3,5.9c-3.3,3.4-6.2,7.1-8.6,11.1c-1.6,1.6-4.9,1.8-4.2,5.3c-4.4,8.6-11.2,15-19.2,20.3
	c-1.8,1.2-3.9,2.1-5.4,0.1s0-3.7,1.6-5.1c1.1-1.1,2.4-2,3.8-2.8c6.1-2.8,9-8.1,11.8-13.7c0.8-1.6,0.4-3.1-0.1-4.6
	c-0.1-1.1,0.3-2.2,1-3c0.6-0.6,1.4-1,2-1.7c4.6-3.7,4.4-5.5-0.9-8.2c-3.8-1.9-7.3-4.5-10.2-7.6c-1-1-1.5-2.5-3.3-2.6
	c-1.5,0.3-2.9,0.5-3.1-1.6c1.7-4.8,3.3-9.6,3.6-14.8c0.1-2.1,0.3-4.2-1.9-5.2s-3.8,0.7-5.2,2.1c-3.9,4-5.8,9.1-7.9,14
	c-1.1,2.6-2.9,4.9-3.3,7.8c-2.7,4.9-4.5,10.2-7.3,15c-1.8,3.2-3.6,6.3-7.3,7.6c-1.7,0.7-3.8,1.4-5.2-0.4s-0.1-3.6,1.1-5
	c5.8-6.6,10-14,14-21.7c2.6-4.6,4-9.8,3.9-15.1c-0.1-1.3,0.2-2.6,0.8-3.7c0.4-0.5,1.1-0.8,1.7-0.9C330.1,84.8,331.4,85.9,332.8,85.2
	z"/>
<path class="st0" d="M14,232.6c-10-6.5-10.6-16.2-9.3-26.4c1.6-12.6,9.3-21.9,17.8-30.6c1.9-1.1,2.9-0.7,3.2,1.5
	c-0.9,4-3.9,6.9-6,10.4c-4.4,7.2-5.5,15.1-5.9,23c-0.5,9,9.1,18.2,18.4,18.4c9.7,0.2,19.3-2.8,27.2-8.4c8.8-6.2,17.9-12.2,25.3-20.2
	c6.8-7.1,13.2-14.3,18-22.9c0.5-0.8,1-1.8,1.6-2.6s1.3-1.8,2.4-1.4c1.4,0.5,1.3,1.7,1,2.9c-2.4,8.9-8.2,15.6-14,22.4
	c-10,11.7-21.5,22-34.2,30.7c-11.7,8-24.8,10.9-38.8,6.9C18.4,235.4,16.1,234.2,14,232.6z"/>
<path class="st0" d="M585.8,105.1c0.9,0.7,1.9,1.6,2.8,2.3c7.3,7.2,7.5,17.4,0.4,26.7c-5.7,7.8-13.3,14-22.1,18
	c-0.5,0.2-1.4,0.3-1.4,0.8c-0.9,4.9-4.5,3.7-7.6,3.4c-2.9-0.3-5.7-1.2-8.6-0.7c-0.7,0.1-1.4,0.1-2.1,0c-3.2-0.2-6.3-1.3-9.5-0.6
	c-2.8-0.1-5.7-0.4-8.5-0.9c-14-1.1-27.9-2.8-41.8-2.6c-2.3-0.1-4.6-0.4-6.9-0.8c-1.3-0.9-5.3,0.6-3-3.4c1.4-0.9,3.1-0.8,5.2-1.5
	c-3.4-2.4-5.3,0.4-7.5,1.2c-1.1,1.2-1.5,3-3.6,3.2c-8.2,0.3-16.4-0.2-24.6-0.7c-1.4-0.5-3.6-0.4-2.7-2.9c1.4-1.2,1.8-2.4,0.3-4
	c-1.4-1.6-2.8-3.3-4-5.1c-1.6-2.8-3.6-3.1-6.4-1.5c-2,1.2-4,2.8-6.8,2.1c-1.9-2.9,0.7-3.8,2.5-4.7c3.2-1.6,6.3-3.5,9.2-5.7
	c2.3-1.7,4.4-3.8,6.1-6.1c1-1.5,1.9-3.4,4.4-2.9c2,1.8,1,4.1,0.7,6c-0.5,3.4-0.1,6.9,1.2,10.1c1.7,4.2,4.5,6.5,9.4,7.3
	c6.1,1,11.8,0.8,17.3-2.1c2.1-1.3,4.7-1,6.5,0.7c4.9,4.7,10.4,5,16.4,2.2c3.8-1.7,4.2-1.2,3.8,2.6c0.7,2,2.5,0.9,3.8,1.3
	c2.4,0.2,4.7,0.9,7.1,0.4c6-0.1,11.8,1.9,18.2,1.8c-1.3-3.1-4-5.1-3.6-8.4c0.2-2.1,0.5-4.2,1.1-6.3c0.4-1.2,1.1-2.2,2.5-1.9
	c1.2,0.3,1.2,1.6,1.2,2.6c-0.5,4.1,1,8.1,4,10.9c5,5,11,5.2,17.3,3.6c11.6-2.9,21.9-9.6,29-19.1c3.6-4.7,5-14.8,0.4-20.1
	c-0.8-0.9-1.4-1.8-2-2.8c-0.5-0.9-1.2-1.9-0.4-2.8C583.8,104,584.9,104.9,585.8,105.1z"/>
<path class="st1" d="M107.2,176.2c-0.1-0.7,0.1-1.8-0.3-2c-1.2-0.6-1.2,0.7-1.6,1.4c-4.2,8.3-10.2,15.4-16.5,22.3
	c-9.7,10.7-21.1,19.6-33.8,26.5c-9,4.8-18.8,8.2-29.4,4.1c-8.3-3.3-13.1-10.5-12.7-20.2c0.4-11.9,5.5-21.9,12.4-31.2
	c4.1-5.9,9.7-10.1,15.3-14.4c10.1-7.7,21.5-13.5,33.7-17c0.5-0.1,1.1-0.2,1.7-0.4c9.2-1.9,14.1,3.1,11.9,12.2
	c-1.6,2.8-3,5.8-5.7,7.8c-2.8,1.5-5.5,3.4-8.5,4.7c-7.9,3.2-14.9,8.4-20.4,14.9c-0.8,1.6-3.2,3.4,0.4,4.6c6.9-1.2,12-5.8,17.2-10
	c0.7-0.8,1.7-1.3,2.8-1.3c0.4,0,0.8,0.3,1,0.7c0.2,0.6,0.1,1.3-0.3,1.9c-4.7,4.5-10.2,8.1-16.1,10.9c-4.2,2.1-8.5,1.8-10.1-0.3
	s-0.8-5.6,2.8-9.5c5.3-5.8,11.5-10.5,18.5-14c3.6-1.6,7-3.5,10.3-5.6c2-1.3,3.4-3.1,4.3-5.3c1.9-5.8-0.7-9.1-6.8-8
	c-9.7,1.9-18.9,5.8-27,11.5c-8.4,5.7-16.7,11.5-23.2,19.3c-6.5,7.5-10.6,16.8-11.7,26.7c-0.9,8,3.4,16.1,10.3,19.3
	c6,2.8,12.2,2.2,18.3,0.4c6.5-1.9,12.7-4.9,18.3-8.8c15.3-10.5,28.5-23,38.3-38.6c6.2-9.9,10.4-20.4,10.1-32.3
	c0-0.6,0.1-1.1,0.3-1.7c0.2-0.4,0.5-0.7,0.9-0.9c1.9,1.9,1.9,1.9,1.6,6.8c0.7-8.3,3.3-10.7,10.8-9.6c0.3,0.3,0.5,0.7,0.4,1.2
	c-0.7,2.2-2.8,2.1-4.6,2.7c-2.7,0.8-4.3,3.5-3.8,6.2c0.4,1.7,1.4,1.6,2.6,1.4c2.4-0.6,4.8-1.3,7.1-2.1c23.6-8.2,42-22.6,54.5-44.2
	c5.5-9.6,10.8-19.3,11.9-30.6c0.7-7.6,0-14.6-6.5-19.9c-1.1-1.3-3.3-1-4.4-2.5c0.1-1.6,1.4-1,2.2-1c-2.6-0.8-5.6,1.8-8.1-0.8
	c4.7-1.9,10-1.1,14,2.1c-1.4,0.7-0.8,1.7-0.1,2.4c6.2,6.2,6.2,13.9,5.9,22.1c2.2-8,8.6-6.7,14-6s10.6,0.4,16,1.1
	c11.1,1.6,21.4,5.4,31.9,8.9c0.9,0.3,1.6,0.7,1.6,1.7s-0.9,1.4-1.8,1.6c-4,0.6-8.1,0.6-12.1,0c-11.7-1.5-23.2-0.7-34.9-0.2
	c-4.9,0.2-10.1,2.9-15-0.7c-1.9-1.4-2.3,1.4-2.6,2.4c-1.4,6.7-5,12.3-8.3,18c-9.6,16.6-21.9,30.5-39.3,39.7c-8.3,4.3-17,7.9-26,10.6
	c-0.3,0.1-0.4,0.3-0.8,0.4c-6.7,2-6.7,2-7.7,10.1c0.7-0.6,1.4-1,1.9-1.6C113.3,168.6,110.8,174.6,107.2,176.2z"/>
<path class="st2" d="M585.8,105.1c-2-0.2-3.4,0-1.4,2.2c5.9,6.4,6.1,13.4,3.2,21.1c-1,2.6-2.9,4.1-4.5,6.1
	c-9.1,10.6-20.8,16.2-34.7,17.4c-4.2,0.4-7.1-2.6-10.2-4.7c-0.2-0.3-0.2-0.8,0.1-1c0,0,0.1-0.1,0.1-0.1c1.8-0.5,3,0.6,4.5,1.3
	c3.7,1.9,7.9,2.3,11.9,1.2c11.2-2.5,21.3-8.8,28.5-17.8c4.8-6,4.9-15.4,0.3-20.8c-0.8-1-1.8-1.9-2.9-2.6c-1.5-0.9-3.2-2.2-4.8-1
	c-1.3,1-0.1,2.6,0.3,4c2.7,10.5-5.7,24.6-16.3,27.7c-5.3,1.5-9.3-0.2-12.4-5.3c-1.7-5.6,1.2-10.1,3.3-14.9c0.9-1.9,2-3.8,2.9-5.7
	c1.5-3.4,3.6-6.4,3.9-10.4c0.3-4.3-1.8-6.8-6.2-7.1c-2.3-0.1-4.7,0.2-6.9,0.8c-2.4,0.7-4,0.1-5.3-2.3c-2-3.9-4.2-4.2-7.3-1.1
	c-4.5,4.4-6.9,10.2-9.9,15.6c-2.9,5.5-6.1,10.8-9.6,15.8c-2.3,3.2-5.5,5.6-9.2,7c-3.6,1.3-5.5,0.2-6.5-3.4c-0.6-2.8-0.3-5.8,1.1-8.3
	c2.9-5.9,6.4-11.6,10.4-16.9c2-2.8,3.9-5.7,5.7-8.7c1.1-2,1.8-4,1.2-6.2c-0.2-1.4-1.4-2.4-2.8-2.2c-1.3,0.2-1,1.5-1.1,2.5
	c-0.6,7.9-2.6,10.4-10.3,12.9c-3.3,1-6.2,3.2-7.8,6.3c-2.6,4.7-5.4,9.1-7.7,14c-1.7,3.5-4.1,6.6-7.1,9.1c-4.4,3.4-8.4,3.8-11.9,1.2
	s-4.7-7.3-2.9-12c2-4.8,5-9.1,8.9-12.6c5.2-5.1,11.8-8.6,19-10c3.1-0.5,6.2-1.3,9.1-2.6c2-0.9,4-2.1,3.6-4.7
	c-0.4-2.4-2.3-3.6-4.6-4.1c-5.1-1.2-9.7,0.1-14.5,1.7c-2.9,1-5.3,3.1-8.5,3c-0.4-0.2-0.7-0.5-0.8-0.9c1-2.7,3.6-3.3,5.7-4.7
	c0.7-0.4,1.5-0.7,2.4-0.9c2-0.6,3.9-1.3,5.9-1.8c3.7-2.1,7.3-0.2,10.9,0.5c2.1,0.2,4.1,1.2,5.4,2.9c0.7,0.8,1.3,1.7,1.6,2.8
	c0.1,0.9,0.1,1.8-0.1,2.7c0.3-1.2,0.4-2.4,0.3-3.6c-0.2-1.5-0.5-3,0.1-4.5c1.5-2.4,3.4-2.1,5.5-1.1s4.3,1.9,5.2,4.4
	c1.6,4.4-0.5,7.9-2.7,11.3c-3.4,6-7.8,11.2-11.3,17.1c-1.7,2.7-2.9,5.6-3.5,8.7c-0.3,1.4-1.1,3,0.5,3.9s2.8-0.2,3.9-1.1
	c4.2-3,6.9-7.3,9.3-11.7c3.2-5.9,6.4-11.8,9.7-17.7c1.5-3,3.6-5.6,6.1-7.7c4.2-3.2,8.5-2.7,11.1,1.8c1.6,2.7,3.5,2,5.5,1.6
	c3.2-0.7,6.3-0.9,9.2,1c4.4,3,5.8,6.7,4.4,11.9c-0.4,1.6-0.8,3,0.1,4.6c0.4,2.3-0.9,4.1-1.9,5.9c-2,3.3-3.6,6.7-4.8,10.3
	c-0.9,3-0.8,5.6,2.7,6.9c0.9,1.5-0.3,1.7-1.3,1.8c-1.7,0.3-2.9-0.6-4.1-1.5c2.3,2.9,5.3,2.9,8.4,1.8c10.5-3.8,16.1-18.3,11.1-28.3
	c-0.9-1.7-1.7-1.2-2.7-0.5c-0.6,0.3-1.3,0.1-1.7-0.4c-0.5-1.2-1.1-2.4,0.8-2.9C573.9,101.5,580.2,100.9,585.8,105.1z"/>
<path class="st0" d="M86.9,157.8c0.1-2,1-3.9,0.3-5.9c-1.7-5.7-4.3-7.1-10.3-5.6c-1.1,0.2-2.3,0.2-3.4,0c-2.5-2.7-5.7-4.8-9.2-6
	c-3.7-1.4-6.6-4.4-7.8-8.2c-0.4-1.3-0.7-2.5-2-3.2c-1.3-2.6-3.4-4.6-5.3-6.7c-8.7-9.2-8.4-20.1,0.7-29c2-1.5,4.2-3,6.1-4.6
	c2.8-1.5,5.8-3,8.6-4.6c2.5-0.4,2.4,0.8,1.6,2.4c-0.7,1.1-2,1.5-3,2.3c-6.6,4.4-11.4,10-12,18.3c-0.2,0.8-0.2,1.7,0,2.5
	c0.7,1.9,0.4,4.9,2.8,5.3c1.8,0.2,2.5-2.3,3.4-4c2.6-5.1,7.2-8.9,9.5-14.2c0.8-1.5,1.4-3.1,1.8-4.7c0.6-2.3,1.9-4.2,4.4-4.8
	c2.9-0.4,4.8,2.2,7.6,2.4c1.5,0.1,1.3,2,0.7,3.2c-1,1.6-2.2,3-3.7,4.1c-6.3,5.2-11.3,11.9-14.5,19.4c-3.3,7.6,0.9,16.2,7.9,19.8
	c3.2,1.6,6.7,2.7,10.2,3.4c4.9,1.1,10.1,2.2,12.1,7.9c0.8,2.1-1.3,10.2-3,11.5C88.9,159.7,88.4,159.5,86.9,157.8z"/>
<path class="st3" d="M86.9,157.8c0.3,0.8,1.3,1.2,2.1,0.8c0.2-0.1,0.3-0.2,0.5-0.3c4.4-3,4.1-12.2-0.5-14.9c-2.7-1.7-5.8-2.8-9-3.2
	c-7-0.5-13.3-4.2-17.1-10.1c-2.5-3.6-3.2-8.1-1.7-12.3c3.3-8.9,9-16.6,16.5-22.4c1.2-1,2.3-2.1,3.2-3.4c0.6-0.7,0.2-2.3-0.4-2
	c-3.4,1.7-4.7-2.5-7.5-2.2c0-1.9,0.7-4-2.5-4.6c-1-0.1-0.1-1.3,0.6-1.7c4.2-2.2,8.8-2.5,13.6-2.5c1.4-0.2,3.1-0.7,3.7,1.1
	c0.4,1.5-1.2,2.1-2.2,2.7c-2,1.4-4.5,2.4-6.3,4.2c3.6-2.8,7.9-4.5,12.4-5.1c5.8-2.1,12-1.4,18-2.7c9,1,16.5,4.1,20,13.2
	c1.5,7.2-0.7,13.6-4.8,19.4c-4.8,6.8-11.4,11.6-19,15.1c-1.3,0.6-2.7,1.1-4.1,0.4c-1.3-2.2,0.8-2.6,2-3.2c2.8-1.3,5.7-2.5,8-4.6
	c0.4-0.6-0.8-0.8-0.3-0.4c0.1,0.1,0.2,0.2,0.1,0.2c-3,2.6-6.3,4.7-10.7,4.1c-0.2-0.3-0.3-0.7-0.3-1.2c1.3-2.3,4-2.6,6-3.6
	c3.6-1.8,7-3.8,9.6-6.9c2.7-2.8,5-6,6.7-9.5c2.7-5.4,0.6-12-4.8-14.7c-1.2-0.6-2.4-1-3.7-1.1c-14.2-2.1-26.2,3.4-36.7,12
	c-7.2,6-12.8,13-14.2,22.8c-0.7,5.2,1.3,8.9,5.4,11.8c4.5,3.2,9.8,4.3,14.9,5.8c10.5,3,13.4,9.5,8.6,19.3c-2.4,4.7-5.3,9.2-8.7,13.2
	c-1.9,1.6-3.7,3.3-5.4,5.2c-1.2,1.1-2.3,2.6-4.2,2.2c-0.4-0.1-0.8-0.2-1.1-0.4c-1.2-1.9,0.2-2.9,1.4-3.8c2-1.4,3.7-3.2,5.5-4.8
	c1.6-1.2,2-3.3,1-5C83.3,162.4,85.1,160,86.9,157.8z"/>
<path class="st4" d="M560.4,108.7c-2.6-0.9-1.6-2.8-0.9-4.2c1.7-3,1.2-6.7-1.2-9.2c-2.7-3.1-5.8-4.4-10.1-3.1
	c-1.4,0.4-3,0.2-4.2,0.8c-2,1-2.2,0.2-2.8-1.5c-1.7-5.1-6.4-6.2-10.6-2.4c-3.7,3.3-5.6,7.7-8,11.9c-4.8,8.3-7.9,17.6-15.4,24.2
	c-0.8,0.8-1.7,1.4-2.7,1.9c-1.5,0.6-2.9,1.8-4.4,0.3c-1.2-1.2-1.2-2.9-0.7-4.4c1.2-3.5,2.2-7,4.1-10.2c2.1-0.8,2,0.8,2.1,2
	c0.2,1-1.1,2-0.2,2.9c4.4-6.3,8.3-13.1,12.3-19.7c1.8-3.1,3.5-6.3,6.5-8.5c2.3-2.6,5.1-4.7,8.2-6.1c4.9-1.9,7.8-1.3,10.9,2.8
	c1.4,2,3.3,2,5.3,2.2c5.4,0.3,10.6,1.2,14.4,5.8C566.5,99.5,565.3,105.6,560.4,108.7z"/>
<path class="st4" d="M481.8,84.5l-5.8,3.5c-1.5,2.4-3.9,3.7-6,5.4c-4.4,3.6-8.2,7.9-11.4,12.6c-0.8,1.2-2.1,4.8-4.6,1.2
	c-0.3-1.6-0.1-3.2,0.5-4.7c6-15.7,0.7-29-8.7-41.5c-0.9-1.1-2.2-1.9-2-3.6c2.7-3.2,3,1.4,4.9,1.4l-0.1-0.1
	c4.6,5.3,8.5,11.2,11.7,17.5c1.9,1.9,1.9,4.4,2.3,6.7c0.8,3.7,2.4,3.9,5.2,2.2s5.5-3.6,8.9-3.9C481.9,80.8,482,80.9,481.8,84.5z"/>
<path class="st0" d="M175.6,50.9c3,0.5,5.9-0.5,9,0.8c-1.1,0.4-2,0.7-3,1c0,0.3-0.2,0.7-0.4,0.8c-8.2,2.8-13.4,9-18.3,15.5
	c-2.2,0.9-1.8,4.1-4.1,4.9c-6.5-0.6-12.8,0.7-19.3-0.4c-4.8-0.9-9.4-2.4-13.8-4.7c-2.4-2.7-3.3-5.9-3.4-9.5c0-2,0.9-2.8,2.7-3.2
	c1.3-0.3,2.6-1.2,3.6,0.5c0.7,1.4,0.5,3,0.7,4.5c0.3,2.7,0.8,5.4,3.9,6.4c5.1,2.4,10.7,2,16.1,2.3c1.9,0.1,3.2-1.1,4.5-2.3
	c4-3.9,7.6-8.2,12.1-11.5C168.9,53.8,171.9,51.7,175.6,50.9z"/>
<path class="st3" d="M54.5,129c1-0.1,2,0.5,2.4,1.4c1.7,5.2,6.1,9.1,11.5,10.1c2.7,0.6,4.5,3,5.2,5.8c-3.2,2.5-7.3,2.9-10.9,4.5
	c-13.3,5.8-24.7,14.3-34.9,24.4c-0.8,0.6-1.6,1.2-2.5,1.7c-0.3-1.6-1.5-1.6-2.7-1.4c11.1-12.1,24.5-20.8,39.7-27
	c2.1-0.9,4.1-2,6.1-3.1c1.2-2.2-1.1-2.3-2-2.7c-3.8-1.7-7.1-4.4-9.5-7.7C55.7,133.1,54.9,131.1,54.5,129z"/>
<path class="st5" d="M448.7,58.8c-1.8,0.8-2.3-3-4.5-1.3c-3.5,0.1-5.1-2.9-7.4-4.6c-9.1-6.3-18.9-10-30.2-10.3
	c-5.2-0.1-10.3,0.3-15.5,0.5c-1.5,0.1-3.2,0.4-4.6-0.7c-1.9-1.7-4.2,0-6.1-1c25.1-5.8,48.3-3.4,67.4,15.8
	C448.1,57.8,448.4,58.3,448.7,58.8z"/>
<path class="st6" d="M71.1,81.6c-0.2,0.5-0.6,1.4-0.2,1.4c6.8-0.7,3.1,2.6,1.9,4.8c-1.8,1.4-3.1,3.3-3.6,5.6
	c-1.3,4.2-3.5,8.1-6.5,11.4c-2.6,3.2-4.9,6.6-6.7,10.3c-1.9,3.5-3.4,1.9-4.5-0.2c-2.6-5.1-2.3-10.4,0.3-15.5
	c2.8-5.5,6.7-9.9,12.5-12.5c1.2-0.5,3.1-1.7,0.2-2.8C66.6,82.9,68.7,81.8,71.1,81.6z"/>
<path class="st7" d="M566.8,151.3c-2.4,1.9-2.4,2.9,0.9,3.9c4.6,1.2,9.3,2,14,2.4c2.8,0.8,5.7,1.5,8.6,2.3c0.9,1,1.3,1.9-0.6,2
	c-3.7,0.3-7.5,0.6-11.1,0.8c-2.5-3.3-6.2-3.3-9.9-3.8l-14.6-2c-1.7-0.2-3.5-0.2-4.6-1.9c3.9-1.3,7.6,0.7,11.4,0.8
	c1.4,0,3.2,1.3,2.6-2C563.2,152.4,564.8,151,566.8,151.3z"/>
<path class="st0" d="M110.3,78.5c-3-2-3.4-5.1-2.7-8.2c1.1-5.1,4.5-9.4,9.1-11.8c2.3,0.9,2.6,1.5,1.1,2.8c-4.4,4.3-4.7,9-2.8,14.6
	c1.1,3.1-1.4,3.1-3.6,3.1C111.1,79,110.7,78.8,110.3,78.5z"/>
<path class="st8" d="M111.3,78.3c2.5-0.3,4.3-0.3,2.2-3.8c-2.3-3.8-0.4-10,3-13.1c0.8-0.8,3.2-1.6,0.4-2.9c2.4-1.7,5.2-2.6,8.2-2.4
	c-2.4,2.6-2,6.6,1,11.5c-0.5,0.4-1.2,0.5-1.9,0.3c-2.8-1.1-2.5-4-3.4-6.3c-4.2,1.5-5.1,4.9-5.4,8.7c-0.2,3.6,2.3,4.8,5.1,6.1
	s6.3,1.5,7.3,5.3c-1.8,1.1-3.8,0.2-5.6,0.7C118.6,80.7,114.5,80.8,111.3,78.3z"/>
<path class="st4" d="M513.1,81.8c-1.6-1-3.2-1.8-4.5,0.3c-1.1,0.9-0.1,3.9-3,3c-1.3-1.3-2.8-2.5-4.9-2.5c-1.4-3.4,1.4-2.4,2.9-2.8
	s2.9-0.9,4.3-1.4c1.7-0.2,3.4-0.5,5.1,0.2c0.8,0.3,2,0.3,2,1.3C515.1,81.1,514,81.6,513.1,81.8z"/>
<path class="st5" d="M503.6,79.9c-1.2,0.7-3.2,0.6-2.9,2.8c-3.8-0.3-7.5-2.7-11.4-0.7c-1.5-0.1-3.1-0.2-4.6-0.4
	c-0.9-0.1-1.7-0.6-2.2-1.4C489.4,78.9,496.6,78.9,503.6,79.9z"/>
<path class="st9" d="M329.6,85.7c-0.6-0.1-1.3-0.2-1.9-0.2c-2.9-1.9-5.1-4.4-7.9-6.4c0.3-1.3,0.2-2.5-1.4-2.8c3.6-1.1,5.8,1.4,8.4,3
	C328.4,81.1,330.9,82.6,329.6,85.7z"/>
<path class="st10" d="M513.1,81.8c0.4-0.9,3-2.2-0.3-2.6c-1.6-0.2-3.2-0.5-4.7-0.8c4.4-1.8,7.8-0.5,11.9,4.4c-0.1,0.5,0,1.1-0.1,1.6
	c-0.1,1.6-1,1.3-1.9,0.6C516.7,83.4,514.9,82.6,513.1,81.8z"/>
<path class="st5" d="M460.4,76.2c-3.9-5.8-7.8-11.7-11.7-17.5C454.2,63.3,458.2,69.4,460.4,76.2z"/>
<path class="st10" d="M482.3,80.2c0.9,0.1,1.8,0.3,2.7,0.5c0.9,1.6-0.3,2.4-1.4,3.2c-0.6,0.2-1.2,0.4-1.9,0.5c0-3.6-3.1-2.7-5.1-3.3
	C478.4,80.2,480.4,79.9,482.3,80.2z"/>
<path class="st6" d="M56,88.7c-1.4,2.3-3.6,3.9-6.1,4.6C51.4,91.2,53.6,89.6,56,88.7z"/>
<path class="st11" d="M294,186.9c-0.1,0.9-0.6,1.6-1.4,2c-14.1,10.4-26.9,22.7-42.4,31.3c-16.5,9.2-33.3,17.9-51.6,23.3
	c-1.1,0.4-2.3,0.5-3.3,0.8c0.5-0.6,1-1.4,1.6-2.1c-2.1-0.9-4,0.1-5.5,0.8c-4.8,1.8-9.8,2.1-14.7,2.8c-13.7,1.8-27.6,2-41.2-0.5
	c-9-1.7-18-3.1-26-8.4c-13.3-8.7-12.8-22.8-3.4-33.4c4.8-5.4,10.9-9.3,17.2-12.8c0.9-0.5,1.9-0.6,2.9-0.5c0.2,0.4,0.3,0.8,0.1,1.2
	c-2.3,2.2-5.2,3.6-7.9,5.2c-7,4.4-12.8,9.8-15.6,17.8c-2.3,6.1-0.6,13,4.2,17.3c5.3,4.6,11.7,7.7,18.7,8.7c8,1.2,15.8,3,24,3.6
	c9.3,0.7,18.6,0.4,27.8-0.8c25.2-3.6,48.3-13.1,69.7-26.4c12.2-7.5,24.1-15.5,34.9-24.8c19-16.4,32.8-36.5,43.8-58.7
	c5.6-11.4,11.8-22.7,16.4-34.6c1-2.2,1.6-4.6,1.8-7c0.1-1.7,0.5-3.8-1.4-4.6s-3.1,0.8-4.3,2c-1.4,1.6-2.5,3.4-3.5,5.4
	c-2.5,4.8-4.3,10-7.7,14.4c-0.4,0.3-0.9,0.3-1.2-0.1c2.7-7.9,5.6-15.7,11-22.2c1.6-2,3.8-4.1,6.6-2.9c3,1.2,3,4.1,2.7,6.9
	c-0.4,5.3-2.1,10.3-4,15.2c-1.1,6.2-4.6,11.6-7.3,17.2c-1.9,4-3.9,7.8-6.1,11.7c-2.5,5.5-5.4,10.9-8.2,16.2
	c-0.5,1.8-1.4,3.5-2.6,4.9c-3.6,2.8-4.8,7.4-7.6,10.9c-5.1,6.3-10.5,12.6-16.2,18.4C293.9,185.6,292.8,186,294,186.9z"/>
<path class="st12" d="M280.7,117.9c0.2,1.8-0.7,3.1-1.9,4.6c-3.9,4.7-7,10.2-11.4,14.4c-8.2,7.5-16.8,14.9-27.9,18.4
	c-2.2,0.7-4.9,0.4-7.3,0.4c-3-0.2-4.7-3.1-3.1-5.6c2-3.5,4.6-6.5,8.7-7.9c7.8-2.6,14.1-7.7,19.9-13.4c1.3-1.2,2.6-2.6-0.2-3.9
	c-1.3-0.6-1.8-2.1-1.7-3.7c0.8-10.1,1.4-20.2,4.2-30c0.6-2.3,2.2-2.9,4.2-3c1.4,0,2.9,0.1,4.3,0.3c0-0.4,0.1-0.8-0.1-0.9
	c-5.1-5.1-5.1-5.1-0.9-13.2c4.8-9.1,10.7-17.4,19.2-23.7c3.6-2.6,7.3-4.8,11.9-2.9c3.2,1.4,6.4,9,6.1,13.5
	c-1,11.7-4.2,23.1-9.6,33.6c-3.4,6.7-7,13.2-10.8,19.6C283.4,115.8,282.9,117.7,280.7,117.9c-0.7-2.2,0.7-3.9,1.8-5.5
	c7.7-11.4,13.6-23.9,17.6-37.1c2-6,2.8-12.3,1.4-18.6c-1.6-7.4-6.2-9.2-12.2-5c-10.1,7.1-16.3,17.2-21.9,27.9
	c-1.2,2.3,1.4,6.7,3.9,6.9c1.5,0.1,1.5-1.1,1.9-2c2.1-4,3-8.4,5.7-11.9c1.7-2.3,3.4-4.7,5.8-6.3c3.4-2.2,6.6-0.9,7.3,3.2
	c0.5,2.2,0.3,4.6-0.4,6.7c-5.2,13.7-12,26.7-20.3,38.8c-0.8,1.2-1.4,3-3.5,2.2c-0.4-2.5,1.1-4.3,2.2-6.3
	c6.5-10.9,13.3-21.5,17.6-33.5c0.7-1.9,1.1-3.9,1-5.9c-0.1-0.8,0-1.9-1-2.2s-1.6,0.5-2.3,1c-3.1,2.9-5.1,6.6-6.7,10.5
	c-3.8,8.7-7,17.6-8.4,27c-0.5,3.2-2.9,6-2.2,9.4c1,1.8-0.2,3-1.1,4.3c-7.3,9.8-15.8,18.3-27.7,22.6c-3.9,1.5-7.9,5.9-7.2,7.9
	c0.6,1.8,5.6,1.9,10.1-0.2c12.8-5.9,23.8-15,31.9-26.5C275.7,122.5,276.8,118.8,280.7,117.9z"/>
<path class="st13" d="M183.9,163.4c-2.9-1.8-5.3-0.2-7.7,0.9c-7.5,3.8-16,5.2-24.4,4.1c-2.3-0.3-4.5-0.8-6.3-2.5
	c0.7,0,1.9,0.1,2.1-0.2c0.5-1.1-0.6-1.8-1.4-2.2c-4-2.4-7.5-5.4-8-10.1c-0.6-6.4,6-5.7,9.4-8.4c2.5-1.9,4.6-0.7,5.4,1.9
	c1.8,5.4,6,6.7,10.9,6.7c3.8-0.1,6.9-2.1,9.9-4.1c9.8-6.6,17.3-15.4,23.2-25.4c1.1-2,0.9-4.2,1.3-6.3c0.1-1,0.5-2-0.6-2.7
	s-2.7-0.5-3.1,0.6c-1,2-4.6,3.1-2.7,6.3c0.4,3.2-1.9,5.5-3,8.2c-3,0.4-2.9,3.1-3.2,4.9c-1,4.8-4.9,6.8-8.4,9.3
	c-1.5,1.1-2.8,0.3-3.5-1.3c-0.5-1.2-0.7-2.5-0.5-3.8c2-15.5,7.6-29.3,19.6-40c3.1-2.8,7.4-5.4,11.2-3.9c4.3,1.7,7.4,5.3,8.5,10.9
	c1.8,9.6-2.8,17-6.5,24.7c-0.9,1.6-1.2,3.4-0.8,5.2c-0.6,2.4-2.2,4.3-3.6,6.3c-1.2,1.6-1.2,3.1,0.4,4.3c-1.2,1.1-3.1,1-3.5,0.1
	c-1.9-4.1-3.2-0.9-4.3,0.4c-3.3,4-7.1,7.5-11.4,10.4c-2.2,1.5-4.7,3.1,0.3,4.2C183.4,162,183.6,162.9,183.9,163.4z"/>
<path class="st14" d="M326.1,108.8l0.8,0.1c1,1.2,0.5,2.5,0,3.6c-2.2,5.2-4.7,10.2-7.7,15c-2.5,4-5.8,6.9-10.9,6.9c-2.8,0-4,2-5,4.1
	s-0.5,3.8,2.1,4.6c4.5,1.6,5,2.9,2,6.6c-8.1,10.3-17.1,19.9-27,28.5c-23.2,19.8-50.2,32-79.7,39.7c-11.7,3-23.5,5.4-35.6,3.4
	c-1-0.1-2-0.3-3-0.5c-9.6-2.6-12.6-11.9-5.5-18.9c3.5-3.5,7.4-6.7,13-6.6c1.1,2.4-0.8,2.9-2.3,3.7c-3,1.5-5.7,3.4-8.1,5.7
	c-2.1,2-3.4,4.5-2.4,7.4c0.9,2.7,3.3,4.6,6.1,5c8.4,1.8,17,1.8,25.4,0.1c25.3-5,49.3-13.8,71-27.7c16.5-10.6,31.1-23.9,43.3-39.3
	c1.5-1.9,1.8-2.9-0.7-4.1c-2.7-1.3-2.5-4.1-2.3-6.7c-0.7,0-1.4,0.4-1.8,0.9c-1.8,1.4-4.4,2.6-0.5,4.7c0.3,0.1,0.2,0.7-0.1,1.2
	c-3.3,0.6-6.7,1-9.8,2.4c-1.1,0.7-2.6,0.7-3.6-0.2c0.1-0.6,0.1-1.2,0.1-1.8c0.4-2.5,3.4-1.9,4.3-3.8c15.7-10,26-24.4,34.2-40.6
	c2.1-4.2,2.4-8.8,2.6-13.4c0.1-2.3-0.6-4.6-3-5.8c-2.7-1.2-4.6,0-6.7,1.7c-2.8,2.3-4.1,5.9-7.6,7.4c-0.4,0-0.9-0.2-1.1-0.6
	c3.4-5.2,7-10,13.1-12c4,0.6,6.2,3.1,7.9,6.4c-1.1,3.4-0.1,7-0.9,10.6c-1.9,8.8-7.4,15.5-11.6,23.1c-1.8,3.3-4.4,6-6.9,8.7
	c-0.8,0.7-1.1,1.8-0.7,2.7c0.6,1.2,1.7,0.6,2.7,0.5c4.7-0.6,6.7-4.1,8.5-7.7c2-4.1,4.4-7.9,5.6-12.3
	C324.6,110.5,325.2,109.5,326.1,108.8z"/>
<path class="st15" d="M126.3,190.8c0-0.2,0-0.4,0-0.6c7.2-4.7,15.3-7.5,23.5-10.3c10.5-3.6,21.1-7,31.6-10.3
	c11.8-3.6,23.9-6.4,36.1-8.3c1.1-0.1,2.2,0,1.2-1.6c1-2.1,2.2-1.4,3.6-0.4c2.5,2.5,5.1,0.1,7.6,0c8.4-0.4,16.7-2.5,25.2-3.4
	c1.8-0.2,0.3-1.3-0.6-1.7c1.5-2.7,4.5-1.6,6.8-2.4c4.1-0.7,8.2-1.1,12.3-1.2c4.7,0.9,9.3-1.5,14.1-0.9c0.6,0.4,1.2,0.8,1.9,1.2
	c5.5,2.4,6.2,4.6,2.9,9.4c-3.9,5.4-8.8,9.9-14.5,13.3c-3.3,2.1-7.3,2.3-10.9,2.2c-12-0.1-23.6,2.3-35.2,4.2
	c-18.8,3.1-37.3,8.1-55.1,15c-1.7,0.7-3.6,2.2-5.3-0.4c0.5-2.1,2.4-2.2,4-2.9c19.6-8.2,40.2-12.9,61.2-16.4
	c11.1-1.8,22.1-3.1,33.2-3.8c9.1-0.6,14.9-6.6,19.6-13.5c1.7-2.5,0.9-3.5-2.4-3.5c-6.6,0.2-13,1.2-19.5,2
	c-21.8,2.9-43.8,4.9-65.3,9.9c-24.1,5.5-47.7,13.2-70.5,23C129.7,190.6,128.3,192.3,126.3,190.8z"/>
<path class="st16" d="M306.6,91.2c0.4,0.2,0.7,0.2,1.1,0.3c0.7,2.6-1.1,4.4-2.2,6.2c-3.7,6.3-6.5,13-7.1,20.6
	c4.2-3,6.4-7.3,8.3-11.9c0.6-1.9,1.4-3.8,2.3-5.5c0.9-1.4,2-2.8,3.8-2.1s1.4,2.3,1.3,3.7c-0.4,3-1.4,5.9-3,8.5
	c-4,6.6-8.4,13.1-14,18.5c-4.9,4.8-10.5,8.1-17.8,7.8c-0.9,0-1.7,0.1-2.6,0.3c-2.2,0.7-4.5,1.8-4.3,4.1c0.2,2.9,3.1,1.9,4.8,2.2
	c2.3,0.4,4.6-0.4,6.9-0.8c1.6-0.3,3.1-1.1,4.6-0.1c-0.7,2.2-3.4,1.5-4.7,3c-3.9-0.5-7.7,0.8-11.6,0.2c-3.6-0.6-4.4-2.1-3.3-5.3
	c1.3-4,4.6-6.5,8.5-6.2c10.8,0.8,17.2-5.4,23.1-13.6c-2.1,0-3.4,2.4-5.2,0.9c-1.6-1.4-0.8-3.2-0.4-4.9
	C297.1,107.9,300.9,99,306.6,91.2z"/>
<path class="st17" d="M242.8,132.7c-1.5-1.1-2-0.2-3,1c-7.4,10.1-15.9,18.9-27.4,24.1c-5.7,2.6-11.7,4.7-18.3,3.6
	c-5.9-0.9-7-3-3.4-8c0.6-0.7,1.1-1.3,1.8-1.9c0.2,0.4,0.4,0.8,0.5,1.2c-1.6,5.3-1.1,5.9,4.7,6.2c4.7,0.2,9.3-0.9,13.4-3.2
	c19-10.1,31.2-25.6,37.8-45.6c1.6-4.7,1.3-9.8-0.7-14.3c-2-4.3-5.1-5.6-9.6-3.5c-5.7,2.6-9.4,7.5-13.3,12.1
	c-1.3,1.6-2.1,3.9-4.4,4.5c-0.4,0-0.8-0.2-1.1-0.6c3.5-5.9,8-11.1,13.3-15.4c6-5.1,13.2-5.5,16.2-0.8c3.5,5.8,4.9,12.3,2.4,18.8
	c-1.3,3.4-1.8,7.1-4.2,10.1c-0.9,1-0.6,2.2,1.4,1.9C248.1,127.2,246.4,130.6,242.8,132.7z"/>
<path class="st18" d="M192.5,152.9c0-0.4,0-0.8,0-1.2c2.9-0.7,5.8-1.2,8.8-1.6c6.8-0.4,12.1-4.4,17-9.6c-2.1-0.6-3.1,1.6-4.6,0.8
	s-0.9-2.6-1.2-3.9c-1.8-10.6,1.6-20,7.1-28.8c0.4,0.1,0.7,0.2,1.1,0.2c0.9,2.3-0.8,4.1-1.6,6c-2.9,6.2-5.3,12.4-4.4,19.5
	c0.2,0.9-0.2,2.2,0.8,2.7c1.3,0.7,2-0.6,3-1.2c1.6-1,2.3-3,4.3-3.4c0.6,0.2,0.9,0.9,0.7,1.5c0,0.1-0.1,0.2-0.2,0.3
	c1.3-0.9,1.4-3.4,3.8-2.8c0.2,0.3,0.3,0.7,0.3,1.2c-6,9.5-13.3,17.2-24.8,19.6C199.5,152.9,196,153.8,192.5,152.9z"/>
<path class="st14" d="M283.8,148.1c-4.7,2.6-9.5,1.1-14.3,0.3c-2.6-0.4-5-1.1-7.5-1.7c1.1-0.8,2.5-0.9,3.7-0.3
	C271.5,148.7,277.6,148.5,283.8,148.1z"/>
<path class="st19" d="M317.9,155.5c0.8-1.6,1.7-3.3,2.5-4.9c4.3-7.1,10.7-11.7,17.9-15.8c4-2.3,8.3-3.6,12.6-5.3c1.9-0.7,4-1.4,6,0
	c3.6,4.4-0.9,7.1-2.2,10.2c-1.8,4.1-5.2,7.3-9.3,9c-1.8,0.8-3.2,2.3-4.8,3.6c-0.9,0.8-1.5,1.9-0.7,3c0.7,0.9,2,1.1,3,0.4
	c0,0,0.1-0.1,0.1-0.1c6.1-4.6,13.1-8.5,16.5-15.8c0.9-2,3.5-2.6,3.9-5c0.6-2.1,2.1-3.8,4.1-4.7c1.8-4.6,4.2-8.5,8.7-11
	c1.8-1.2,3.8-1.4,5.9-1.7c3.8,0,5.3,2.3,5.2,5.8c-0.1,1.4,0.7,1.6,1.9,1.3c6.9-1.7,13.8-3.4,20-6.6c4.6-2.4,9.4-4.8,13.3-8.4
	c7.2-5.6,10.9-13.3,13.3-21.8c0.2-1.3-0.1-2.7-0.8-3.8c-0.8-3-0.9-6.3-2.5-9.1c-1.5-3.2-3.9-5.8-6.9-7.5c-8.2-6.7-17.9-7.8-28-6.7
	c-1.3,0.1-2.5,0.4-3.7,0.9c-6.5,2-11.5,5.7-14.6,11.8s0.2,12.8,7.1,13.7c4.8,0.6,9.5,0.3,13.8-2.4c3.1-1.5,5.7-3.8,8.5-5.9
	c1.5-1,2.8-2.2,4.8-2c2.6,0.9,2.6,3,2.5,5.2c0.2,8.8-4.3,15.7-9.5,22.2c-0.8,1.2-2.3,1.9-3.8,1.6c-0.5-0.6-0.6-1.3-0.3-2
	c2.8-3.9,5.9-7.8,8-12.2c1.6-3.3,2.2-6.9,2-10.5c-3.5,2.2-6.2,4.7-9.5,6.4c-4.2,2.3-8.9,3.5-13.7,3.6c-11,0.3-17.9-10.3-12.8-20
	c3.5-6.6,9.2-10.7,16.1-13c11.3-3.9,23.9-2.1,33.6,4.8c17.2,11.8,16.2,32.1,2.6,45.9c-8.7,8.8-19.9,14.8-32.1,17.1
	c-7.4,1.5-11.3,5.5-14,11.9c-1.1,2.6-0.7,3.7,2.2,4c4.1,0.4,8.1,0.5,12.2,0.1c13.9-1.2,27.3-6,38.9-13.8
	c9.4-6.2,14.1-15.6,17.8-25.8c7.9-22.7-7.3-45-25.7-53.3c-19.5-8.8-38.7-7-57.1,3.4c-3.5,1.9-6,4.9-8.7,7.8
	c-1.3,1.4-2.3,3.4-4.6,3.5c-0.5-0.4-0.5-0.8,0-1.1c3.9-6.8,9.8-11.5,16.9-15c4-2.1,8.7-2.7,12.5-5.2c16.4-2.2,32.5-1.9,47.3,6.8
	c3.8,2.3,7,5.4,10.5,8.2c6.5,7.1,11.3,15,13,24.6c1,6.2,2.6,12.6-0.6,18.7c-1.2,2.3-1.4,4.7-1.8,7c-0.3,4.6-2.1,8.6-6,11.4
	c-5.3,6.8-11.5,12.3-19.6,15.8c-1,0.4-3.2,1.2-1.2,3.1c-0.5,2.2-2.6,2.5-4.3,3.1c-4.5,1.5-8.8,3-12.8,4.2c2.9-0.7,6.2-1.2,9.5,0.9
	c0.5,1,0,1.7-0.6,2.4c-2.1,1.4-4.4,1.2-6.8,0.7c-6.1-3.5-13.3-4.6-20.3-3.2c-4.1,0.7-8.4,0.5-12.4-0.7c-2.2-0.6-3.4-0.2-4.6,1.8
	c-5.7,9.2-12.9,17.3-21.4,24.1c-6.5,5.4-14.6,8.6-23,9c-9.9,0.4-17-7.5-15.6-17.1C316.1,160.2,315.8,157.5,317.9,155.5z"/>
<path class="st2" d="M357.2,62.6c0,0.4,0,0.8,0,1.2c0.7,2.2-0.8,3.8-1.8,5.5c-6.2,11.7-4.7,22.6,3,33c5.7,7.8,13.5,10.5,22.8,9.7
	c3-0.3,6-0.8,8.9-1.7c4.4-0.5,7.5-4.2,11.7-5c6.4-3.3,8.8-9.3,11.2-15.2c1.1-2.6,1.6-5.4,1.4-8.2c1.8-1.2,0.5-3.9,2.5-5
	c3.3,3.2,2.1,7.1,1.1,10.4c-3.4,10.8-10.5,19.2-19.3,26.3c-0.9,0.8-2,1.2-3.2,1c-0.4-1.7-0.4-1.7,1.1-3.3c-2.8,1.4-5.7,2.6-8.7,3.4
	c-3.2,0.3-6.2,1.5-9.4,0.8c-3.1,0.2-6.3-0.4-9.2-1.7c-9.3-4.3-15.9-10.9-18.8-21c-2.2-7.6-2.1-14.9,1.6-22.2
	C353.7,67.9,354.5,64.7,357.2,62.6z"/>
<path class="st20" d="M345,105.4c-3.9,9.1-8,18.2-12.8,26.9c-2,3.7,0.1,3.2,2.5,3c-2.3,3.1-3.8,2.9-6.8-1
	c4.5-8.1,8.6-16.4,12.3-24.9c0.6-1.2,0.9-2.7,2.1-3.6C343.5,107,344.1,105.2,345,105.4z"/>
<path class="st20" d="M338.4,133c6.4-2.3,12.8-4.8,19.5-6.1c-0.3,0.9-0.8,1.8-1.1,2.7c-6.8,0.3-12.4,4-18.5,6.2
	c-1,0.3-1.5-0.3-1.8-1.1C336.2,133.1,337.9,133.8,338.4,133z"/>
<path class="st0" d="M369.4,114c3.2,1.1,6.5,0,9.6,0.6c0.8,1.2,1.4,2.5,2.1,3.7c-1.6,0.9-3.5,1.3-5.4,1
	C375.3,115.6,371.3,116,369.4,114z"/>
<path class="st0" d="M367,130.2c-1.7,1.3-1.9,3.9-4.1,4.7C361.2,130.6,365,131.1,367,130.2z"/>
<path class="st20" d="M448.8,119.1c2-3.8,4-7.5,6-11.4c3.5-0.1,4-3.5,5.4-5.5c4.3-5.7,9.7-10.5,15.8-14.1c-0.1,0.4,0,0.8-0.1,1.2
	c-0.3,2-2,2.8-3.3,3.8c-9.3,8.1-16.8,17.4-20.9,29.1s4.6,21.4,16.8,19.4c3.3-0.6,6.5-1.7,9.4-3.3c2.5-1.4,4.4-1.2,6.6,0.8
	c5.6,5,10.7,5.3,17.4,1.9c7.4-3.8,13-9.6,18-16c4.4-5.5,8.4-11.3,13.3-16.4c4.9-3.9,7.4-4.4,10-2.3s2.8,4.8,0.5,10.2
	c-2.1,4.8-4.9,9.1-6.8,13.9c-1.4,3.3-1.6,7-0.4,10.4c0.6,1.8,1.9,3.3,1.6,5.4c-0.1,0.4-0.2,0.8-0.3,1.2c-4.2-4.4-4.7-5.8-4.6-14.3
	c-2.7,2.6-1.5,5.7-2.7,8.2c-2.6-2.2-1-4.9-0.9-7.4c0.2-1.8,0.8-3.6,1.7-5.2c2-5,5.5-9.3,6.9-14.6c-2-2.3-2.7,0.1-3.3,1.1
	c-6.3,9.2-14,17.3-22,25.2c-2.3,2-4.6,3.9-7.1,5.6c-1.1,0.9-2.4,1.7-4,0.9c0.3-1.3,2.1-1.7,1.9-4c-1.5,0.7-2.8,1.2-4.1,1.8
	c-6.1,2.7-11.8,2-16.5-2.9c-1.7-1.8-3.3-1.8-5-0.7c-6.6,4.1-13.7,3.3-20.9,1.9c-5.3-1.1-9.8-9.2-9.2-15.9
	C448.8,124.4,450.2,121.8,448.8,119.1z"/>
<path class="st7" d="M412.8,148.6c2.2-0.3,4.4,0.4,6.4-0.7c1.3-0.6,2.8-0.8,4.2-0.6c3-0.1,6,0.1,9.1-0.1c1.6-0.1,3.3,0,4.9,0.3
	c3.1-1,5.9,1.2,9,0.8c8.7,0.3,17.5,0.6,26.2,1.1c2.3-1.6,4.7,1.3,7,0.2c13.3,0.4,26.4,2.3,39.8,2.3c3.3,0,6.7,0.8,9.9,1.3
	c0.2,0.5,0.1,1.1-0.4,1.4c-5.4,2-11,0.6-16.4,0c-13-1.4-26.1-1.1-39.1-2.2c-16.7-1.3-33.4-0.9-50-1.3c-11.3-0.2-22.6-0.4-33.9,0
	c-5.2,0.2-9.9,1.9-14.8,3.2c-0.5-0.1-0.8-0.6-0.8-1.1c0.7-2.7,2.9-4,5.3-4.5c10.7-2,21.6-2.2,32.4-0.5
	C412.2,148,412.6,148.4,412.8,148.6z"/>
<path class="st21" d="M529.3,153.9l0.1-1c2.9,0.4,5.8,0.7,8.6,1.1c3.2-0.6,6.4,1.3,9.6,0.6c0.6,0.1,1.2,0.1,1.7,0.1
	c8,1.1,16,2.4,24,3.3c3,0.3,5.2,1,5,4.4c-6.8,1.7-13.9,0.7-20.8,1.9c-4.6-0.9-9.1,0.9-13.7,1.1c-2.5,0.1-5.1,0.6-7.8,0.5
	c-1-0.1-1.9-0.6-2.4-1.4c0.5-1.7,2.2-1.7,3.6-1.9c11.4-1.2,22.9-2.4,33.2-2.9c-11-2.4-23.5-2-35.6-4.2
	C533,155.5,530.8,155.6,529.3,153.9z"/>
<path class="st19" d="M434.1,146.4c3.6-0.6,7.2-0.1,10.8,0c-1.2,2,0.6,1.7,1.5,1.9c-2.9,1.2-6-0.4-8.9,0.4
	C437,147.2,434.6,148.1,434.1,146.4z"/>
<path class="st19" d="M474.2,146.1c0.9,1.8,2.7,0.9,4,1.5c-0.4,0.4-1.1,0.9-1.1,1.2c0.6,1,1.8,0.4,2.5,0.8c-2.4,1.4-4.7-0.2-7-0.2
	C474,148.7,472.4,146.6,474.2,146.1z"/>
<path class="st7" d="M547.7,154.7c-3.3,1.1-6.4-0.4-9.6-0.6C541.4,153,544.5,154.5,547.7,154.7z"/>
<path class="st22" d="M83.2,171c3.6-4.5,6.7-9.3,9.3-14.4c3.9-8,1.2-14.2-7.5-16.5c-3.1-0.8-6.1-1.7-9.2-2.6
	c-12.4-3.9-16.6-12.8-10.8-24.1c7.9-15.5,21-24.6,38.3-28.1c4.1-0.8,8.4-0.9,12.5-0.1c8,1.4,12.4,9.3,9.2,16.6
	c-1.7,4.1-4.4,7.8-7.8,10.7c-6.1,5.3-13.4,8.9-21.3,10.7c-4.1,1-7.1-0.5-7.9-3.2c-1-3.6,0.8-6.8,4.9-8.3c3.1-1.2,6.3-2.2,8.8-4.4
	c1.9-2.2,4.8-3.2,6.6-5.5c1.2-1.5,2.4-3.3,1.2-5.1c-1.1-1.6-3.2-1.3-4.8-1c-7.7,1.8-12.6,7.3-17.4,12.8c-0.6,0.9-1.4,1.7-2.1,2.7
	c-3.1,5.2-2,9.5,3.2,12.8c3,1.7,6.1,3.3,9.2,4.6c4.4,1.8,8.3,4.7,11.2,8.4c1.7,2.1,2.6,4.7,2.7,7.4c1.3,17.6-7.2,31.4-17.4,44.6
	c-9.8,12.7-21.8,22.9-35.4,31.4c-8.1,5-16.8,8.6-26.6,7.8c-11.9-1.1-19.3-10.3-18.1-22c0.9-10.7,5.5-20.7,12.9-28.5
	c12.9-13.5,27.9-24,46.2-29.4c1.8-0.5,3.6-0.9,5.5-1.1c4.7-0.8,6.8,1.1,6.9,5.7c0,5.7-3,9.4-7.9,11.8c-6.7,3.3-13.6,6.4-19.5,11.3
	c-2.9,2.4-5.6,5-8,7.9c-1.6,2-3.1,4.3-1.6,6.6s4.5,1.5,6.8,0.9c4.6-1.4,8.4-4.4,12.4-7c2-1.3,3.9-2.9,6-4.3
	C77.5,177.7,80.4,174.3,83.2,171z"/>
<path class="st23" d="M186.6,54.5c9.3,7.7,8.8,17.9,5.7,27.6c-11.4,35.7-34.8,59.9-71.5,70.9c-1.1,0.4-2.3,0.5-3.3,0.7
	c-1.6,0.4-2.3,0.1-2.5-1.8c-0.3-6,0.5-7.1,6.5-8.7c1-0.3,1.9-0.7,2.8-1.1c1.1-0.9,2.4-1.6,3.7-2.1c14.8-5.8,27.3-16.4,35.2-30.2
	c1.7-2.4,3.3-4.9,4.7-7.5c5-8,8.4-16.9,10.1-26.2c1-5.7,0.2-6.2-5.6-5.3c-2.5,0.3-4.9,0.6-7.4-0.2c-1.6-0.6-2.5-1.6-1.3-3.2
	c3.9-5.6,8.4-10.7,15-13.1C181.4,53.2,184.2,52.6,186.6,54.5z"/>
<path class="st0" d="M168.7,103.3c-1.1,2.6-2.7,4.9-4.5,7c-1.6,0.5-1.9,3.8-3.8,2.7s-1-3.7-0.2-5.5c1.3-3.4,2.4-6.7,3.8-10
	c0.6-1.1,2-2.3,0.3-3.8c-12.1,0.1-12.2,0-15.6,11.2c-2.4,7.7-5.3,15.3-6.1,23.5c1.3,2.1,1.1,3.7-1.2,5.2c-5.2,3.4-10.5,6.5-16.8,7.5
	c-2.7-0.3-5,0.9-7.4,1.6c-2,0.4-3.3,2.3-2.9,4.3c0,0.1,0.1,0.2,0.1,0.4c0.4,1.6,0.2,3.2-0.5,4.7c-2.5-2.5,1-6.1-1.9-8.3
	c-1.6-4.5-1.4-4.8,3.2-4.9c1.4,0,2.9-0.4,4.1-1.1c2.4-1.1,5-1.4,7.5-2.1c2.8-0.8,4.1-2.4,4.4-5.4c1.1-10.9,2.2-21.9,5.5-32.6
	c1.3-2.3,1-3.9-2-4.5c-1.5-0.3-3.1-0.7-3.7-2.4c-2.2-3.2-4.8-6.1-7.8-8.7c1.3-2.9,3,0.7,4.5-0.2c0.4-0.2,0.9,0,1.3,0.3
	c4.9,6,11.5,7.5,18.9,6.8c5.5-0.5,11.2-0.1,16.8-0.4c5.8-0.3,10.5-7.3,7.8-12.5c-1.4-2.6-4.3-2-6.6-2.1c-2.1-0.1-4.3,1-6.2-0.7
	c0.5-2-0.2-4.7,3.3-4.7c2.7,3.9,6.5,2.3,9.9,1.8c6.1-0.9,6.5-0.6,5.9,5.5c-0.9,8.3-4.5,15.5-7.8,23
	C170.1,100.2,169.3,101.7,168.7,103.3z"/>
<path class="st24" d="M256.5,83.6c-14.8,0-29.4-1.7-44-0.3c-4.3,0.4-8.7,0.6-13,1.1c-2.6,0.2-3.6-0.6-3-3c0.5-2,0.9-3.9,1.4-5.9
	s1.6-2.5,3.5-2.5c14.2-0.6,28.4,1.3,41.9,5.5C247.9,79.9,252.4,81.2,256.5,83.6z"/>
<path class="st3" d="M52.4,184.2c5.3-7.1,12.6-11.8,20.6-15.3c2.5,2.6,2.8,4.9-0.3,7.4c-1,0.8-2.1,2-1.3,3.6
	c-5.5,4.5-10.7,9.3-18.1,10.5C52.2,188.4,52.4,186.3,52.4,184.2z"/>
<path class="st25" d="M124.5,141.2c5.8-2.2,11.5-4.4,16.7-8c1.9-1.4,1.6-2.3,0.2-3.6c1.9-2.7,4.9-4,7.4-5.8c5.4-4.2,8.1-9.9,10.2-16
	c1.7-5.2,2.9-10.8,6.8-15.1c1.8,0.2,1.2,1,0.7,2c-1.8,4.3-3.7,8.8-5.4,13.3c-0.4,1.5-0.7,3.1-0.9,4.6c2.1,0.5,2.1-2.4,4-2.1
	c-9.1,15.7-22,26.7-39.8,31.8L124.5,141.2z"/>
<path class="st26" d="M119.4,138.8c-0.9,1.1-2.4,1.6-3.8,1.2c-3.7-1-4.4,0.6-3.7,3.7c-0.1,0.3-0.2,0.7-0.3,1
	c-2.8-7.6-8.1-12.6-15.7-15.4c-2.3-0.9-4.5-2-6.6-3.3c-8.4-4.8-9.3-10.9-2.7-18.1c0.3,0.2,0.6,0.6,0.7,1c-0.3,3.4-3.4,6.3-1.8,10.8
	c0.4-3.2-0.3-6.1,2.8-7.3c0.4,0,0.8,0.3,0.9,0.7c-0.1,1.5-0.6,3-0.7,4.5c-0.2,3.7,1.8,5.6,5.6,5.2c2.5-0.3,4.9-1.5,7.5-0.9
	c-0.1,0.3-0.1,0.7,0,1c-1.4,2.2-4.2,1.5-6.2,2.8c2.5,1.2,4.4,3.1,7.3,2.3c1.6,0,2.6,1,3.8,1.9c0.5,0.5,1.2,0.9,1.6,1.3
	C111.1,135.1,114.3,138.4,119.4,138.8z"/>
<path class="st27" d="M168.7,103.3c-0.3-3.7,2.1-6.5,3.5-9.5c2.9-6.3,4.9-13,5.9-19.8c0.4-3.7-1-4.5-4.1-3.4s-5.9,0.5-9,0.7
	c-1.9,0.1-2.4-1.2-2.1-2.9c4.4-7.6,10-13.5,19-15.7c1.6,0.7,3.9-0.4,5,1.8c-4.6-1.6-8.5,0.1-12.3,2.5c-3.4,2.2-6.2,5.1-8.5,8.5
	c-0.8,1.1-2.5,2.2-1.6,3.6c0.7,1.2,2.7,0.9,4.1,0.8c2.6-0.2,5.2-0.6,7.7-1.1c2.4-0.6,3.1,0.3,3.3,2.5c0.2,4.2-0.4,8.3-1.8,12.3
	C175.1,90.4,173.2,97.5,168.7,103.3z"/>
<path class="st0" d="M71.4,179.9c-2.3-0.9-1.8-2.9-0.5-3.5c4.1-1.8,3.2-4.5,2.1-7.5c3.1-1,5.2-3.6,8.4-4.1c2.8,0.9,2.9,2.4,0.9,4.4
	c-2.2,2.2-4.3,4.6-7,6.2c-1.2,0.6-1.9,1.8-1.9,3.1L71.4,179.9z"/>
<path class="st0" d="M52.4,184.2c2,1.8,1.2,4,0.8,6.2C49.3,188.9,49.2,188.6,52.4,184.2z"/>
<path class="st28" d="M83.2,171c-2.1,4.1-5,7.4-9.3,9.2c0.3-0.5,0.4-1,0.7-1.5C78.1,176.8,79.8,173,83.2,171z"/>
<path class="st22" d="M538.4,146.1c-0.7-1.4-1.5-2.7-2.2-4.1c-1.8-7.8,1.3-14.5,5.1-20.9c1.2-2.2,2.2-4.3,3.2-6.5
	c1.7-3.8,1.2-6.5-1.5-8.4c-3.2-2.3-5.4,0.2-7.7,1.7c-0.6,0.4-1,1-1.3,1.6c-7.1,8.1-12.7,17.4-20.5,24.8c-4.1,3.9-8.9,7-14.1,9.1
	c-5.9,2.4-10.7,1.5-15-3.1c-1.9-2.1-3.4-2.6-5.7-0.9c-2.7,1.7-5.7,2.8-8.9,3.3c-14.4,2.5-22.7-7.5-18.7-20.5s12.2-22.8,22.8-31
	c0.8-0.6,1.5-1.3,2.3-1.9c5.4-2.4,10.6-5.3,16.7-5.8c0.6,0,1.1-0.2,1.6-0.3c5.7-0.5,10.2,1.8,11,5.7c0.7,3.1-2,5.4-8.3,7.2
	c-4.8,1.3-10,1.6-14.6,4.1c-8.2,4.5-14.9,10.4-18.2,19.4c-1.8,5.1-0.7,8.8,3,11c4.2,2.5,7.5,0.4,10.6-2.2
	c5.3-4.4,7.5-10.8,10.8-16.5c1.1-1.9,2.2-3.7,3.1-5.6c1.9-3.9,4.9-6,9.2-7c6.9-1.7,9.1-5.1,9-12.2c0-1.3-1.1-3.7,1.2-3.8
	s5,0.8,5.3,4c0.2,2.5-0.5,4.9-1.9,6.9c-4.5,6.6-8.9,13-13.1,19.7c-2.1,3.2-4,6.7-4.1,10.7c-0.2,5.4,2,7,7,4.7
	c2.9-1.6,5.4-3.8,7.3-6.6c6.3-8.4,10.1-18.3,15.7-27.1c1.4-2.2,2.8-4.3,5-5.8c3.3-2.2,6.3-1.3,7.1,2.5c0.6,3,1.8,3.6,4.4,2.4
	c0.5-0.3,1.1-0.4,1.7-0.5c4.2-0.7,8.6-1.6,11.7,2.3c2.9,3.7,1,7.6-0.6,11.3c-0.7,1.5-1.5,3.1-2.3,4.5c-3.1,4.4-5.4,9.3-7,14.5
	c-0.6,2-0.9,4.2,0.6,6.1c3.6,5,8.1,6,13.6,3.1c10.9-5.7,15.8-17.2,12.1-28.5c-0.9-2.9,0-3.1,2.5-2.8c6,0.7,11.5,6.6,11.7,12.7
	c0.1,5.6-1.1,10.6-4.9,15.2c-7.3,8.7-17.3,14.8-28.4,17.2C548.9,151.2,543,149.7,538.4,146.1z"/>
<path class="st10" d="M478.1,104.9c4.9-4.6,12.6-7.4,18.1-6.7c-7,6.9-9.6,16.3-15.3,23.9c-2.2,3-4,6.7-8.4,7.4c-4.6,0.8-8-2-7.4-6.7
	c0.9-7.8,5.7-13,12.1-17.2c0.6,0.7,0.7,1.6,0.5,2.4c-0.9,2.7-3.1,4.4-4.8,6.5c-1.1,1.4-2.3,2.7-2.4,4.4c-0.1,1.4-0.5,3.4,2.1,3.1
	c4.4-2.3,4.9-7.3,7.5-10.9c1.3-1.7,2.5-3.5,3.5-5.5c-1.2-0.4-2.2,0.5-3.2,0.3C479.5,106,478.7,105.6,478.1,104.9z"/>
<path class="st0" d="M556.9,132.6l1-0.8c0.5-1.4,1.9-2.1,2.9-3.1c5.7-5.7,8.7-12,6.4-20.1c0-1.1-0.3-2.2,0.5-3.1
	c-0.1-1.4,1-2.6,2.4-2.7c0.3,0,0.5,0,0.7,0.1c2.4,0.2,0.4,2,0.9,3c2.6,5.1,2.9,11.1,0.7,16.5c-2.2,6-6.9,10.7-12.8,13.2
	c-5.3,2.2-9.5-0.4-9.7-6.3C552.2,131,553.3,134.6,556.9,132.6z"/>
<path class="st10" d="M515.9,99c-3.1,4.8-6.3,9.5-9.1,14.5c-1.1,2-3,3.9-1.8,6.5c-1.8-0.7-1.9-0.9-1.1-3.1c0.5-1.4,2.1-2.9-0.4-4
	c3.7-5.5,8.2-10.7,11.1-16.6C517.7,95.9,516.5,97.6,515.9,99z"/>
<path class="st5" d="M515.9,99c0.1-1.2,0.5-2.5-1.3-2.8c2.6-3.2,4.2-6.7,3.2-10.9c0.7,0.2,1.5-0.1,1.9-0.6
	C521,90,519.3,94.7,515.9,99z"/>
<path class="st29" d="M548.2,132.9c-2.5-1.1-1.5-3.1-1.2-4.8c0.9-5.9,3.5-11.4,7.6-15.8c-1.7,3.7-3.5,7.4-5.1,11.2
	C548.2,126.5,547.7,129.7,548.2,132.9z"/>
<path class="st4" d="M508.8,86.6c-0.4,2.4-0.3,4.9-1.8,8.2c-1-3.4,0-5.5,0-7.6C507.2,85.8,507.9,85.9,508.8,86.6z"/>
<path class="st4" d="M483.7,83.9c0.5-1,0.9-2.2,1.4-3.2c1.5,0,2.9,0.5,4.1,1.4C487.3,82.7,485.5,83.3,483.7,83.9z"/>
<path class="st10" d="M508.8,86.6c-0.7-0.2-1.4,0.1-1.8,0.7c-0.5-0.7-1-1.3-1.5-1.9c1.8-0.2,1.8-2.4,3-3
	C508.6,83.6,508.7,85.2,508.8,86.6z"/>
<path class="st5" d="M478.1,104.9l2.7,0.4c-0.4,2.3-1.7,3.3-4,3l0.4-2.7C477.5,105.4,477.8,105.2,478.1,104.9z"/>
<path class="st0" d="M412.8,148.6c-10-1-19.8-0.5-29.7,0.2c-3.4,0-6.5,1.6-8.7,4.1c-2.4,3.6-5.7,6.6-7.7,10.3
	c-0.5,0.6-0.9,1.1-1.3,1.7c-2.7,5.9-1.2,8.8,5.2,9.7c13.5,1.9,27.1,3.5,40.5,5.8c11.9,2.1,23.8,4.9,35.5,8c4.5,1.2,9,2.3,13.3,3.9
	c2.6,1,5.6,0.4,7.7-1.5c14.1-12.4,30.6-19.8,49.1-23.2c2.5-0.4,4.9-2,7.5-0.2c0.8,1.1,0.9,2.1-0.6,2.4c-1.6,0.4-3.2,0.9-4.8,1.6
	c-0.2,0.1-0.5,0.2-0.7,0.1c-2.8,0.6-5.8,0.5-8.5,2.1c-13.4,5.9-27,11.8-37.6,21.9c-5.5,5.2-9.8,5.4-16.6,2.9
	c-23.8-8.9-48.7-12.5-74-14.6c-6.4-0.2-12.6-2.2-19.1-2.1c-3.5-0.6-6.9-1.5-10.4-0.5c-3.1-0.9-5.7,0.6-8.3,1.6
	c-7.5,2.9-14.6,3-22.1-0.8c-6.7-3.4-14.1-2.1-21.2-0.7c-2.8,0.5-4.3,3.5-6.3,5.6c-0.8,0.3-1.5,0.6-2.9,1.1c2.2-3.9,5.1-6.4,7.6-9.2
	c6-6.4,11.7-13,16-20.8c0.7-1.1,1.2-2.8,3.1-2.5c-0.5,3.3-0.8,6.6-1.4,9.8c-0.6,3.3,0.7,6.7,3.3,8.8c7,6.1,14.8,5.7,22.6,2.4
	c13.6-5.8,23-16.4,30.9-28.3c2.2-3.3,3.4-6,8.5-3.9c5.7,2.2,12,0.6,18.2-0.3c2.1-0.3,4.6-1,6.1,1.6c0.7,1.2,2.4,0.6,3.6,1
	S413,146.3,412.8,148.6z"/>
<path class="st0" d="M101.8,127c-0.2,0.7,0,1.4,0.6,1.8c-0.3,0.7,0.3,2.3-1.6,1.3c-2.6-1.5-5.4-2.8-9-4.5l9.6-2.3
	c4.2-0.7,7.8-3,12.2-5c-1.6,4.1-5,4.9-8,6.4C104.4,125.4,102.6,125.2,101.8,127z"/>
<path class="st22" d="M101.6,122.3c-1.2,0.2-2.6,0.3-3.8,0.7c-3.3,1-6.9,1.6-9.2-1.4c-2-2.5-0.7-5.7,0.5-8.5
	c3.8-3.4,8.6-5.3,13.7-5.6c-2.2,3.1-5.8,4-9.3,5c-4,1.1-5.2,3.9-4.4,7c0.7,3.3,4,3.1,6.8,2.6c6.4-1.1,12.5-3.7,17.7-7.6
	c1.1-0.8,2.1-2,3.6-2.1C113.5,118.1,107.1,119.5,101.6,122.3z"/>
<path class="st0" d="M99.7,81.9c1.3-0.3,2.5,0.8,2.2,1.2c-1.2,1.5-3.1,2.2-5,2c-1,0-2.3-0.3-1.9-1.7C95.7,80.8,98,82.3,99.7,81.9z"
	/>
<path class="st0" d="M89.4,87.3c-1.2,1.2-2.3,2.4-4.2,2.3c-0.9,0-2-0.5-1.2-1.6c1-1.4,2.3-2.5,4.2-2.2C89,86,89.7,86.3,89.4,87.3z"
	/>
<path class="st0" d="M78.6,81.1c1.1,0.3,2,0.8,1.8,2c-0.3,1.1-1.3,1.9-2.5,2c-1.3,0.1-1.7-0.7-1.6-1.8C76.3,82,77.3,81,78.6,81.1z"
	/>
<path class="st0" d="M104.6,82.1c1.8-1.1,2.8-0.8,4.1,0.4C107.3,83.5,106.2,83.2,104.6,82.1z"/>
<path class="st30" d="M519,171.4c1.1-2.4,4.8-0.8,5.7-3.4c1.9-4.2,5.9-1.9,8.9-2.7c0.8-0.2,2,0.5,2.9,0.1c5.7-0.6,11.5-1.3,17.2-1.8
	c1.4-0.1,3-0.2,4,1.1C544.9,167,531.7,168.5,519,171.4z"/>
<path class="st30" d="M509.8,173.7c2.2-3,5.4-2.2,8.5-2.1C515.6,172.8,512.7,173.1,509.8,173.7z"/>
<path class="st27" d="M159.6,73.1c3.6-0.2,7.1-1,10.7-0.1c1.3,0.3,2.9,0.6,3.2,2c1.1,4,0.2,8-1.2,11.6c-1.1,3-4.6,3-7.5,3l-17.1,0.3
	c-1.5,0.3-3.1,0.1-4.5-0.6c1.3-3,4.2-2,6.4-1.9c5.2,0.1,10.4-0.2,15.6-0.4c2.2-0.1,4.3-0.6,5.4-2.9c2.4-5,0.8-8.2-4.9-8.6
	c-9.5-0.5-19.2,0.5-28.6-1.5c-3.3-0.5-6.5-1.5-9.6-2.8c-1.6-0.7-3.7-1.3-3.3-3.9l1.8,0.3c7.7,3.9,15.8,6,24.6,4.9
	C153.6,72,156.6,73,159.6,73.1z"/>
<path class="st31" d="M53.9,115.1c-8.3-10.6,4.6-26.7,18.7-30.3C66.9,95.2,61.9,106.1,53.9,115.1z"/>
<path class="st23" d="M124.1,67.4c2.9,3.7,7.5,4.2,11.6,5.2c8.5,2,17.2,1.6,26,1.6c1,0,2-0.1,3-0.1c8.5,0.4,9,1.2,7.3,9.4
	c-0.6,2.7-1.9,4.4-4.9,4.5c-8.1,0.3-16.1,0.7-24.3,1c-6.4,0.8-10.8-2.5-14.6-7c-0.2-0.1-0.4-0.2-0.7-0.3c-2-2.2-4.7-3.2-7.3-4.2
	c-7-2.7-8.5-9.9-3.1-15.1c1.2-1.2,2.5-2.4,3.8-3.7C122.9,62,121.7,65.3,124.1,67.4z"/>
<path class="st22" d="M126.3,190.8c19.1-8.7,39.1-15,59.2-21c27.2-8,55.4-10.5,83.4-14.2c6.5-0.9,13-1.3,19.5-2
	c3.4-0.3,3.7,1.1,2.7,3.8c-2.6,6.9-14.1,15.2-21.4,15.7c-33.8,2.4-66.8,8.3-98.2,21.6c-0.4,0.6-0.9,1.3-1.8,0.9
	c-5.4,1.1-10.2,4.1-13.6,8.4c-5.1,6.4-1.8,13.8,6.9,15.8c9.4,2.2,18.8,1.3,28.1-0.7c24.2-5.3,47.3-13.7,68.4-26.7
	c18.9-11.7,34.4-27,48.1-44.2c2-2.4,1.2-3.4-1.6-3.9c-2.2-0.4-4.9-0.2-4.4-3.9s3.5-7.5,6.2-7.2c4.7,0.5,7.8-1.8,10.1-5.3
	c3.8-5.9,6.9-12.3,9.2-18.9c2.7-5.8,5.4-11.7,8.3-17.3c1-2,2.8-3.6,4.4-5.3c0.9-1.3,2.6-1.7,4-1c1.3,0.7,2.1,2.1,1.9,3.6
	c0,3.3-0.7,6.6-1.9,9.6c-4.6,12.1-10.8,23.5-16.6,35c-7,14.1-14.7,27.9-25.2,40c-26.3,30-59,51.1-96.6,64.4
	c-27.5,9.7-55.7,9.9-84,2.8c-8.6-2.1-16.7-6.3-19.6-15.5c-3.3-9.8,2-17.2,8.6-23.6C114.8,196.9,120.7,194,126.3,190.8z"/>
<path class="st0" d="M336.4,134.4c0.7,0.4,1.2,0.9,1.9,1.3c-6.8,3.9-12.4,9.4-18,14.9c2.6-5.4,5.1-10.8,7.6-16.3
	c2.3,0.4,4,4.4,6.8,1c0.3-0.2,0.6-0.5,0.9-0.8l0.3-0.2L336.4,134.4z"/>
<path class="st32" d="M267.9,117.3c5.3-5.7,8.8-12.7,12.5-19.4c3.6-6.2,6.7-12.6,9.5-19.3c1.2-2.6,1.7-5.5,1.5-8.4
	c-0.1-1.6-0.1-3.2-2-4s-3.3-0.1-4.7,1.3c-5.4,5-8.2,11.5-10.5,18c-1.2,3.6-2,3.7-4.7,1.2c-4.8-4.6-4.9-4.4-1.8-10.2
	c5-9.3,11-17.8,19.3-24.5c3-2.4,6.2-4.8,10.2-3.2s5.3,5.4,5.9,9.4c1.2,9.5-1.6,18.2-5,26.8c-4.5,11.7-10.7,22.4-17.4,33l0,0
	c-3.2,4.2-6.5,8.3-9.7,12.6c-7.5,9.9-17.3,16.8-28.3,22.2c-3,1.5-6.4,2-9.7,1.6c-2.5-0.2-2.9-1.4-2.2-3.4c1.5-4.2,4.8-6.5,8.9-8.1
	C252.2,137.7,261,128.4,267.9,117.3L267.9,117.3z"/>
<path class="st32" d="M258.4,123.9c-1.4-2.7-1.1-5.5-0.9-8.1c0.6-7.6,1.7-15.1,3.5-22.4c0.7-3.1,7.8-5.3,10-3.1
	c0.4,0.4,0.5,1,0.4,1.6c-3.7,10.6-2.7,22.9-11.8,31.6C259.2,123.6,258.8,123.7,258.4,123.9z"/>
<path class="st5" d="M267.9,117.2c-0.8,0.5-1.6,1.1-2.7,1.8c5.2-14.4,6.9-29.5,14.3-42.8c1.6-3.1,3.8-5.8,6.4-8.1
	c1.9-1.6,3.3-2.2,3.8,1.4c0.9,6.9-2.7,12.4-5.4,18.1c-4.4,9.1-9.5,17.9-15.1,26.2C268.7,114.9,268.2,116,267.9,117.2L267.9,117.2z"
	/>
<path class="st33" d="M175.5,134.3c1.5-11.6,6.8-22.4,14.9-30.8c1.4-1.4,2.9-2.7,4.6-3.9c7.2-5,14.4-1.9,16,6.7
	c1.2,6.7-0.9,12.9-3.6,18.8c-5.6,12.2-14,22.9-24.7,31.2c-8.7,6.9-18.9,10.8-30.3,9c-6.6-1-10.8-5.7-13.1-11.4
	c-1.5-3.8,3.2-4,5.3-5.3c1.8-1.2,3.7-3.7,6.4-1.6c0.4,0.4,0.7,0.9,0.8,1.5c1.7,7.1,10,8.2,15.4,6.1c11.1-4.3,18.8-12.5,25.7-21.7
	c2.5-3.5,4.7-7.2,6.5-11.1c1.5-3,1.1-5.9-1.4-7.8c-2.8-1.9-4.5,1-6,2.7c-4.1,4.7-6.7,10.5-7.5,16.6c-0.7,4.8-3.6,7.4-7.1,9.6
	c-2,1.2-3.4,1-2.9-1.8C174.9,138.5,175.2,136.4,175.5,134.3z"/>
<path class="st0" d="M169.6,195.6l1.8-0.9c4,1.8,6.8-1.5,9.9-2.6c18.6-6.6,37.8-11.3,57.3-14.1c7-1,14.1-1.9,21.2-3
	c3.8-0.6,7.6,0.2,11.5-0.6c2.5-0.5,4.9-0.8,6.8-2.2c5-3.5,9.8-7.4,13.3-12.7c2.9-4.4,2.5-5.9-2.7-7.2c-1.5-0.4-1.7-0.8-1-2
	c2.5-1.6,5.4-1.4,8.3-1.5s3.7-1.1,1.1-3.2c-5-2.8-5-2.8,0.2-6.7c0.9-0.7,1.9-1.2,2.8-1.9c1.1,1.1,0.4,2.1,0.3,2.9
	c-0.5,3.2,0.2,5.4,3.8,5.9c2.2,0.3,2.3,0.9,0.9,2.7c-15.1,19.1-32.9,35.2-54.4,47.1c-18.4,10.2-38.3,17.5-58.9,21.7
	c-9.5,2.2-19.4,2.5-29,1c-3.9-0.6-6.7-2.7-7.8-6.1c-1.1-3.1,0.2-6.3,2.9-8.5c2.9-2.2,5.4-5.2,9.3-6.1
	C168.5,197.6,169.5,196.7,169.6,195.6z"/>
<path class="st23" d="M288.7,143.3c-5,1.4-10,2.4-15.4,1.8c-3.6-0.5-3.6-2.1-2.3-4.7c1.4-2.6,4.2-4.2,7.1-4
	c8.7,0.5,15.1-3.7,20.3-9.8c5.5-6.4,10.7-13.1,14-21.1c0.8-1.9,2.7-5.1,0.1-5.9s-3.2,2.7-3.8,4.7c-1.7,5.8-4.8,11.1-9.1,15.4
	c-0.7,0.6-1.3,1.8-2.5,1.1c-0.8-0.5-0.3-1.6-0.3-2.4c1-9.1,4.9-17,9.6-24.6c0.4-0.8,0.8-1.5,1.2-2.2c2.5-2.8,4.9-5.6,7.4-8.3
	c2-2.1,4.5-3.1,7.5-2s3.5,3.7,3.6,6.4c0.3,6-1,12-3.9,17.3C313.9,120.1,304,134.1,288.7,143.3z"/>
<path class="st33" d="M223.2,132.4c-1.9,1.8-3.1,4.1-5.3,5.5c-1.1,0.6-1.9,2.1-3.3,1.4c-1.1-0.6-0.6-2.1-0.8-3.1
	c-1.2-9.3,1.8-17.5,6.2-25.4c0.4-0.7,0.6-1.3,0.9-1.9c3.5-4.6,6.6-9.4,11.1-13.1c1.1-1,2.2-1.9,3.3-2.8c2.9-1.9,6.1-4,9.6-2.3
	c4.1,1.9,5.4,5.8,5.9,10c0.7,8.8-2.4,16.6-6.8,24c-8,13.6-18,25.2-32.6,32.3c-4.5,2.3-9.6,3.4-14.7,3.2c-7.3-0.4-7.8-1.4-4.1-7.3
	c1.4-0.5,2.8-0.8,4.2-0.9c14.3-0.1,22.5-9.4,30.3-19.4c2-4.9,5.5-9,7.7-13.9c1.3-2.8,2.8-5.7,3-8.9c0.1-1.2,0.7-2.7-0.9-3.5
	c-1.4-0.6-2.4,0.6-3.3,1.4c-1.2,1-2.1,2.3-2.8,3.8c-3.6,6.2-5.1,13-6.4,19.8C224.1,131.9,223.7,132.2,223.2,132.4z"/>
<path class="st34" d="M227,131.3c-0.6,0.7-1.3,1.4-1.9,2.2c-0.5,0.5-0.9,1.4-1.5,0.9c-0.4-0.2-0.2-1.3-0.3-2v0.1
	c1.1-1.5,1.7-3.3,1.7-5.1c0.7-5.8,2.6-11.4,5.4-16.5c1-1.6,2.2-3,3.6-4.1c1-0.9,2.4-1.2,3.6-0.6c1.3,0.7,1,2,0.8,3
	c-0.5,2.2,0.3,5-2.9,5.9c-0.7-0.3-0.8-1.8-1.9-1.2c-2.3,1.3-4.2,8.9-2.8,11.2C230.7,127.6,229.2,130,227,131.3z"/>
<path class="st35" d="M235.5,114.2c3.4-1.4,2.8-4.5,2.2-6.9c-0.3-1.3-2.3-1-3.3-0.1c-1.3,1.1-2.4,2.5-3.6,3.7
	c-0.4,0.3-0.6,0.3-0.8-0.1c0.3-0.5,0.4-1.2,0.7-1.5c1.9-2,3.3-5.7,6.6-4.2c3.6,1.6,2,5.4,1,8c-2.6,7.1-6,13.8-11.3,19.3
	c0-0.4,0-0.8,0-1.2c1.3-2.1,3.5-3.8,3.6-6.6C230.6,120.4,231.9,116.8,235.5,114.2z"/>
<path class="st29" d="M391,111c-25.3,9.1-41.1-9.6-40.5-30.2c0.2-6.4,4-11.6,6.6-17c15.5-19.4,36.1-23.9,59.5-19.8
	c19.3,3.4,37.1,20.9,39.5,40.1c2.1,17.9-4.6,33.3-19,44.2c-15.6,11.6-33.8,16.1-53.3,14.9c-4.9-0.3-5.1-0.5-2.9-5
	c0.7-1.1,1.3-2.3,1.8-3.5c2.1-5.4,5.7-8.2,11.7-9.4c11.5-2.2,21.8-7.6,30.9-15c11-9,15.1-23.3,9.9-34.8c-2.9-6.9-8.6-12.3-15.7-14.8
	c-12.6-4.8-24.9-5.4-36.3,3.2c-3.1,2.4-5.6,5.5-7.1,9.1c-3.5,7.6,2.5,16.6,11,17c7.7,0.4,14.1-2.6,20-7.1c1.8-1.4,3.2-3.3,6.1-4.3
	c0.8,10.5-3.8,18.3-10.5,25.3C399.4,107.1,395.3,109.1,391,111z"/>
<path class="st23" d="M318.2,159.9c0.9-5.1,5.3-11.1,11-16.1c6.9-6,15-9.6,23.6-12.5c1.1-0.4,2.5-0.9,3.2,0.1s-0.1,2.2-0.5,3.3
	c-1.6,5.1-5.1,9.5-9.8,12.2c-2.2,1.3-4.4,2.8-6.3,4.6c-1.5,1.3-3,3-1.5,5.1s3.6,1.3,5.4,0.4c4.2-2.3,8-5.2,11.2-8.8
	c6-6.5,11.3-13.7,15.9-21.3c2.4-3.8,5.2-6.7,10.4-6.4c3.3,0.2,3.6,1.5,2.9,4c-1.9,5.9-4.9,11.3-7.9,16.7
	c-5.5,10-12.7,18.9-21.4,26.3c-6.6,5.6-13.8,9.9-22.9,9.9C322.4,177.1,316.7,171,318.2,159.9z"/>
<path class="st0" d="M417,76.9c-1.1,1.6,0.7,4.5-2.5,5c0.2-1.9,0.7-4-2.1-4.6c-0.4-1.5,2.1-3-0.5-4.7c-0.8,2.4-3.4,3.9-3.3,6.8
	c-2.3,2.3-5,4.3-7.9,5.8c-2.2-1-4.2-0.5-6.3,0.2c-1.7,0.6-3.4,0.6-4.7-1c-1.1-1.4-1.2-3.3-0.2-4.8c1.5-2.5,2-4.9,0.8-7.7
	c-0.9-1.8,0.6-2.4,2.2-2.7c2.7-0.4,2.8-2,1.7-4c-0.9-1.4-2.2-2.7-0.6-4.5c0.6-1,1.7-1.5,2.8-1.3c1.1,2.2,2.7,2.9,5.2,2.2
	c3.3-0.8,6.8-0.3,9.8,1.3c4.4,2.1,9.1,4.9,14.6,4.1c3.9,0.8,5.1,4.2,6.9,7c-2.8,1.2-4.1-2.1-6.9-2.3c2,3.9,5,6.8,6,11
	c1,4.3,0.5,8.8-1.4,12.7c-1.8,4.1-3.3,8.6-7.4,11.4c-1.1,0.8-1,2-0.5,3.2c-8,6.7-17.5,11.4-27.7,13.7c-2.4,0.6-4.6,1.4-7,2.2
	c-2.1,0.8-3.1,0.4-2.5-2c1-1.1,1.9-2.2,1.2-3.8c-1-2.5,0.4-4.4,1.8-6.2c3.4-1.5,6.8-3.2,10.2-4.7l0.5,0.7c-1.5,1.3-3,2.6-4.4,3.9
	c-0.2,1.1-1,1.6-1.7,2.3s-2.1,1.4-1.6,2.6c0.7,1.5,2.1,0.7,3.4,0.6c1.9-0.3,3.7-1.1,5.4-2.2c8-3.4,15.8-7.1,21.5-14
	c3.3-4,5.7-8.2,6.3-13.3c0.5-5.4-0.5-10.3-4.2-14.4c-1.3-2-2.9-3.8-4.8-5.3c-4.6-3.1-9.9-3.7-15.2-4.2c-2.4-0.2-3.5,0.7-3.4,3.2
	s0.4,4.8,0.8,7.2c0.1,1,0.7,1.5,1.7,0.8c3.4-2.4,4.6-6.7,8-9.1c0.6-0.2,1.3-0.2,1.9,0c2.7,1.4,4,3.8,4.9,6.6
	C418,75.3,417.7,76.2,417,76.9z"/>
<path class="st0" d="M393.7,60.8c-0.2,1.3-0.4,2.8,1,3.4c2.7,1.3,1.4,3.4,1.1,5.2c-0.4,2.3-2.1,1-3.5,0.9c-1.8-0.2-2.1,0.7-1,2
	c2.1,2.5,1.1,4.8-0.5,6.9c-1.1,1.5-1.9,3.1-0.6,4.7c1.3,1.8,3,0.9,4.6,0.2c2.1-0.9,4.4-2,5.8,1.1c-5.5,3.7-11.4,4-17.5,2
	c-5.1-1.7-7.9-7.2-6.3-12.3c0.3-0.9,0.7-1.7,1.3-2.5C382.1,66.5,386.4,61.9,393.7,60.8z"/>
<path class="st0" d="M422.8,110.2c-3.1-0.3-2.6-2.3-1-3.2c4.9-2.8,6.5-8.2,8.3-12.6c1.2-2.9,2.4-7,0.7-11.4c-1.5-3.9-3.9-6.9-6-10.2
	c-0.5-0.8-1.1-1.5-0.4-2.3s1.5-0.6,2.3-0.1c2.2,1.2,3.8,3.1,6.2,3.8c1.5,3.1,2.3,6.5,2.1,9.9c-0.1,1.3,0.3,2.6,1.2,3.6
	C434.3,96.6,430.4,104.4,422.8,110.2z"/>
<path class="st0" d="M426.2,67.2c-0.9,1.5-2.3,1.6-3.8,1.2c-4.3-1.4-8.8-2.6-12.7-5c-2.6-1.6-5.6-1.3-8.5-0.2
	c-3.4,1.3-5.3,0.4-4.6-3.6c10.1-1.5,19.6-0.4,28.2,5.7C425.3,65.9,425.8,66.5,426.2,67.2z"/>
<path class="st0" d="M388.8,114.1c-0.5,2.8-1.5,5.3-0.6,8.3c0.4,1.1-1.6,1.2-2.6,1.7c0.7-3.6-0.7-5.7-4.5-5.8
	c-2.7-0.1-2.5-1.9-2.1-3.7C382.3,115.7,385.4,112.9,388.8,114.1z"/>
<path class="st0" d="M408.6,79.5c-1.8-0.6-1.8-1.6-0.7-2.8l2.1-2.1c1-1.1-0.4-3.7,1.9-3.6c1,0,2.1,1.9,2.8,3.1
	c1.4,2.4-2.1,1.8-2.3,3.3C411.1,78,409.9,78.8,408.6,79.5z"/>
<path class="st36" d="M391,111c3.9-2.4,7.8-4.8,11.7-7.1c-0.3,0.4-0.5,0.9-0.7,1.4C398.6,107.7,395.4,110.4,391,111z"/>
<path class="st0" d="M420.3,146.5c0.3-0.1,0.5-0.2,0.8-0.1c0.9-0.2,1.9-0.2,2.8,0.1c0.6,0.1,1.6,0.1,1.5,0.9
	c-0.1,1.1-1.3,0.6-1.9,1.1c-1.4-0.2-2.9-0.4-4.3-0.5C419.6,147.4,419.9,146.9,420.3,146.5z"/>
<path class="st0" d="M436.4,87.7c-1.9-0.8-3.3-1.7-1.2-3.6C436.7,85,436.8,86.3,436.4,87.7z"/>
<path class="st22" d="M533.9,109.5c1.9-3.7,5.9-5.9,8.4-4.8c3.6,1.7,4.8,6.7,2.5,11.2c-2.9,5.4-5.8,10.5-7.6,16.3
	c-1.1,3.3,0.5,6.5-0.8,9.7c-2.9-6-0.5-11.4,2-16.7c1.7-3.5,3.6-6.9,5.4-10.3c1.4-2.8,2.1-5.8-0.9-8.1c-2.8-2-4.9,0.1-7,1.6
	C535.1,108.8,534.5,109.1,533.9,109.5z"/>
<path class="st22" d="M529.3,153.9l38.3,4.5c2.7,0.2,5.3,0.8,7.8,1.7c-13.9,2.2-28,2.2-41.8,4.7c-7,1.9-14.5,2.3-21.5,4.1
	c-11.5,2.9-22.5,7-32.5,13.6c-4.3,2.8-8.8,5.3-12.4,9.3c-2.1,2.3-4.9,1.5-7.4,0.8c-30-9.5-60.8-14.1-91.9-17.8
	c-3.6-0.4-4.9-1.7-4.2-5.3c1.3-6.6,5.1-11.6,10.5-15.5c7-5.9,15.7-4.5,23.8-4.5c21.3,0,42.6,0.2,63.8,0.8
	c15.2,0.4,30.4,1.3,45.6,2.4C514.9,153.1,522.1,153.9,529.3,153.9z"/>
<path class="st19" d="M374.5,154c-3.6,3.7-7.1,7.6-9.2,12.3c-2.4,5.3-1.1,7.3,4.5,8c25.6,3,51.2,7,76.3,13.2
	c5.2,1.3,10.3,3,15.4,4.4c1.9,0.6,3.7,0.8,5.6-0.9c15.3-13.6,33.6-20.9,53.7-24.6c4.3-0.8,8.6-1.2,12.9-1.7c0.9,0.2,1.8,0.4,2.7,0.6
	c-3.2,0.3-6.1,1.8-9.4,1.3c-1-0.1-2,0.4-2.4,1.4c-6.5-0.3-12.7,1.8-18.9,3.5c-11.7,3.2-22,8.9-32,15.7c-1.1,0.6-2.2,1.4-3.1,2.4
	c-4.1,5.8-9.1,5-14.9,2.9c-6.4-2.3-13.3-3.8-19.9-5.5c-22.5-5.6-45.6-8.1-68.5-11.4c-4.5-0.6-6.1-4.3-3.2-10.2
	c2.4-4.7,5.1-9.6,10.2-12.3C374.5,153.3,374.5,153.6,374.5,154z"/>
<path class="st19" d="M423.6,148.4c1.1-0.8,2-1.5-0.4-1.8c-0.7-0.1-1.4-0.3-2.2-0.4c0.1-0.2,0.2-0.4,0.2-0.7
	c4.1,0.3,8.1,0.4,12.2,0.7c0.7,1.2-1.1,0.9-1,1.7C429.5,149.1,426.5,148.1,423.6,148.4z"/>
<path class="st0" d="M432.4,148.1c-1.5-1.7,1.4-0.7,1-1.7c0.2-0.1,0.4-0.1,0.6,0c0.8,1.2,4.1-1,3.4,2.3
	C435.9,148.4,434.2,148.2,432.4,148.1z"/>
<path class="st26" d="M102.7,107.6c-4.6,1.9-9.1,3.7-13.7,5.6l-0.2-0.3c0.5-3.1,3.3-3.4,5.4-4.2c4-1.3,7.7-3.3,11-5.8
	c1-0.6,1.8-1.5,2.4-2.5c0.4-1,0.9-1.9,0.1-2.8c-0.6-0.8-1.5-0.5-2.5-0.3c-3.7,0.8-7.1,2.6-9.8,5.2c-2.6,2.2-4.3,5.9-8.4,6.1
	c-0.1-0.1-0.3-0.2-0.3-0.4c4.6-5.7,9.6-11,17-13.2c2.5-0.8,5.5-1.3,7.1,1.3c1.7,3-0.2,5.5-2.5,7.4
	C106.5,105,104.5,106.2,102.7,107.6z"/>
<path class="st37" d="M165.7,92.5c-2.9,7.7-5.2,15.6-8.8,23.1c-3.1,6.6-8.8,11-15.6,14c1.3-11.9,5.4-23.1,9.5-34.1
	c0.8-2,2.3-2.4,4.1-2.6C158.5,92.7,162.1,92.7,165.7,92.5z"/>
<path class="st8" d="M128.3,82c4.2,3.7,8.9,6.5,14.6,7c1.6,0.3,3,0.6,4.6,0.9c-7,0.7-13.1-0.5-18.3-5.6
	C128.6,83.7,128.2,82.9,128.3,82z"/>
<path class="st3" d="M87,108.3c2.5-2.2,5.2-4,7.5-6.4c2.7-3,6.3-5,10.3-5.7c1.6-0.3,3.7-1.7,4.5,0.5c0.8,1.9,0.2,4.2-1.5,5.4
	c-3.7,3.2-8,5.6-12.6,7.2c-2.3,0.8-4.7,1.5-6.3,3.4c-1.8,1.2-2.6,3.5-1.9,5.6c0.3,1.1,0.6,3-1.1,3.1c-1.5,0.1-2.1-1.7-2.1-3.2
	c0.2-2.8,0.6-5.6,2.5-7.9C86.6,109.7,86.9,109,87,108.3z"/>
<path class="st38" d="M301.9,68.4c-2.3,6.4-3.8,13.2-6.8,19.6c-4.6,9.7-9.2,19.3-15.5,28.1c-7.5,10.4-14.7,20.9-25.8,28.1
	c-5.2,3.4-10.2,6.7-16.2,8.7c-1.9,0.6-4,1.1-5.2-0.5c-1.3-1.8,0.5-3.4,1.7-4.8c1.1-1.4,2.6-2.4,4.2-2.8c13.5-4.3,21.9-14.4,30-25.2
	c8-10.6,13.7-22.3,20.1-33.7c2.6-4.7,4.1-10,4.5-15.4c0.2-2.8-1.1-4.6-3.3-5.4c-2.2-1-4.8-0.3-6.3,1.5c-4.2,5.7-8.6,11.3-10.2,18.4
	c-0.4,1.8-1.1,2.6-2.8,0.8c-3.8-3.8-4-3.8-1-9.3c4.8-8.8,11-16.7,18.4-23.4c3-2.7,6.5-3.4,10.1-1.9s3.5,5,3.6,8.1
	C301.5,62.2,303.6,65.1,301.9,68.4z"/>
<path class="st18" d="M230,110.9l0.8,0.1c-2.7,5.1-4.4,10.7-5,16.5c-0.2,2-0.7,3.8-2.6,5c1.4-5.9,1.8-12.1,4.5-17.5
	C228.3,113.5,229.2,112.2,230,110.9z"/>
<path class="st29" d="M396.1,80c0.1,1.7-1.2,3.2-2.9,3.3c-0.1,0-0.2,0-0.3,0c-1.6,0.1-1.6-1.2-1.1-2.1c1-1.8,0.4-4.9,2.6-5.3
	C396,75.7,396.4,78.2,396.1,80z"/>
<path class="st39" d="M54.9,39.6c0,1.6,1.8,0.8,1.8,2.1c0,0.6-0.3,0.9-1.4,0.9H50c-1.1,0-1.4-0.3-1.4-0.9c0-1.3,1.9-0.5,1.9-2.1
	V23.7c0-0.8-0.3-1-1.4-1c-3.6,0-4,2.5-5.4,2.5c-0.6,0-0.8-0.4-0.8-0.9c0.1-1,0.3-1.9,0.5-2.9c0.2-0.7,0.5-0.8,1.1-0.8h16.3
	c0.6,0,0.9,0.1,1.1,0.8c0.3,0.9,0.4,1.9,0.5,2.9c0,0.5-0.2,0.9-0.8,0.9c-1.3,0-1.8-2.5-5.4-2.5c-1.1,0-1.4,0.2-1.4,1V39.6z"/>
<path class="st39" d="M68.5,29.6c1.3-1,3-1.6,4.6-1.6c3.7,0,5.4,1.9,5.4,5.9v5.7c0,2,1.4,1,1.4,2.2c0,0.5-0.3,0.8-1.1,0.8h-4.5
	c-0.8,0-1.1-0.3-1.1-0.8c0-1.1,1.4-0.2,1.4-2.2v-5.5c0-2.2-0.2-3.9-3-3.9c-1.7,0-3.1,1.4-3.1,3.2c0,0,0,0,0,0v6.2c0,2,1.4,1,1.4,2.2
	c0,0.5-0.3,0.8-1.1,0.8h-4.5c-0.8,0-1.1-0.3-1.1-0.8c0-1.1,1.4-0.2,1.4-2.2V23.7c0-1.5-1.6-1.1-1.6-2c0-0.4,0.5-0.5,0.8-0.7
	c1.2-0.6,2.4-0.9,3.7-1.1c0.9,0,1.1,0.6,1.1,2V29.6z"/>
<path class="st39" d="M89.5,28c2.5,0,5.8,1.2,5.8,4.2c0,4-6.8,4.8-9.9,4.9c0.3,2.1,2.1,3.7,4.2,3.6c1.6,0,3.1-0.7,4.2-1.8
	c0.4-0.3,0.6-0.6,1.1-0.6c0.3,0,0.7,0.2,0.7,0.6c0,0,0,0.1,0,0.1c0,1.5-3.3,3.9-6.9,3.9c-4.1,0-7.6-2.8-7.6-7.1
	C81,31.1,83.9,28,89.5,28z M85.1,35.5c1.6-0.2,6.3-0.8,6.3-3.7c0.1-1.1-0.8-2.1-1.9-2.1c-0.1,0-0.2,0-0.3,0
	C86.3,29.6,85,32.5,85.1,35.5L85.1,35.5z"/>
<path class="st39" d="M113.1,20.7c0.8,0,1.2,0.4,1.2,0.9c0,1.3-1.5,0.8-1.7,1.6c-0.5,3.5-0.7,7-0.8,10.6c0,5.3,2.1,7.2,6.1,7.2
	c3.7,0,5.9-2,5.9-6.7c0-3.5-0.2-7-0.6-10.5c-0.3-1.4-2.1-1.1-2.1-2.2c-0.1-0.4,0.2-0.8,0.7-0.9c0,0,0.1,0,0.1,0h4.5
	c0.8,0,1,0.4,1,0.8c0,1-1.7,0.5-1.7,2.2c0,0.7,0.6,5.9,0.6,9.6c0,6.2-2.9,9.8-9.7,9.8c-5.8,0-9.4-3.3-9.4-8.5
	c0-2.5,0.6-7.4,0.8-11.1c0.1-1.3-1.6-0.9-1.6-1.9c0-0.6,0.4-0.9,1.2-0.9L113.1,20.7z"/>
<path class="st39" d="M130.3,42.6c-0.8,0-1.1-0.3-1.1-0.8c0-1.1,1.4-0.2,1.4-2.2V23.7c0-1.6-1.6-0.9-1.6-2.2c0-0.6,3.2-1.7,4.4-1.7
	c0.7,0,1.1,0.4,1.1,2v17.8c0,2,1.4,1,1.4,2.2c0,0.5-0.3,0.8-1.1,0.8L130.3,42.6z"/>
<path class="st39" d="M145.2,28.3c0.7,0,1.1,0.2,1.1,1s-0.4,1-1.1,1h-2.4v8.7c0,1.4,0.5,1.8,2,1.8c1.4,0,1.7,0.2,1.7,0.9
	c0.1,0.5-0.3,0.9-0.8,1c-0.1,0-0.1,0-0.2,0h-4.2c-1.9,0-2.3-0.3-2.3-1.9V30.2h-1.2c-0.9,0-1.1-0.2-1.1-1s0.6-0.9,1.7-1
	c3.4-0.3,2.4-5.2,3.8-5.2c0.6,0,0.8,0.3,0.8,1.2v4L145.2,28.3z"/>
<path class="st39" d="M148.6,42.6c-0.8,0-1.1-0.3-1.1-0.8c0-1.1,1.4-0.2,1.4-2.2v-7.8c0-1.5-1.6-1.1-1.6-2c0-0.5,0.4-0.6,0.8-0.7
	c1.2-0.5,2.4-0.9,3.7-1.1c0.9,0,1.1,0.6,1.1,2.3v9.4c0,2,1.4,1,1.4,2.2c0,0.5-0.3,0.8-1.1,0.8L148.6,42.6z M152.9,24.5
	c0,1.3-1,2.1-2.5,2.1c-1.2,0.1-2.2-0.7-2.4-1.8c0-0.1,0-0.2,0-0.3c0-1.3,1-2.1,2.5-2.1c1.2-0.1,2.2,0.7,2.3,1.8
	C152.9,24.3,152.9,24.4,152.9,24.5z"/>
<path class="st39" d="M175.3,42.6c-0.8,0-1.1-0.3-1.1-0.8c0-1.1,1.4-0.2,1.4-2.2v-6.7c0-1.8-0.9-2.7-2.3-2.7c-1.6-0.1-2.9,1-3.1,2.6
	v6.8c0,2,1.4,1,1.4,2.2c0,0.5-0.3,0.8-1.1,0.8H166c-0.8,0-1.1-0.3-1.1-0.8c0-1.1,1.4-0.2,1.4-2.2v-6.7c0-1.8-0.9-2.7-2.3-2.7
	c-1.5-0.1-2.9,1-3.1,2.6v6.8c0,2,1.4,1,1.4,2.2c0,0.5-0.3,0.8-1.1,0.8h-4.5c-0.8,0-1.1-0.3-1.1-0.8c0-1.1,1.4-0.2,1.4-2.2v-7.3
	c0-2.3-1.6-1.2-1.6-2.6c0-1.1,3.3-1.7,3.9-1.7c0.9,0,1,0.6,1.1,2.4h0.1c1.1-1.6,2.9-2.5,4.8-2.4c1.7-0.1,3.4,0.8,4.1,2.4
	c1.2-1.6,3.2-2.5,5.2-2.4c2.4,0,5,1.3,5,4.8v6.8c0,2,1.4,1,1.4,2.2c0,0.5-0.3,0.8-1.1,0.8H175.3z"/>
<path class="st39" d="M193.2,42.6c-1.2,0-1.4-0.7-1.3-1.6h-0.1c-0.8,1.3-2.7,1.9-4.7,1.9c-3.4,0-5.3-2.1-5.3-4.4
	c0-4.1,5.5-5.6,9.8-5.6c0.1-1.5-1-2.9-2.6-3c-0.1,0-0.3,0-0.4,0c-2.4,0-2.6,1.7-4.5,1.7c-0.6,0.1-1.2-0.4-1.3-1c0-0.1,0-0.1,0-0.2
	c0-1.4,2.9-2.3,5.6-2.3c3.9,0,7.1,1.4,7.1,5.3v6.4c0,1.5,1.5,1.1,1.5,2c0,0.7-0.2,0.9-1.4,0.9L193.2,42.6z M191.6,34.4
	c-3.5,0-5.7,2.1-5.7,4c0,1.5,1.2,2.7,2.7,2.8c1.9,0,2.9-1.8,3-3.3L191.6,34.4z"/>
<path class="st39" d="M206.3,28.3c0.7,0,1.1,0.2,1.1,1s-0.4,1-1.1,1h-2.4v8.7c0,1.4,0.5,1.8,2,1.8s1.7,0.2,1.7,0.9
	c0.1,0.5-0.3,0.9-0.8,1c-0.1,0-0.2,0-0.2,0h-4.2c-1.9,0-2.3-0.3-2.3-1.9V30.2h-1.2c-0.9,0-1.1-0.2-1.1-1s0.6-0.9,1.7-1
	c3.4-0.3,2.4-5.2,3.8-5.2c0.6,0,0.8,0.3,0.8,1.2v4L206.3,28.3z"/>
<path class="st39" d="M216.9,28c2.5,0,5.8,1.2,5.8,4.2c0,4-6.8,4.8-9.9,4.9c0.3,2.1,2.1,3.7,4.2,3.6c1.6,0,3.1-0.7,4.2-1.8
	c0.4-0.3,0.6-0.6,1.1-0.6c0.3,0,0.7,0.2,0.7,0.6c0,0,0,0.1,0,0.1c0,1.5-3.3,3.9-6.9,3.9c-4.1,0-7.6-2.8-7.6-7.1
	C208.4,31.1,211.3,28,216.9,28z M212.5,35.5c1.6-0.2,6.3-0.8,6.3-3.7c0.1-1.1-0.8-2.1-1.9-2.1c-0.1,0-0.2,0-0.3,0
	C213.7,29.6,212.4,32.5,212.5,35.5L212.5,35.5z"/>
<path class="st39" d="M297.3,203.2c0-1.6-1.7-0.8-1.7-2.1c0-0.6,0.3-0.9,1.4-0.9h5c1.1,0,1.4,0.3,1.4,0.9c0,1.3-1.7,0.5-1.7,2.1
	v15.4c0,1.1,0.2,1.4,3.5,1.4c6.3,0,5.6-2.8,7.1-2.8c0.4,0,0.7,0.3,0.7,1.2c0,1.4-0.7,3.7-2.4,3.7H297c-1.1,0-1.4-0.3-1.4-0.9
	c0-1.3,1.7-0.5,1.7-2.1L297.3,203.2z"/>
<path class="st39" d="M321.6,222.4c-4.5,0-8.1-3-8.1-7.4s3.6-7.4,8.1-7.4s8.1,3,8.1,7.4S326.1,222.4,321.6,222.4z M321.6,220.6
	c2.2,0,4-1.9,4-5.7s-1.7-5.6-4-5.6s-4,1.9-4,5.6S319.4,220.6,321.6,220.6L321.6,220.6z"/>
<path class="st39" d="M332.9,222.1c-0.8,0-1.1-0.3-1.1-0.8c0-1.1,1.4-0.2,1.4-2.2v-6c0-3.4-2-2.1-2-3.4c0-0.9,0.9-1,1.7-1.5
	c0.7-0.3,1.4-0.5,2.1-0.7c1.3,0,1.5,2.5,1.6,3.5h0.1c0.7-1.6,2.2-3.5,4-3.5c1.1,0,2,0.9,2,2c0,0,0,0.1,0,0.1c0,0.8-0.4,1.7-1.4,1.7
	c-0.5,0-1.2-0.5-1.8-0.5c-1.2,0-2.4,2.1-2.4,4.3v4c0,2,1.4,1,1.4,2.2c0,0.5-0.3,0.8-1.1,0.8L332.9,222.1z"/>
<path class="st39" d="M351.7,207.5c2.5,0,5.8,1.2,5.8,4.1c0,4-6.8,4.8-9.9,4.9c0.3,2.1,2.1,3.7,4.2,3.6c1.6,0,3.1-0.7,4.2-1.8
	c0.4-0.3,0.6-0.6,1.1-0.6c0.3,0,0.7,0.2,0.7,0.6c0,0,0,0.1,0,0.1c0,1.5-3.3,3.9-6.9,3.9c-4.1,0-7.6-2.8-7.6-7.1
	C343.2,210.7,346.1,207.5,351.7,207.5z M347.3,215c1.5-0.1,6.3-0.7,6.3-3.7c0.1-1.1-0.8-2.1-1.9-2.1c-0.1,0-0.2,0-0.3,0
	C348.5,209.1,347.2,212,347.3,215z"/>
<path class="st39" d="M378.9,222.1c-0.8,0-1.1-0.3-1.1-0.8c0-1.1,1.4-0.2,1.4-2.2v-6.7c0-1.8-0.9-2.7-2.3-2.7
	c-1.5-0.1-2.9,1-3.1,2.6v6.8c0,2,1.4,1,1.4,2.2c0,0.5-0.3,0.8-1.1,0.8h-4.5c-0.8,0-1.1-0.3-1.1-0.8c0-1.1,1.4-0.2,1.4-2.2v-6.7
	c0-1.8-0.9-2.7-2.3-2.7c-1.5-0.1-2.9,1-3.1,2.6v6.8c0,2,1.4,1,1.4,2.2c0,0.5-0.3,0.8-1.1,0.8h-4.5c-0.8,0-1.1-0.3-1.1-0.8
	c0-1.1,1.4-0.2,1.4-2.2v-7.3c0-2.3-1.6-1.2-1.6-2.6c0-1.1,3.3-1.7,3.9-1.7c0.9,0,1,0.6,1.1,2.4h0.1c1.1-1.6,2.9-2.4,4.8-2.4
	c1.7-0.1,3.4,0.8,4.1,2.4c1.2-1.6,3.2-2.5,5.2-2.4c2.4,0,5,1.3,5,4.8v6.9c0,2,1.4,1,1.4,2.2c0,0.5-0.3,0.8-1.1,0.8L378.9,222.1z"/>
<path class="st39" d="M401,219.1c0,1.6,1.7,0.8,1.7,2.1c0,0.6-0.3,0.9-1.4,0.9h-5c-1.1,0-1.4-0.3-1.4-0.9c0-1.3,1.7-0.5,1.7-2.1
	v-15.9c0-1.6-1.7-0.8-1.7-2.1c0-0.6,0.3-0.9,1.4-0.9h5c1.1,0,1.4,0.3,1.4,0.9c0,1.3-1.7,0.5-1.7,2.1V219.1z"/>
<path class="st39" d="M409.7,224.7c0,1.9,1.7,1,1.7,2.2c0,0.5-0.6,0.8-1.4,0.8h-4.5c-0.8,0-1.1-0.3-1.1-0.8c0-1.1,1.4-0.2,1.4-2.2
	v-12.9c0-2.3-1.8-1.2-1.8-2.6c0-1.1,3.5-1.7,4.1-1.7c1,0,1.1,0.6,1.3,2.3c1.1-1.6,2.9-2.4,4.9-2.3c4.1,0,6.6,3.5,6.6,7.4
	c0,4.2-2.9,7.5-7.2,7.5c-1.2,0-3.3-0.2-3.3-1.4c0-0.4,0.3-0.8,0.7-0.8c0,0,0,0,0.1,0c0.2,0,1.1,0.1,1.9,0.1c2.8,0,3.7-3.1,3.7-5.4
	s-0.9-5.5-3.7-5.5c-2.3,0-3.4,2.1-3.4,4.4L409.7,224.7z"/>
<path class="st39" d="M429.1,207.5c3.2,0,5,1.2,5,2.2c0,1.9-0.1,2-0.7,2c-1.3,0-1.3-2.4-4.3-2.4c-1.9,0-2.4,1.2-2.4,2c0,2.8,8,1,8,6
	c0,3.2-2.6,5.1-6.5,5.1c-3.4,0-5.8-2.2-5.8-3.2c0-0.7,0.4-1.5,1.2-1.5c1.5,0,1.5,2.9,4.5,2.9c1.5,0,2.8-0.9,2.8-2.1
	c0-3.2-7.9-0.9-7.9-6.2C422.9,209,426.2,207.5,429.1,207.5z"/>
<path class="st39" d="M448.6,222.1c-1.5,0-1.6-0.5-1.8-1.9c-1.3,1.4-3.1,2.2-5,2.2c-3.5,0-4.9-2.2-4.9-4.9v-6.1
	c0-2.1-1.4-1.2-1.4-2.3c0-0.9,3.6-1.5,4-1.5c0.7,0,1.2,0.4,1.2,2.2v7.1c0,2.7,0.6,3.4,2.4,3.4s3.4-1.1,3.4-2.8v-6.1
	c0-2.1-1.4-1.2-1.4-2.3c0-0.9,3.6-1.5,4-1.5c0.7,0,1.2,0.4,1.2,2.2v9.5c0,1.6,1.5,1.3,1.5,2.1c0,0.4-0.2,0.8-1.1,0.8L448.6,222.1z"
	/>
<path class="st39" d="M472.8,222.1c-0.8,0-1.1-0.3-1.1-0.8c0-1.1,1.4-0.2,1.4-2.2v-6.7c0-1.8-0.9-2.7-2.3-2.7
	c-1.5-0.1-2.9,1-3.1,2.6v6.8c0,2,1.4,1,1.4,2.2c0,0.5-0.3,0.8-1.1,0.8h-4.5c-0.8,0-1.1-0.3-1.1-0.8c0-1.1,1.4-0.2,1.4-2.2v-6.7
	c0-1.8-0.9-2.7-2.3-2.7c-1.5-0.1-2.9,1-3.1,2.6v6.8c0,2,1.4,1,1.4,2.2c0,0.5-0.3,0.8-1.1,0.8h-4.5c-0.8,0-1.1-0.3-1.1-0.8
	c0-1.1,1.4-0.2,1.4-2.2v-7.3c0-2.3-1.6-1.2-1.6-2.6c0-1.1,3.3-1.7,3.9-1.7c0.9,0,1,0.6,1.1,2.4h0.1c1.1-1.6,2.9-2.4,4.8-2.4
	c1.7-0.1,3.4,0.8,4.1,2.4c1.2-1.6,3.2-2.5,5.2-2.4c2.4,0,5,1.3,5,4.8v6.9c0,2,1.4,1,1.4,2.2c0,0.5-0.3,0.8-1.1,0.8L472.8,222.1z"/>
<path class="st39" d="M414.3,247.3c1.1,0,1.9,0.1,1.9,0.9c0,0.2-0.3,3.4-0.3,3.7c0.1,1.2,0.2,2.3,0.4,3.5c0,1-4.3,3.6-9.5,3.6
	c-6.4,0-11.9-4.2-11.9-11.2s5.9-11.7,12.2-11.7c2.7,0,8.1,1.1,8.1,3.3v2.5c0,0.6-0.3,1-0.9,1s-0.8-0.5-1-0.9c-0.9-2.5-3.3-4.1-6-3.9
	c-5.1,0-7.7,5.1-7.7,9.6s2.5,9.1,7.5,9.1c3.1,0,4.7-1.5,4.7-4.4v-1.8c0-1.2-0.6-1.5-2.2-1.5c-1.9,0-2.4-0.3-2.4-1.1
	c0-0.6,0.4-1,1.6-1L414.3,247.3z"/>
<path class="st39" d="M426.1,244c2.5,0,5.8,1.2,5.8,4.2c0,4-6.8,4.8-9.9,4.9c0.3,2.1,2.1,3.7,4.2,3.6c1.6,0,3.1-0.7,4.2-1.8
	c0.4-0.3,0.6-0.6,1.1-0.6c0.3,0,0.7,0.2,0.7,0.6c0,0,0,0.1,0,0.1c0,1.5-3.3,3.9-6.9,3.9c-4.1,0-7.6-2.8-7.6-7.1
	C417.6,247.1,420.5,244,426.1,244z M421.7,251.5c1.6-0.1,6.3-0.8,6.3-3.7c0.1-1.1-0.8-2.1-1.9-2.1c-0.1,0-0.2,0-0.3,0
	C422.9,245.6,421.6,248.5,421.7,251.5L421.7,251.5z"/>
<path class="st39" d="M444.8,250.1c0-2.1-0.2-3.9-2.8-3.9c-1.7,0-3.1,1.4-3.1,3.2c0,0,0,0,0,0v6.2c0,2,1.4,1,1.4,2.2
	c0,0.5-0.3,0.8-1.1,0.8h-4.5c-0.8,0-1.1-0.3-1.1-0.8c0-1.1,1.4-0.2,1.4-2.2v-7.3c0-2.3-1.6-1.2-1.6-2.6c0-1.1,3.3-1.7,3.9-1.7
	c0.9,0,1,0.6,1.1,2.4c1.2-1.5,3-2.4,4.9-2.4c3.7,0,5.4,1.9,5.4,5.9v5.7c0,2,1.4,1,1.4,2.2c0,0.5-0.3,0.8-1.1,0.8h-4.5
	c-0.8,0-1.1-0.3-1.1-0.8c0-1.1,1.4-0.2,1.4-2.2L444.8,250.1z"/>
<path class="st39" d="M459.6,244c2.5,0,5.8,1.2,5.8,4.2c0,4-6.8,4.8-9.9,4.9c0.3,2.1,2.1,3.7,4.2,3.6c1.6,0,3.1-0.7,4.2-1.8
	c0.4-0.3,0.6-0.6,1.1-0.6c0.3,0,0.7,0.2,0.7,0.6c0,0,0,0.1,0,0.1c0,1.5-3.3,3.9-6.9,3.9c-4.1,0-7.6-2.8-7.6-7.1
	C451.1,247.1,454,244,459.6,244z M455.2,251.5c1.6-0.1,6.3-0.8,6.3-3.7c0.1-1.1-0.8-2.1-1.9-2.1c-0.1,0-0.2,0-0.3,0
	C456.4,245.6,455.1,248.5,455.2,251.5L455.2,251.5z"/>
<path class="st39" d="M468.6,258.6c-0.8,0-1.1-0.3-1.1-0.8c0-1.1,1.4-0.2,1.4-2.2v-6c0-3.4-2-2.1-2-3.4c0-0.9,0.9-1,1.7-1.5
	c0.6-0.3,1.3-0.5,2.1-0.7c1.3,0,1.5,2.5,1.6,3.5h0.1c0.7-1.6,2.2-3.5,4-3.5c1.1,0,2,0.9,2,2c0,0,0,0.1,0,0.1c0,0.8-0.4,1.7-1.4,1.7
	c-0.5,0-1.2-0.5-1.8-0.5c-1.2,0-2.4,2.1-2.4,4.3v4c0,2,1.4,1,1.4,2.2c0,0.5-0.3,0.8-1.1,0.8L468.6,258.6z"/>
<path class="st39" d="M490.3,258.6c-1.3,0-1.4-0.7-1.3-1.6h-0.1c-0.8,1.3-2.7,1.9-4.7,1.9c-3.4,0-5.3-2.1-5.3-4.4
	c0-4.1,5.5-5.6,9.8-5.6c0.1-1.5-1-2.9-2.6-3c-0.1,0-0.3,0-0.4,0c-2.4,0-2.6,1.7-4.5,1.7c-0.6,0.1-1.2-0.4-1.3-1c0-0.1,0-0.1,0-0.2
	c0-1.4,2.9-2.3,5.6-2.3c3.9,0,7.1,1.4,7.1,5.3v6.4c0,1.5,1.5,1.1,1.5,2c0,0.7-0.2,0.9-1.4,0.9L490.3,258.6z M488.7,250.4
	c-3.5,0-5.7,2.1-5.7,4c0,1.5,1.2,2.7,2.7,2.8c2,0,2.9-1.9,3-3.3V250.4z"/>
<path class="st39" d="M503.4,244.3c0.7,0,1.1,0.2,1.1,1s-0.5,0.9-1.1,0.9h-2.5v8.7c0,1.4,0.5,1.8,2,1.8s1.7,0.2,1.7,0.9s-0.3,1-1,1
	h-4.2c-1.9,0-2.3-0.3-2.3-2v-10.5h-1.2c-0.9,0-1.1-0.2-1.1-0.9s0.6-0.9,1.7-1c3.4-0.3,2.4-5.2,3.8-5.2c0.6,0,0.8,0.3,0.8,1.2v4
	L503.4,244.3z"/>
<path class="st39" d="M513.6,258.9c-4.5,0-8.1-3-8.1-7.4s3.6-7.4,8.1-7.4s8.1,3,8.1,7.4S518.1,258.9,513.6,258.9z M513.6,257.1
	c2.2,0,4-1.9,4-5.6s-1.7-5.6-4-5.6s-4,1.9-4,5.6S511.3,257.1,513.6,257.1z"/>
<path class="st39" d="M524.8,258.6c-0.8,0-1.1-0.3-1.1-0.8c0-1.1,1.4-0.2,1.4-2.2v-6c0-3.4-2-2.1-2-3.4c0-0.9,0.9-1,1.7-1.5
	c0.7-0.3,1.4-0.5,2.1-0.7c1.3,0,1.5,2.5,1.6,3.5h0.1c0.7-1.6,2.2-3.5,4-3.5c1.1,0,2,0.9,2,2c0,0,0,0.1,0,0.1c0,0.8-0.4,1.7-1.4,1.7
	c-0.5,0-1.2-0.5-1.8-0.5c-1.2,0-2.4,2.1-2.4,4.3v4c0,2,1.4,1,1.4,2.2c0,0.5-0.3,0.8-1.1,0.8L524.8,258.6z"/>
<path class="st39" d="M536.9,239.1c-0.1-0.4-0.2-1-0.2-1.3c0-1.5,1.5-1.9,2.5-1.9s2.5,0.4,2.5,1.9c0,0.3-0.1,0.8-0.2,1.3l-1.3,12
	c-0.1,1.3-0.3,1.7-1,1.7s-0.9-0.4-1-1.7L536.9,239.1z M536.9,256.8c-0.2-1.3,0.7-2.5,2.1-2.7s2.5,0.7,2.7,2.1
	c0.2,1.3-0.7,2.5-2.1,2.7c-0.1,0-0.2,0-0.3,0C538.1,259,537,258,536.9,256.8C536.9,256.8,536.9,256.8,536.9,256.8z"/>
</svg>
